<svg width="160" height="46" viewBox="0 0 160 46" fill="none" xmlns="http://www.w3.org/2000/svg">
<path d="M57.6781 19.8757H51.6737V16.3337H58.8306L58.2121 14.5753C58.0905 14.2305 57.7646 14 57.399 14H48.5377V28.0861H57.399C57.7646 28.0861 58.0905 27.8556 58.2121 27.5108L58.8306 25.7524H51.6737V22.2104H57.6781V19.8757Z" fill="#371E2D"/>
<path d="M70.9539 17.3403L67.1634 28.0861H62.9659L59.1844 17.3403H61.6262C61.9999 17.3403 62.3312 17.5816 62.4464 17.9373L65.0692 26.0738L67.7108 17.9355C67.8261 17.5798 68.1574 17.3394 68.5302 17.3394H70.9539V17.3403Z" fill="#371E2D"/>
<path d="M107.844 16.2032H105.052V21.6233C108.858 21.5531 110.158 20.4493 110.158 18.5675C110.158 17.0585 109.212 16.2032 107.844 16.2032ZM113.285 18.5675C113.294 22.0591 110.837 23.6959 105.052 23.8166V28.0861H101.916V14H108.026C111.172 14 113.285 15.6098 113.285 18.5675Z" fill="#FF6E00"/>
<path d="M76.4389 19.0915C77.8156 19.0609 79.1256 19.9568 78.9626 21.6773H73.6847C73.9908 20.1269 75.0136 19.1311 76.4389 19.0915ZM77.7102 26.2755C75.8168 26.2557 74.0286 25.5813 73.6559 23.5384H81.3531C81.9941 19.7956 79.9386 17.1792 76.257 17.1792C73.5326 17.1792 70.8261 18.9096 70.8261 22.7137C70.8261 26.5663 73.8567 28.2572 76.917 28.2572C78.4278 28.2572 79.6523 28.0465 80.5319 27.6944L79.9143 25.927C79.2399 26.1611 78.4701 26.2899 77.7102 26.2755Z" fill="#371E2D"/>
<path d="M131.251 17.9112L128.74 24.9168L126.393 17.9274C126.275 17.5762 125.947 17.3403 125.577 17.3403H123.127L127.028 27.6737C126.732 29.1422 125.805 30.0579 123.921 29.957L124.6 31.9C128.224 31.882 129.675 29.5032 130.394 27.6935L134.506 17.3403H132.062C131.698 17.3403 131.373 17.569 131.251 17.9112Z" fill="#FF6E00"/>
<path d="M97.6198 17.9112L95.1087 24.9168L92.7624 17.9274C92.6444 17.5762 92.3158 17.3403 91.9457 17.3403H90.4638H90.1234H90.0001H89.5985C87.7474 17.3403 86.3698 17.8436 85.4137 19.0303V17.3403H82.5928V28.0861H85.4713L85.4785 23.0522C85.4803 21.7404 86.2564 20.5204 87.4836 20.0558C88.085 19.828 88.727 19.7335 89.2699 19.7794L89.8209 18.2029L93.3962 27.6728C93.1 29.1422 92.1726 30.057 90.2891 29.957L90.968 31.8991C94.5919 31.8811 96.0424 29.5023 96.7618 27.6926L100.874 17.3403H98.4301C98.0664 17.3403 97.7422 17.569 97.6198 17.9112Z" fill="#371E2D"/>
<path d="M120.031 25.1077C119.514 25.6614 118.577 26.2548 117.372 26.2854C116.167 26.325 115.432 26.0135 115.393 25.0276C115.326 23.4682 116.913 22.7731 120.03 23.1764V25.1077H120.031ZM122.918 21.3145C122.918 18.7188 121.388 17.1792 117.927 17.1792C116.56 17.1792 115.163 17.4709 114.055 17.9841L114.661 19.7182C115.649 19.34 116.706 19.1437 117.592 19.2023C119.19 19.2824 120.003 19.8964 120.032 21.174V21.5261C114.686 20.9724 112.564 22.8037 112.746 25.5705C112.822 26.9588 113.836 28.186 115.854 28.2572C117.862 28.3175 119.153 27.6233 120.032 26.8085L120.479 28.0861H122.92V21.3145H122.918Z" fill="#FF6E00"/>
<path d="M38.4555 14.488L32.0369 27.0597C31.7974 27.5288 32.1386 28.0861 32.6653 28.0861H36.8133C36.9636 28.0861 37.1005 28.0024 37.1689 27.8682L44.2493 14H39.2524C38.9156 14 38.6086 14.1891 38.4555 14.488Z" fill="#FF6E00"/>
<path d="M36.4468 27.8619L31.7938 18.7485C31.6416 18.4487 31.3337 18.2605 30.997 18.2605H26L30.7674 27.599C30.9196 27.8979 31.2275 28.087 31.5642 28.087H36.3595H36.5603H36.8124C36.6584 28.0861 36.5171 27.9997 36.4468 27.8619Z" fill="#371E2D"/>
</svg>
