<svg xmlns="http://www.w3.org/2000/svg" width="1599" height="347" version="1.2"><defs><radialGradient id="g1" cx="1461.6" cy="92.8" r="244.8" gradientUnits="userSpaceOnUse"><stop offset="0" stop-color="#ffe178"/><stop offset=".2" stop-color="#ffd05f"/><stop offset=".4" stop-color="#ffbe46"/><stop offset=".6" stop-color="#ff9b0f"/><stop offset=".8" stop-color="#f7780f"/><stop offset=".9" stop-color="#f3640f"/><stop offset="1" stop-color="#e65f19"/></radialGradient><radialGradient id="g2" cx="1459.8" cy="60.4" r="274.8" gradientUnits="userSpaceOnUse"><stop offset="0" stop-color="#ffc85a"/><stop offset=".3" stop-color="#f59619"/><stop offset=".4" stop-color="#e56b16"/><stop offset=".6" stop-color="#dc5014"/><stop offset=".8" stop-color="#ba3f18"/><stop offset=".8" stop-color="#b43c19"/></radialGradient><radialGradient id="g5" cx="1443" cy="64.4" r="265.5" gradientUnits="userSpaceOnUse"><stop offset="0" stop-color="#ffe178"/><stop offset=".2" stop-color="#ffd05f"/><stop offset=".4" stop-color="#ffbe46"/><stop offset=".6" stop-color="#ff9b0f"/><stop offset=".8" stop-color="#f7780f"/><stop offset=".9" stop-color="#f3640f"/><stop offset="1" stop-color="#e65f19"/></radialGradient><radialGradient id="g6" cx="1442.6" cy="64.2" r="266.3" gradientUnits="userSpaceOnUse"><stop offset="0" stop-color="#ffe178"/><stop offset=".2" stop-color="#ffd05f"/><stop offset=".4" stop-color="#ffbe46"/><stop offset=".6" stop-color="#ff9b0f"/><stop offset=".8" stop-color="#f7780f"/><stop offset=".9" stop-color="#f3640f"/><stop offset="1" stop-color="#e65f19"/></radialGradient><radialGradient id="g7" cx="1442.4" cy="63.9" r="265.9" gradientUnits="userSpaceOnUse"><stop offset="0" stop-color="#ffe178"/><stop offset=".2" stop-color="#ffd05f"/><stop offset=".4" stop-color="#ffbe46"/><stop offset=".6" stop-color="#ff9b0f"/><stop offset=".8" stop-color="#f7780f"/><stop offset=".9" stop-color="#f3640f"/><stop offset="1" stop-color="#e65f19"/></radialGradient><radialGradient id="g8" cx="1443.3" cy="64" r="265.5" gradientUnits="userSpaceOnUse"><stop offset="0" stop-color="#ffe178"/><stop offset=".2" stop-color="#ffd05f"/><stop offset=".4" stop-color="#ffbe46"/><stop offset=".6" stop-color="#ff9b0f"/><stop offset=".8" stop-color="#f7780f"/><stop offset=".9" stop-color="#f3640f"/><stop offset="1" stop-color="#e65f19"/></radialGradient><radialGradient id="g9" cx="1432.9" cy="52" r="294.2" gradientUnits="userSpaceOnUse"><stop offset="0" stop-color="#ffe178"/><stop offset=".2" stop-color="#ffd05f"/><stop offset=".4" stop-color="#ffbe46"/><stop offset=".6" stop-color="#ff9b0f"/><stop offset=".8" stop-color="#f7780f"/><stop offset=".9" stop-color="#f3640f"/><stop offset="1" stop-color="#e65f19"/></radialGradient><radialGradient id="g10" cx="1448.4" cy="61" r="271.5" gradientUnits="userSpaceOnUse"><stop offset="0" stop-color="#ffe178"/><stop offset=".2" stop-color="#ffd05f"/><stop offset=".4" stop-color="#ffbe46"/><stop offset=".6" stop-color="#ff9b0f"/><stop offset=".8" stop-color="#f7780f"/><stop offset=".9" stop-color="#f3640f"/><stop offset="1" stop-color="#e65f19"/></radialGradient><radialGradient id="g11" cx="1438.2" cy="55.1" r="282.3" gradientUnits="userSpaceOnUse"><stop offset="0" stop-color="#ffe178"/><stop offset=".2" stop-color="#ffd05f"/><stop offset=".4" stop-color="#ffbe46"/><stop offset=".6" stop-color="#ff9b0f"/><stop offset=".8" stop-color="#f7780f"/><stop offset=".9" stop-color="#f3640f"/><stop offset="1" stop-color="#e65f19"/></radialGradient><radialGradient id="g12" cx="1440.9" cy="64.8" r="267" gradientUnits="userSpaceOnUse"><stop offset="0" stop-color="#ffe178"/><stop offset=".2" stop-color="#ffd05f"/><stop offset=".4" stop-color="#ffbe46"/><stop offset=".6" stop-color="#ff9b0f"/><stop offset=".8" stop-color="#f7780f"/><stop offset=".9" stop-color="#f3640f"/><stop offset="1" stop-color="#e65f19"/></radialGradient><radialGradient id="g13" cx="1437.9" cy="60.3" r="277.8" gradientUnits="userSpaceOnUse"><stop offset="0" stop-color="#ffe178"/><stop offset=".2" stop-color="#ffd05f"/><stop offset=".4" stop-color="#ffbe46"/><stop offset=".6" stop-color="#ff9b0f"/><stop offset=".8" stop-color="#f7780f"/><stop offset=".9" stop-color="#f3640f"/><stop offset="1" stop-color="#e65f19"/></radialGradient><radialGradient id="g14" cx="1446.9" cy="62.5" r="271.3" gradientUnits="userSpaceOnUse"><stop offset="0" stop-color="#ffe178"/><stop offset=".2" stop-color="#ffd05f"/><stop offset=".4" stop-color="#ffbe46"/><stop offset=".6" stop-color="#ff9b0f"/><stop offset=".8" stop-color="#f7780f"/><stop offset=".9" stop-color="#f3640f"/><stop offset="1" stop-color="#e65f19"/></radialGradient><radialGradient id="g15" cx="1438.6" cy="64.4" r="279.1" gradientUnits="userSpaceOnUse"><stop offset="0" stop-color="#ffe178"/><stop offset=".2" stop-color="#ffd05f"/><stop offset=".4" stop-color="#ffbe46"/><stop offset=".6" stop-color="#ff9b0f"/><stop offset=".8" stop-color="#f7780f"/><stop offset=".9" stop-color="#f3640f"/><stop offset="1" stop-color="#e65f19"/></radialGradient><radialGradient id="g16" cx="1441.4" cy="62.8" r="269.9" gradientUnits="userSpaceOnUse"><stop offset="0" stop-color="#ffe178"/><stop offset=".2" stop-color="#ffd05f"/><stop offset=".4" stop-color="#ffbe46"/><stop offset=".6" stop-color="#ff9b0f"/><stop offset=".8" stop-color="#f7780f"/><stop offset=".9" stop-color="#f3640f"/><stop offset="1" stop-color="#e65f19"/></radialGradient><radialGradient id="g17" cx="1442.1" cy="63.2" r="273.5" gradientUnits="userSpaceOnUse"><stop offset="0" stop-color="#ffe178"/><stop offset=".2" stop-color="#ffd05f"/><stop offset=".4" stop-color="#ffbe46"/><stop offset=".6" stop-color="#ff9b0f"/><stop offset=".8" stop-color="#f7780f"/><stop offset=".9" stop-color="#f3640f"/><stop offset="1" stop-color="#e65f19"/></radialGradient><radialGradient id="g18" cx="1441.6" cy="65" r="270.5" gradientUnits="userSpaceOnUse"><stop offset="0" stop-color="#ffe178"/><stop offset=".2" stop-color="#ffd05f"/><stop offset=".4" stop-color="#ffbe46"/><stop offset=".6" stop-color="#ff9b0f"/><stop offset=".8" stop-color="#f7780f"/><stop offset=".9" stop-color="#f3640f"/><stop offset="1" stop-color="#e65f19"/></radialGradient><radialGradient id="g19" cx="1442.9" cy="65.4" r="276.9" gradientUnits="userSpaceOnUse"><stop offset="0" stop-color="#ffe178"/><stop offset=".2" stop-color="#ffd05f"/><stop offset=".4" stop-color="#ffbe46"/><stop offset=".6" stop-color="#ff9b0f"/><stop offset=".8" stop-color="#f7780f"/><stop offset=".9" stop-color="#f3640f"/><stop offset="1" stop-color="#e65f19"/></radialGradient><radialGradient id="g20" cx="1441.6" cy="65.8" r="269.8" gradientUnits="userSpaceOnUse"><stop offset="0" stop-color="#ffe178"/><stop offset=".2" stop-color="#ffd05f"/><stop offset=".4" stop-color="#ffbe46"/><stop offset=".6" stop-color="#ff9b0f"/><stop offset=".8" stop-color="#f7780f"/><stop offset=".9" stop-color="#f3640f"/><stop offset="1" stop-color="#e65f19"/></radialGradient><radialGradient id="g21" cx="1442.7" cy="65" r="270.8" gradientUnits="userSpaceOnUse"><stop offset="0" stop-color="#ffe178"/><stop offset=".2" stop-color="#ffd05f"/><stop offset=".4" stop-color="#ffbe46"/><stop offset=".6" stop-color="#ff9b0f"/><stop offset=".8" stop-color="#f7780f"/><stop offset=".9" stop-color="#f3640f"/><stop offset="1" stop-color="#e65f19"/></radialGradient><radialGradient id="g22" cx="1443" cy="66.5" r="275.9" gradientUnits="userSpaceOnUse"><stop offset="0" stop-color="#ffe178"/><stop offset=".2" stop-color="#ffd05f"/><stop offset=".4" stop-color="#ffbe46"/><stop offset=".6" stop-color="#ff9b0f"/><stop offset=".8" stop-color="#f7780f"/><stop offset=".9" stop-color="#f3640f"/><stop offset="1" stop-color="#e65f19"/></radialGradient><radialGradient id="g23" cx="1443.6" cy="66.3" r="269.2" gradientUnits="userSpaceOnUse"><stop offset="0" stop-color="#ffe178"/><stop offset=".2" stop-color="#ffd05f"/><stop offset=".4" stop-color="#ffbe46"/><stop offset=".6" stop-color="#ff9b0f"/><stop offset=".8" stop-color="#f7780f"/><stop offset=".9" stop-color="#f3640f"/><stop offset="1" stop-color="#e65f19"/></radialGradient><radialGradient id="g24" cx="1444.4" cy="63.6" r="273.4" gradientUnits="userSpaceOnUse"><stop offset="0" stop-color="#ffe178"/><stop offset=".2" stop-color="#ffd05f"/><stop offset=".4" stop-color="#ffbe46"/><stop offset=".6" stop-color="#ff9b0f"/><stop offset=".8" stop-color="#f7780f"/><stop offset=".9" stop-color="#f3640f"/><stop offset="1" stop-color="#e65f19"/></radialGradient><radialGradient id="g25" cx="1441.5" cy="64.1" r="268.7" gradientUnits="userSpaceOnUse"><stop offset="0" stop-color="#ffe178"/><stop offset=".2" stop-color="#ffd05f"/><stop offset=".4" stop-color="#ffbe46"/><stop offset=".6" stop-color="#ff9b0f"/><stop offset=".8" stop-color="#f7780f"/><stop offset=".9" stop-color="#f3640f"/><stop offset="1" stop-color="#e65f19"/></radialGradient><radialGradient id="g26" cx="1444.3" cy="65.1" r="271.8" gradientUnits="userSpaceOnUse"><stop offset="0" stop-color="#ffe178"/><stop offset=".2" stop-color="#ffd05f"/><stop offset=".4" stop-color="#ffbe46"/><stop offset=".6" stop-color="#ff9b0f"/><stop offset=".8" stop-color="#f7780f"/><stop offset=".9" stop-color="#f3640f"/><stop offset="1" stop-color="#e65f19"/></radialGradient><radialGradient id="g27" cx="1446" cy="61.5" r="274.5" gradientUnits="userSpaceOnUse"><stop offset="0" stop-color="#ffe178"/><stop offset=".2" stop-color="#ffd05f"/><stop offset=".4" stop-color="#ffbe46"/><stop offset=".6" stop-color="#ff9b0f"/><stop offset=".8" stop-color="#f7780f"/><stop offset=".9" stop-color="#f3640f"/><stop offset="1" stop-color="#e65f19"/></radialGradient><radialGradient id="g28" cx="1444.5" cy="65.9" r="268" gradientUnits="userSpaceOnUse"><stop offset="0" stop-color="#ffe178"/><stop offset=".2" stop-color="#ffd05f"/><stop offset=".4" stop-color="#ffbe46"/><stop offset=".6" stop-color="#ff9b0f"/><stop offset=".8" stop-color="#f7780f"/><stop offset=".9" stop-color="#f3640f"/><stop offset="1" stop-color="#e65f19"/></radialGradient><radialGradient id="g29" cx="1448" cy="62.4" r="274.6" gradientUnits="userSpaceOnUse"><stop offset="0" stop-color="#ffe178"/><stop offset=".2" stop-color="#ffd05f"/><stop offset=".4" stop-color="#ffbe46"/><stop offset=".6" stop-color="#ff9b0f"/><stop offset=".8" stop-color="#f7780f"/><stop offset=".9" stop-color="#f3640f"/><stop offset="1" stop-color="#e65f19"/></radialGradient><radialGradient id="g30" cx="1444.9" cy="62.8" r="269.4" gradientUnits="userSpaceOnUse"><stop offset="0" stop-color="#ffe178"/><stop offset=".2" stop-color="#ffd05f"/><stop offset=".4" stop-color="#ffbe46"/><stop offset=".6" stop-color="#ff9b0f"/><stop offset=".8" stop-color="#f7780f"/><stop offset=".9" stop-color="#f3640f"/><stop offset="1" stop-color="#e65f19"/></radialGradient><radialGradient id="g31" cx="1449.1" cy="63.4" r="279.1" gradientUnits="userSpaceOnUse"><stop offset="0" stop-color="#ffe178"/><stop offset=".2" stop-color="#ffd05f"/><stop offset=".4" stop-color="#ffbe46"/><stop offset=".6" stop-color="#ff9b0f"/><stop offset=".8" stop-color="#f7780f"/><stop offset=".9" stop-color="#f3640f"/><stop offset="1" stop-color="#e65f19"/></radialGradient><radialGradient id="g32" cx="1444.5" cy="63.4" r="272" gradientUnits="userSpaceOnUse"><stop offset="0" stop-color="#ffe178"/><stop offset=".2" stop-color="#ffd05f"/><stop offset=".4" stop-color="#ffbe46"/><stop offset=".6" stop-color="#ff9b0f"/><stop offset=".8" stop-color="#f7780f"/><stop offset=".9" stop-color="#f3640f"/><stop offset="1" stop-color="#e65f19"/></radialGradient><radialGradient id="g33" cx="1447.3" cy="57.8" r="274.9" gradientUnits="userSpaceOnUse"><stop offset="0" stop-color="#ffe178"/><stop offset=".2" stop-color="#ffd05f"/><stop offset=".4" stop-color="#ffbe46"/><stop offset=".6" stop-color="#ff9b0f"/><stop offset=".8" stop-color="#f7780f"/><stop offset=".9" stop-color="#f3640f"/><stop offset="1" stop-color="#e65f19"/></radialGradient><radialGradient id="g34" cx="1446.8" cy="61.2" r="271.1" gradientUnits="userSpaceOnUse"><stop offset="0" stop-color="#ffe178"/><stop offset=".2" stop-color="#ffd05f"/><stop offset=".4" stop-color="#ffbe46"/><stop offset=".6" stop-color="#ff9b0f"/><stop offset=".8" stop-color="#f7780f"/><stop offset=".9" stop-color="#f3640f"/><stop offset="1" stop-color="#e65f19"/></radialGradient><radialGradient id="g35" cx="1446.5" cy="61.2" r="272.7" gradientUnits="userSpaceOnUse"><stop offset="0" stop-color="#ffe178"/><stop offset=".2" stop-color="#ffd05f"/><stop offset=".4" stop-color="#ffbe46"/><stop offset=".6" stop-color="#ff9b0f"/><stop offset=".8" stop-color="#f7780f"/><stop offset=".9" stop-color="#f3640f"/><stop offset="1" stop-color="#e65f19"/></radialGradient><radialGradient id="g36" cx="1446.3" cy="59.1" r="274.1" gradientUnits="userSpaceOnUse"><stop offset="0" stop-color="#ffe178"/><stop offset=".2" stop-color="#ffd05f"/><stop offset=".4" stop-color="#ffbe46"/><stop offset=".6" stop-color="#ff9b0f"/><stop offset=".8" stop-color="#f7780f"/><stop offset=".9" stop-color="#f3640f"/><stop offset="1" stop-color="#e65f19"/></radialGradient><radialGradient id="g37" cx="1441.3" cy="56.2" r="281.2" gradientUnits="userSpaceOnUse"><stop offset="0" stop-color="#ffe178"/><stop offset=".2" stop-color="#ffd05f"/><stop offset=".4" stop-color="#ffbe46"/><stop offset=".6" stop-color="#ff9b0f"/><stop offset=".8" stop-color="#f7780f"/><stop offset=".9" stop-color="#f3640f"/><stop offset="1" stop-color="#e65f19"/></radialGradient><radialGradient id="g38" cx="1446.9" cy="57.2" r="276.9" gradientUnits="userSpaceOnUse"><stop offset="0" stop-color="#ffe178"/><stop offset=".2" stop-color="#ffd05f"/><stop offset=".4" stop-color="#ffbe46"/><stop offset=".6" stop-color="#ff9b0f"/><stop offset=".8" stop-color="#f7780f"/><stop offset=".9" stop-color="#f3640f"/><stop offset="1" stop-color="#e65f19"/></radialGradient><radialGradient id="g39" cx="1440.4" cy="56" r="279.8" gradientUnits="userSpaceOnUse"><stop offset="0" stop-color="#ffe178"/><stop offset=".2" stop-color="#ffd05f"/><stop offset=".4" stop-color="#ffbe46"/><stop offset=".6" stop-color="#ff9b0f"/><stop offset=".8" stop-color="#f7780f"/><stop offset=".9" stop-color="#f3640f"/><stop offset="1" stop-color="#e65f19"/></radialGradient><radialGradient id="g40" cx="1440.9" cy="59.5" r="274.7" gradientUnits="userSpaceOnUse"><stop offset="0" stop-color="#ffe178"/><stop offset=".2" stop-color="#ffd05f"/><stop offset=".4" stop-color="#ffbe46"/><stop offset=".6" stop-color="#ff9b0f"/><stop offset=".8" stop-color="#f7780f"/><stop offset=".9" stop-color="#f3640f"/><stop offset="1" stop-color="#e65f19"/></radialGradient><radialGradient id="g41" cx="1439.9" cy="59.1" r="273.1" gradientUnits="userSpaceOnUse"><stop offset="0" stop-color="#ffe178"/><stop offset=".2" stop-color="#ffd05f"/><stop offset=".4" stop-color="#ffbe46"/><stop offset=".6" stop-color="#ff9b0f"/><stop offset=".8" stop-color="#f7780f"/><stop offset=".9" stop-color="#f3640f"/><stop offset="1" stop-color="#e65f19"/></radialGradient><radialGradient id="g42" cx="1433.2" cy="49.8" r="290" gradientUnits="userSpaceOnUse"><stop offset="0" stop-color="#ffe178"/><stop offset=".2" stop-color="#ffd05f"/><stop offset=".4" stop-color="#ffbe46"/><stop offset=".6" stop-color="#ff9b0f"/><stop offset=".8" stop-color="#f7780f"/><stop offset=".9" stop-color="#f3640f"/><stop offset="1" stop-color="#e65f19"/></radialGradient><linearGradient id="g3" x1="1520.9" x2="1328.2" y1="31.1" y2="315.1" gradientUnits="userSpaceOnUse"><stop offset="0" stop-color="#ffe6a5"/><stop offset=".1" stop-color="#fcc677"/><stop offset=".3" stop-color="#f5871e"/><stop offset=".3" stop-color="#f5871e"/><stop offset=".6" stop-color="#e1690f"/><stop offset=".6" stop-color="#cc5c0e"/><stop offset=".8" stop-color="#9c3d0c"/><stop offset=".9" stop-color="#7e2a0b"/><stop offset="1" stop-color="#73230a"/></linearGradient><linearGradient id="g4" x1="1335.2" x2="1512.7" y1="305.8" y2="42.2" gradientUnits="userSpaceOnUse"><stop offset="0" stop-color="#ffe6a0"/><stop offset=".1" stop-color="#fcc877"/><stop offset=".3" stop-color="#f5871e"/><stop offset=".3" stop-color="#f5871e"/><stop offset=".6" stop-color="#e1690f"/><stop offset=".7" stop-color="#db650f"/><stop offset=".8" stop-color="#ae490d"/><stop offset=".9" stop-color="#8e340b"/><stop offset=".9" stop-color="#7a280a"/><stop offset="1" stop-color="#73230a"/></linearGradient></defs><style>.s5{fill:#b43c19}.s44{fill:#9f5024}.s45{fill:#f29b40}.s46{fill:#ffb560}.s47{fill:#efa952}.s48{fill:#fdac4a}.s49{fill:#7e3717}.s50{fill:#dc8730}.s51{fill:#ffc378}.s52{fill:#b46027}.s53{fill:#f8a943}.s54{fill:#ec9c4b}.s55{fill:#bf6b29}.s56{fill:#8d4428}.s57{fill:#ad5725}.s58{fill:#e48e33}.s59{fill:#db7b29}.s60{fill:#bc6327}.s62{fill:#ffd68e}.s63{fill:#d57c3f}.s64{fill:#ffcd85}.s66{fill:#ffce89}.s67{fill:#ffd79d}.s69{fill:#fcb664}.s71{fill:#d47429}.s72{fill:#e7944b}.s73{fill:#964c25}.s74{fill:#823d1e}.s75{fill:#6c2b13}.s78{fill:#94441e}.s79{fill:#dd8732}.s84{fill:#56220c}.s85{fill:#f49e4d}.s90{fill:#a5572a}.s91{fill:#e69646}.s93{fill:#7a2c13}.s94{fill:#c27138}.s99{fill:#944428}.s100{fill:#ffc283}.s105{fill:#ff5f00}</style><g id="Lager_2_1_"><g id="Lager_1-2"><g id="Layer"><path fill-rule="evenodd" d="M1424.3 331a157.5 157.5 0 1 1 0-315 157.5 157.5 0 1 1 0 315" style="fill:url(#g1)"/><path fill-rule="evenodd" d="M1561.1 195.1c-1 5.1-14.7 4.3-18.9 4.3-3 .3-5.7 2.1-6.5 5.1q-6 .7-12 1c-12.3-.2-15.5-4.8-15.5-4.8-5.6 0-6.1 5.1-11.2 6.7-3 .8-6.7-5.1-6.7-5.1-7.5.8-22.7 0-25.4-1.8-3.5-2.4-10.7-15-13.1-15h-4q-5.7.9-5.1 9.9a350 350 0 0 0 2.7 21.3c1.6 7.5 15.8 10.5 21.9 13.7l.6 2.9c-7-.8-23.8-2.9-20.3 1.1l5.3 5.8v2.7a60 60 0 0 0-55.9 0l-.2-2.7c2.7-2.4 4.3-4 5.9-5.6 2.4-2.4-5.1-2.4-16.6-1.8l.8-3.2c6.7-2.2 17.4-3.2 18.7-10.2 1.1-6.1 2.7-22.1 2.7-22.1 1-9.1-5.9-15-9.9-13.7q-5.6 1.7-9.9 5.4c-1.3 2.1 1.1 5.3.8 9.9-.3 2.6-8.3 2.6-17.9 2.1-4-.3-11 7.5-12.6 7.7a70 70 0 0 1-8 .6c-2.1 0-4.5-4.3-8.3-4.6-2.1 0-5 4.3-6.6 4q-7-.7-13.4-4c-1.3-.5 1.1-8.8.8-9.3q-4.1-.9-8.3.5-2.8 2.4-5.6 4.3c-13.4 2.7-18.4.5-18.4.5 0-4.5 1-10.4 1.8-11.2 3.5-3.5 10.2-9.1 9.1-10.9-.8-1.4-6.9-5.4-5.9-7.5l2.7-4c1.6-1.9 5.1.5 7.2-.5 1.9-1.1 3.2-4.6 4-4.8q3.1-.6 6.2-.3c1.3 0 3.2 5.6 4.3 5.6 2.4 0 5 .3 5.8-1.3q2.2-4.5 2.2-9.4c0-3.2-9.1-5.6-9.1-7.5 0-1.8 2.7-11.2 4.3-11.7 2.4-.8 6.6-2.4 6.4-4-.8-4.5-3.2-13.9-1.9-15q3.6-3.2 8-5.6c1.6-1 3.8.3 6.2 1.4 2.6 1.6 6.1 1 8-1.4 1.1-1.6.8-11.2 1.9-12 2.1-1.3 5-2.9 6.4-3.4 1.3-.8 6.4 2.4 7.2 1.3 2.9-3.5 4.5-5.6 4.3-7.5-.8-3.2-3.2-10.7-2.4-12a41 41 0 0 1 3.7-7.2c1.9-2.4 8.5-1.1 11.2-3.5 3.8-3.2 1.9-6.1 6.7-6.6 6.9-.8 14.7-7 16.8-7.8 4.6-2.1 18.2 1.1 18.2 1.1 2.4-.3 6.4-4 8.6-4q6 0 11.7 2.1c1.6.8 1.9 8.3 5.9 9.6a47 47 0 0 0 9.3 2.4c8.1 1.1 10.2-5.3 13.1-4.8 4 1.1 7.3 3.8 9.7 7 2.1 2.6-1.6 12.5 3.4 14.6 6.4 2.7 13.4 9.9 12.9 12.1-.8 2.9-4 8.5-2.7 10.6.8 1.1 6.1-.2 8-.8q4.4-.2 8 2.2 2.4 3.5 5.6 5.8c3.5 1.6 8.6 4 9.1 5.4 1.6 5.1-2.4 11.7-1.6 14.1 0 .3 6.4 2.4 7.2 4.3q.3 6.7-.2 13.3 4.8-1.4 10.1-.2c2.7 1 3.8 4.2 5.1 8.3.3 1 3.7 1.6 4 2.4q3 7.4-.3 8.8c-4.5 1.8-14.9 5.3-13.3 9.6a5 5 0 0 0 5.1 4.2q6.7 0 13 2.2c3 2.1 5.1 6.4 5.1 10.9" style="fill:url(#g2)"/><path fill-rule="evenodd" d="M1424.3 344.3a170.7 170.7 0 1 1 0-341.6 170.7 170.7 0 1 1 0 341.6m164.1-170.8c0-90.6-73.4-163.9-164.1-163.9a163.9 163.9 0 1 0 0 327.8c90.7 0 164.1-73.3 164.1-163.9" style="fill:url(#g3)"/><path fill-rule="evenodd" d="M1424.3 9.6a164 164 0 0 1 164.1 163.9 164 164 0 0 1-328.2 0A164 164 0 0 1 1424.3 9.6m0 320.9a156.9 156.9 0 1 0 0-314 157 157 0 1 0 0 314" style="fill:url(#g4)"/><path fill-rule="evenodd" d="M1424.3 338.2a164.8 164.8 0 1 1 0-329.4 164.8 164.8 0 1 1 0 329.4m163.3-164.7a163 163 0 0 0-163.3-163.1 163 163 0 1 0 0 326.2 163 163 0 0 0 163.3-163.1" style="fill:#faaf5a"/><path d="M1335.6 245.3a6 6 0 0 0-4.3 1.6 8 8 0 0 0-1.9 8c.6 1.3 1.1 3.5 1.1 4q.9 2.5-1.1 4.3-.9.8-1.8.8-1.7 0-3-1.6a6 6 0 0 1-.8-6.4l-4-1.4a10 10 0 0 0 1.6 10.5 9 9 0 0 0 6.4 3.2 7 7 0 0 0 4.6-1.9 7 7 0 0 0 2.1-7.5c-.3-.8-1.3-3.7-1.6-5.1q-.8-2 .8-3.7.8-.8 1.6-.8 1.3.1 2.2 1.1 1.4 1.7.2 4l3.8 1.6a8 8 0 0 0-4.6-10.2c.3-.2-.5-.5-1.3-.5m16.8 14.1-15.7 19.5 3.7 3 15.8-19.5-2.2-1.9zm10.7 8.3-11.7 22.2 3.7 1.8 8.3-15.4.8 20.3 4 2.1 11.7-22.2-3.4-1.8-8.3 15.4-.8-20.5zm31.3 13.9c-4.8 0-9.4 2.9-11.2 9.9-2.2 8.5 2.1 13.6 8 15.2q1.4.4 2.9.3c2.9 0 5.9-1.4 7.8-4l-3.2-2.7a6 6 0 0 1-4.9 2.4q-.7 0-1.6-.3c-3.4-.8-5.6-4.2-4.2-10.1 1.3-4.8 4-7 6.9-7a3 3 0 0 1 1.6.3q3 .8 4 4l4.3-1.1a9 9 0 0 0-7.5-6.6q-1.3-.4-2.9-.3m18.9 3.5-.8 25.1 16.1.5v-4l-11.5-.3.3-7.4 8.2.2v-4l-8.2-.2.2-5.9 11 .2v-4zm44.7-4.8-2.4.5-6.4 6.1 2.4 3.2 3.4-2.6 4.8 18.1 4.6-1.3z" class="s5"/><path fill-rule="evenodd" d="M1481 277.6q1.3 3.4-1.1 6.4h.8c2.4 0 4.8 1.3 5.9 3.7 1.8 3.5 0 8.1-4.8 10.2a8 8 0 0 1-4.3 1.1c-3 0-5.6-1.6-6.7-4.1a6.5 6.5 0 0 1 1.6-7.4 6 6 0 0 1-5.6-3.5v-.3a7 7 0 0 1 4.3-8.8q1.6-.8 3.7-.8a7 7 0 0 1 6.2 3.5m-5.7 6.4q.5-.4.6-.3c1.6-.5 2.1-2.4 1.3-4q-.8-1.7-2.9-1.8-.9 0-1.6.2-.1.4-.3.3c-1.6.8-2.1 2.7-1.3 4.3q1 1.6 2.6 1.8a3 3 0 0 0 1.6-.5m4.6 10.4q.3-.4.5-.3c1.9-.8 2.7-3.2 1.9-5q-1-2.4-3.5-2.4-1.3 0-2.1.5-.1.4-.3.3a4 4 0 0 0-1.9 5.3 4 4 0 0 0 3.5 2.1q1.2.1 1.9-.5" class="s5"/><path d="M1494.6 262.4q-3 .1-5.6 1.9a7.5 7.5 0 0 0-2.4 10.6q.2.5.5.6l3.5-2.7a4 4 0 0 1 0-5.3c1.3-1.6 3.7-1.4 5.3 0l.6.5q1.5 2.9.8 6.1l-1.6 13.4 1.3 1.8 13.6-9.8-2.4-3.2-7.7 5.6 1-9.1q.8-4.1-1.3-7.5a7 7 0 0 0-5.6-2.9" class="s5"/><path fill-rule="evenodd" d="M1522.6 250.4c6.5 6.1 5.9 12.5 2.4 16.3a10 10 0 0 1-6.9 2.9q-5.5-.4-9.4-4.3c-6.4-6.1-5.8-12.5-2.4-16.3a10 10 0 0 1 7-2.9q5.6.3 9.3 4.3m-.2 13.3c1.8-2.1 1.3-5.9-3-9.9q-2.5-2.9-6.6-3.4-2 0-3.3 1.3c-1.8 2.1-1.3 5.9 3 9.9q2.5 3 6.7 3.5 1.5-.1 3.2-1.4" class="s5"/><path d="M1416.3 139.9c-.5 1.3-1.9 6.4-4.3 8-2.9 2.1-8.5-.3-9.9.5-1 .8-1.3 2.4-.2 3.7q.3.5.8.6a168 168 0 0 1 18.7 9.9c.5.2 1.6-.3 1.8-1.4.3-1 3.2-19.7 3-20.5-1.4-2.7-9.4-2.2-9.9-.8" style="fill:url(#g5)"/><path d="M1437.9 143.3c-.2.6-2.6 20.6-2.4 20.9q8.6-7.7 17.9-14.2c.6-.5.3-1.6.3-1.9a22 22 0 0 0-5.1-6.4c-1 .3-10.7 1.4-10.7 1.6" style="fill:url(#g6)"/><path d="M1442.5 174.6c-.3 1 7.2 2.4 13.3.2 1.6-.5 3.8-6.6 6.7-7.7s9.9 1.9 12.3 0c1.9-1.6 1.3-6.4-1.1-6.4q-6.7-.4-13.1-2.4c-.8 0-17.3 9.3-18.1 16.3" style="fill:url(#g7)"/><path d="M1392.5 161.5c-.5.3-2.1 4.5-3.7 5.6q-1.3.8-3 .5-2.8 0-5.3-1.3-1.7-.7-3.2-1.1c-1.9 0-3.8 2.2-4.6 4.3-1.6 5.1 8.3 7.5 9.7 8 1.8.5 5.8-.8 9.8-3.2q3.3-2 7.3-2.1c2.1 0 4.8 1.3 8.2 1.6.6 0 1.4-.6 1.6-1.1.6-.8.6-2.1 0-2.9q-5.7-4.5-12.3-7.8c-1-.2-3.7-1-4.5-.5" style="fill:url(#g8)"/><path d="M1516 172.7a7 7 0 0 0 .8 3.5c.2.5 3.7.2 4-.3.2-1.3-.3-2.9-2.7-4.8-.5-.5-2.4.8-2.1 1.6" style="fill:url(#g9)"/><path d="M1307.8 181.8q-.8 2.5.3 5c1.6 1.4 6.1-2.1 6.9-3.2q.8-.8.8-2.4c-.3-1.6-.8-1.8-1.3-1.8q-3.6.8-6.7 2.4" style="fill:url(#g10)"/><path d="M1525.6 158.6q-2.2.1-2.4 2.4v.2c0 1.6 1 3 4.8 2.7 4.5-.3 4.5 2.1 6.4 2.1 4.3 0 3.2-4 3.5-5.8 0-1.9-7.5-1.9-12.3-1.6" style="fill:url(#g11)"/><path d="M1500.2 117.2c-1.3.2-2.4 1.6-2.1 3.2v.2c.5.8 2.6-.2 5.6 1.7 1.8 2.1 3.7 4.5 4.8 7.2q2 2.3 5.3 1.8c1.4-.8-1.3-8.5-2.1-8.8-3-1.3-5.1-3.7-6.7-4.5-1.3-.6-3.2-.8-4.8-.8" style="fill:url(#g12)"/><path d="M1514.9 146.8c-1.3.8-1.6 2.4-1.3 3.7a9 9 0 0 0 6.4 1.6q1.5-1 1-2.6c-.2-.8-1.8-5.6-3.4-5.6-1.1-.3-1.6 1.8-2.7 2.9" style="fill:url(#g13)"/><path d="M1346.5 148.7c-2.1 1.6-4 4-5 6.4-.6 1-1.4 2.9-.8 2.9q1.6.4 2.9-1.3c2.1-3.2 4.8-1.6 5.9-2.7 2.9-2.9 2.9-5.9 2.7-6.4-1.9-.3-4.1 0-5.7 1.1" style="fill:url(#g14)"/><path d="M1483.1 100.6c-1.1.6-1.6 7.2.3 8.8.5.6 2.9 0 3.4-.5 1.1-1.1.6-5.6-1.6-7.5q-1.3-1.4-2.1-.8" style="fill:url(#g15)"/><path d="M1491.9 134.5c-1.3.6-4.3 3-3.5 4 .6 1.1 1.6 1.1 4.8.6 1.4-.3 3 2.4 3.8 2.6a29 29 0 0 0 4.8 1.4q1.7-.8 2.1-2.7c0-.5-2.6-2.1-3.4-3.2-1.9-2.1-.6-3.5-1.1-4.3-.8 0-6.2 1.4-7.5 1.6" style="fill:url(#g16)"/><path d="M1453.4 119.3c0 .5 1.9 2.1 2.7 1.9q1.6-.8 3.2-1.1c3-.3 7.8 3.5 9.4 3q1.6-1.4 1.3-3.5a9 9 0 0 0-5.9-2.7c-2.7.3-4.5-1.6-5.6-1.1-4 1.6-4.8 1.4-5.1 3.5" style="fill:url(#g17)"/><path d="M1461.7 96.9c.3.8 1.1 1.9 3.8 4 1 1.1 1.3 3.2 2.9 5.1.3.2 2.7 1 2.7.5.2-2.1-1.4-2.9-1.4-5.3.3-3.8.3-4.6-.5-5.4a11 11 0 0 0-5.1-1.3c-1 0-2.7 1.6-2.4 2.4" style="fill:url(#g18)"/><path d="M1427.8 80.6c-.3 1.6 2.4 4.3 3.2 4.3 1.1 0 3.7-2.4 6.1-2.2 1.9.3 3.5-1.3 3.8-3.2v-.8q-1.1-1.2-2.7-1.3c-1.6 1.1-3.5 1.1-4.8 0-1.9-1.1-4.8-1.1-5.6 3.2" style="fill:url(#g19)"/><path d="M1462.8 80.1q.7 1.8 1.9.8 1.5-1.3 3.4-1.4c2.4.3 5.1 7.5 6.2 7.3.5-.3 1-3.3.8-4.6q-.9-2.9-3-5.3a12 12 0 0 0-5.8-3.2c-1.9-.3-4 5-3.5 6.4" style="fill:url(#g20)"/><path d="M1438.2 93.7c-1.9 2.7-3.7 2.9-5.9 4.8-1.3 1.3-1.6 5.1.3 5.1s1.9-2.2 7.2-4.3q4.4-2.3 9.4-1.1 2 0 2.4-2.1v-.3a28 28 0 0 0-6.7-3.2q-3.6-.4-6.7 1.1" style="fill:url(#g21)"/><path d="M1432.6 63c-.5 2.1.5 4.5 2.9 5.3l1.4.3a3 3 0 0 0 3.4-2.9q0-1-.2-1.9c-.6-1.9-6.7-2.9-7.5-.8" style="fill:url(#g22)"/><path d="M1408.5 65.4c-.2 1.1-.2 3.2.8 3.7 1.1.6 2.2-1.6 4.3-1.3 3.5.3 3.8 2.9 4.6 2.9 1.6 0 3.2-2.1 2.1-5.6 0-.2-.5 0-1.6-.8-.5-.5-1.3-1.8-1.9-1.8-2.7 0-7.5 0-8.3 2.9" style="fill:url(#g23)"/><path d="M1400.5 112.6c-1.8 1.1-4.8 3.5-4 6.2.3.8 3.8.2 5.6 0 3-.8 4.8-3.5 4.6-6.4q-1.5-2.5-6.2.2" style="fill:url(#g24)"/><path d="M1475.6 129.7c-1.6 4-1.6 5.6-.3 5.9 1.9.5 2.2-.3 6.5-5.3.5-.8 2.9-1.1 3.2-1.4q1.4-1 1.6-2.6c0-.8-4.3-2.7-5.4-2.7a27 27 0 0 0-5.6 6.1" style="fill:url(#g25)"/><path d="M1414.7 93.4c-3.2 4.3-3 9.6-.8 9.6.8 0 1.6-1.6 1.6-2.1q0-1.6.8-3.2.8-1.1 2.1-1.1c.3 0 1.1-3.7-.2-4.5q-2-.7-3.5 1.3" style="fill:url(#g26)"/><path d="M1356.2 128.4a8 8 0 0 0-2.2 4c0 1.3 1.4 2.9 4 2.1 1.9-.5 3.2-2.1 6.7-4 1.9-.8 1.9-2.9 1.1-3.2l-4.3-1q-2.9.2-5.3 2.1" style="fill:url(#g27)"/><path d="M1387.2 77.7q-2.4.7-4.8 1a7 7 0 0 0-4.3 4.8 33 33 0 0 0 2.6 11.3q1.2.8 2.5 0c.8-.6-1.1-8.9.5-10.7 1.3-1.6 9.9-3.8 10.7-5.1.5-.8-.3-5.1-.8-5.3-.8-.3-4.6 2.9-6.4 4" style="fill:url(#g28)"/><path d="M1340.1 121.2c-1.3.5-2.4 1.6-3.4 2.4q-1.6 1.7-1.1 3.7.4 1.8 2.4.3a7 7 0 0 1 4.3-2.1c.8-.3 1-2.7.2-3.8-.2-.5-1.3-.8-2.4-.5" style="fill:url(#g29)"/><path d="M1373.5 149.2c.3 0 3.5 2.9 2.2 4.5-.6.6-1.4.3-3.8.8q-2.7.9-4.8 3-2.4 2.4-5.6 3.2-.8-.1-1.6-.5c-.5-.8-.8-2.2-.5-3.2.2-.6.8-2.7 1.8-3q3.2-.1 5.7-1.9c2.9-1.3 2.9-3.4 6.6-2.9" style="fill:url(#g30)"/><path d="M1359.6 112.1a7 7 0 0 0-1.6 2.9c0 1.4 2.2 3.5 3.8 2.2 2.4-2.4 4-6.2 2.6-7-1-.8-3.7.6-4.8 1.9" style="fill:url(#g31)"/><path d="M1381.8 106.8c-3.7.5-6.9 2.9-8.5 6.6-.3 1.1.5 2.4 1.6 2.7 1.3 0 4.2-4.3 5.8-4.8q3 0 5.4 1.1c2.4.8 3.2 1.3 3.7 0s-.2-4.6-1.6-4.8q-3.2-1.6-6.4-.8" style="fill:url(#g32)"/><path d="M1331 193.5c-.2 1.9.8 3.2 4.9 3.5s4-2.4 3.4-2.7q-3.2-1-5.6-3.7c-.3 0-2.4.5-2.7 2.9" style="fill:url(#g33)"/><path d="M1328.1 173q-.3 1.5.5 2.6.9.8 1.6 1.1c.8.3 1.6 0 3.8-1.9.8-.8 1.9-.8 2.7-1.3q.5-.8.2-1.6-1.2-2-3.2-2.4a8 8 0 0 0-5.6 3.5" style="fill:url(#g34)"/><path d="M1339.6 136.9c-1.6 0-3.5.3-4.8 1.4q-3 1.4-2.7 4.8c0 1 .8 2.1 1.9 2.4s2.4-.3 2.9-1.4c.6-1.6 1.9-2.9 3.8-2.9 1.6-.3 2.6 0 3.2-.8.5-.8.2-2.7 0-2.7-1.4-.8-3-.8-4.3-.8" style="fill:url(#g35)"/><path d="M1357 190.6c0 1.9 1 2.9 1.8 2.9s2.7-.8 3.8-.8c1.8-.2 2.4.6 2.6 0q.6-1.6-.5-2.9c-.5-1.4-2.1-.6-2.9-.6-1.4 0-2.7-1.3-3.5-1.3s-1.3 2.1-1.3 2.7" style="fill:url(#g36)"/><path d="M1467.1 187.1a7 7 0 0 0 7.2 1.9c.8-.3 1.6-2.7.5-3.2a9 9 0 0 0-6.9-1.1c-.8.3-1.4 1.3-1.1 2.1z" style="fill:url(#g37)"/><path d="M1344.4 179.9c-2.1.8-3.2 1.3-3.5 3.2q-.1 1.8 3.2 1.6c3.5 0 5.1-1.6 5.1-3.2-.3-2.7-2.9-2.1-4.8-1.6" style="fill:url(#g38)"/><path d="M1486.6 190.6c1 1.9 4 .3 7.4 1.3 1.1.3 2.7 3.2 4.3 2.7.8-.3 1.9-3.8 1.9-5.9 0-1.6-3.2-2.4-4.5-1.9q-4 1.5-8.1 2.2c-.8 0-1.3 1.3-1 1.6" style="fill:url(#g39)"/><path d="M1490.3 171.4c.3.8 5.6.2 7.5 1.6 2.7 1.8 5.1 2.1 5.3 1.6.8-1.9.3-4-1.6-5.1a13 13 0 0 0-5.3-1.9c-5.4.3-6.2 3-5.9 3.8" style="fill:url(#g40)"/><path d="M1525 186.6c-1 0-2.6 2.9-5 2.6-1.4 0-3.5-1.3-4.6-1.3-1.6 0-3.4 3.2-3.2 4q3.8 3 8.3 2.7 2.1.3 3.5-1.9c1-1.6 3.2-1.9 3.7-2.4q.4-1.2 0-2.4a5 5 0 0 0-2.7-1.3" style="fill:url(#g41)"/><path d="M1541.9 189.5c-.8 1.3-.6 3 .8 3.8q.4.3.8.2c.8.3 5.1-.8 5.3-1.6q.4-2.4-2.1-3.7c-1.1 0-4 .2-4.8 1.3" style="fill:url(#g42)"/><path d="m1446.5 168.4-1.1-.8a12 12 0 0 0-4.3 6.4l1.4.3q1.2-3.7 4-5.9" class="s44"/><path d="M1441.4 173.8v1q.1.9 1.9 1.6l.5-1q-.7 0-1.1-.6v-.5z" class="s45"/><path d="M1448.6 175.6a26 26 0 0 1-4.8-.5l-.5 1.1q2.6.8 5.3.8 4.4.3 8.3-1.6l-1.1-.8c-2.1.8-4.8 1.3-7.2 1m-67.1-81.4-1 .8q1.6 1.1 3.7.3l-.8-1.1q-1.1.5-1.9 0" class="s46"/><path d="M1383.2 88.6q.3 3 0 5.9l.8 1.1.2-.3q.8-2.7.3-5.3c0-2.2-.5-4.6.5-5.4l-.8-1.1c-1.3.8-1 3-1 5.1" class="s47"/><path d="m1541.9 191.9-1.4.3q.6 1.3 1.9 2.1l.8-1q-.8-.5-1.3-1.4" class="s48"/><path d="M1466.5 73.9q2.4.5 4.6 2.2l.5-1.1a16 16 0 0 0-5.1-2.4 4 4 0 0 0-3.4 2.7l1 .5c.3-.3 1.1-1.9 2.4-1.9m-126.9 47.8q.8-.7 2.1-.3l.6-1a3 3 0 0 0-3.2.5l-1.6 1.4.8 1c.2-.8 1-1.3 1.3-1.6" class="s49"/><path d="M1450.5 97.4q-.3.5-1.1.6l.3 1.3q.8 0 1.6-.8z" class="s45"/><path d="m1379.9 176.7-.5 1.1c.8.2 1.9.5 2.4.8l.6-1.1a8 8 0 0 1-2.5-.8" class="s48"/><path d="M1396 78.7q.2-1 0-2.1h-1.4v1.6l-.2.5 1 .8z" class="s46"/><path d="M1418.7 93.7v1.6l1.3.3q.4-1.2 0-2.4z" class="s50"/><path d="M1415.5 100.1c0 1.6-1.1 2.9-1.6 2.9l.2 1.4a5 5 0 0 0 2.7-3.2q-.2-1.3.6-2.7l-.6-1.3q-1.6 1.2-1.3 2.9m105.8 51.8-1.1-.8q0 .4-.5.5l.5 1.1q1 0 1.1-.8" class="s48"/><path d="m1437.9 62.5.3-1.1c-1.6-.5-5.1-1.1-6.7.8l1.1.8c.8-1.3 4-1.1 5.3-.5" class="s49"/><path d="m1439.8 63.8.3 1.1 1.3.2q0-.7-.3-1.8a4 4 0 0 0-2.6-2.2l-.6 1.1q1.3.4 1.9 1.6" class="s44"/><path d="m1434.7 67.5-.5 1.1c4 1.9 6.9-.3 6.9-3.5l-1.3-.2c.3 2.4-1.6 4.2-5.1 2.6" class="s46"/><path d="m1432.6 65.1-1.3.3a6 6 0 0 0 2.9 3.5l.5-1.1q-1.6-1.1-2.1-2.7" class="s50"/><path d="m1432.6 63-1.1-.8q-.8 1.6-.5 3.2l1.3-.3q0-1.3.3-2.1m-15 .3q1 1.5 2.7 1.8.4 1 .3 2.2l1.3.2c.3-1.8-.3-3.4-1.3-3.7-.8 0-1.6-1.3-2.2-1.9q0-.2-.5-.2l-.5 1q-.3-.1.2.6" class="s44"/><path d="m1417.1 62.7.5-1q-4.6-.8-8.8 1.6l1.1.8c2.1-1.1 4.8-1.6 7.2-1.4" class="s49"/><path d="M1420.6 67.3q0 1.1-.6 1.8-.7 1-1.8 1.1c-.3 0-1.1-1.3-1.9-1.9a7 7 0 0 0-3.2-1v1.3q1.2 0 2.4.8c.8.5 1.3 1.9 2.1 1.9q1.7-.1 3-1.4.8-1.1.8-2.6z" class="s46"/><path d="m1410.9 68.3.6 1.4q.8-.8 2.1-.8v-1.4q-1.9 0-2.7.8" class="s48"/><path d="m1409.6 68.9-.8 1h.8q.8 0 1.6-.8l-.5-1c-.6.8-.8.8-1.1.8" class="s46"/><path d="M1407.2 66.2c0 1.6.5 3.5 1.9 4l.2-1.1c-.8-.2-1-2.1-.8-2.6z" class="s50"/><path d="m1409.9 64.1-.8-.8q-1.6 1.2-1.6 3.2h1.3c-.3-1.1.3-2.2 1.1-2.4" class="s44"/><path d="M1433.1 77.4a4.4 4.4 0 0 0 5.1 0q.9 0 1.3.3l.6-1.1q-1.3-.7-2.7-.3c-1.1.8-2.7.8-3.7 0a4 4 0 0 0-5.9 1.4l1 .5c1.1-1.1 3-1.6 4.3-.8" class="s49"/><path d="M1440.6 78.7v.8l1.3.3.3-1.1q-.1-1.3-1.9-2.1l-.5 1.1c.3.2.5.8.8 1" class="s44"/><path d="M1435.8 83.8c1.1-.3 1.9 0 2.9-.3 1.9-.2 3-1.8 3.2-3.7l-1.3-.3c-.5 2.2-1.6 2.4-2.1 2.7l-3 .3c-1.6.5-3.2 1.8-4.2 1.8-.6 0-.8-.2-1.4-.8l-.8.8q.9 1 2.2 1.1c1 .3 2.9-1.1 4.5-1.6" class="s46"/><path d="M1428 80.9h-1.3a5 5 0 0 0 2.4 3.7l.8-1.1q-1.5-1-1.9-2.6" class="s50"/><path d="m1429.1 78.2-1.1-.5q-1.1 1.5-1 3.2h1.3q-.4-1.3.8-2.7m42.5-1.6q2.4 2.4 3.2 5.6v1.1l1.3.2v-1.3q-.9-3.7-3.4-6.1l-1.1-.8-.5 1c0-.2.5 0 .5.3" class="s44"/><path d="M1475.1 83q0 1.8-.6 3.5l.6 1.3c.8-.2 1.3-2.9 1.3-4.8z" class="s50"/><path d="m1474.3 86.5-2.2-3.2c-1-1.9-2.1-4-3.7-4v1.3c1.1.3 2.4 2.7 3.2 4.3 1.9 3.2 2.9 3.2 3.2 3.2z" class="s51"/><path d="M1467.6 79.3c-2.1 0-3.2 1.6-3.7 1.6h-.6l-.2 1h.8c1.3 0 1.6-1.6 3.4-1.6h.6V79q.2.4-.3.3" class="s47"/><path d="m1463.3 82.2.3-1.1q-.5 0-.5-.8-.1-2.1 1-4.2l-1-.6q-1.3 2.5-1.4 5.4c.6.5.8 1 1.6 1.3" class="s44"/><path d="m1463.6 93.4-1.9.8.8 1.1q.6-.5 1.1-.5 2-.1 4 .5l.3-1.3q-1.8-.5-4.3-.6" class="s49"/><path d="M1470.8 101.4c0-2.4.5-3.7-.5-5.8q-1-1.3-2.2-1.4l-.2 1.1q.8 0 1.3.8c1.1 1.3.3 3.7.3 5.6q.1 1.6 1 3.2l.3 1.1 1.3.2a4 4 0 0 0-.5-1.8 7 7 0 0 1-.8-3" class="s44"/><path d="m1468.4 106-.5 1q1.6.8 3.2.8c1 0 1-.8 1-1.8l-1.3-.3v.8q-1.2-.1-2.4-.5" class="s46"/><path d="M1466.8 102.8a6 6 0 0 0-2.9-3.2l-.8 1q1.7 1.2 2.6 3.2c.6 1.4 1.1 3.2 1.9 3.5l.5-1.1q-.4-2-1.3-3.4" class="s47"/><path d="m1462.3 97.7-1.1.8q.7 1.1 1.9 1.9l.8-1.1c-.6-.3-1.1-1.1-1.6-1.6" class="s50"/><path d="M1461.7 96.9q0-.4.8-1.6l-.8-.8c-.8.5-1.3 1.9-1.3 2.9q.3.8.8 1.1l.8-.8q0-.4-.3-.8" class="s52"/><path d="M1483.1 100.6c.5 0 1.3.3 1.6.8l.8-.8q-1.3-1.3-2.9-1-1 .4-1.4 2.1l1.1.5z" class="s49"/><path d="m1486.8 106.8 1.4.2q0-3.6-2.4-6.4l-.8.8q1.6 2.1 1.8 5.4" class="s44"/><path d="M1486.3 108.9q-1.3.6-2.9.5l-.8 1.1q2.1.7 4.2-.5 1.1-1.3 1.1-3l-1.3-.2q.4 1.3-.3 2.1" class="s46"/><path d="m1482.8 110.2.6-1c-.6-.6-1.4-2.2-1.1-5.9q0-.5.3-1.1l-1.1-.5q-.4.8-.3 1.6c-.2 2.7 0 5.9 1.6 6.9" class="s52"/><path d="M1442.7 91.6q-2.8 0-5.3 1.3c-.8.8-1.3 1.6-2.4 2.4l-1.3.8.8 1.1c.2-.3 1-.8 1.3-.8q1.6-1.1 2.7-2.7 1.9-.8 4.2-.8 3 0 5.4 1.3l.5-1a11 11 0 0 0-5.9-1.6" class="s49"/><path d="M1452.4 95.8c0-.8-1.9-1.8-4-2.9l-.6 1.1q1.7.7 3 1.8 0 .3-.3.6l1.1.5q1-.3.8-1.1" class="s44"/><path d="m1452.1 96.9-1.1-.5q0 .3-.5.8l.5 1q.8-.4 1.1-1.3m-3.2 1.1q-4.5-.9-8.6.8l-.5.2.5 1.1.8-.5a13 13 0 0 1 7.8-.6h1.1l-.3-1.3q-.4.4-.8.3" class="s46"/><path d="M1434.7 102q-.8.8-2.1 1.3-.3 0-.5-.3l-.6 1.1q.5.4 1.1.3c1.1 0 2.1-.8 2.9-1.6q2.2-1.6 4.6-2.7l-.6-1.1a21 21 0 0 0-4.8 3" class="s48"/><path d="M1430.2 100.9q-.3 2.1 1.3 3.5l.6-1.1q-.9-.8-.6-2.1z" class="s50"/><path d="m1434.7 97.2-.5-1.1c-3.2 1.9-3.5 3.5-3.7 4.8l1.3.3c-.3-1.1-.3-2.4 2.9-4" class="s44"/><path d="M1415.5 92.9q.8-1.2 2.1-.8l.6-1.1c-1.4-.5-3 0-3.8 1.1-.3.5-1.1 1.1-1.3 1.9l1 .8c.3-.8 1.4-1.9 1.4-1.9" class="s49"/><path d="m1418.2 91-.6 1.1q1 .4 1.1 1.6l1.1-.5q-.2-1.7-1.6-2.2" class="s44"/><path d="m1420 95.6-1.3-.3-.3 1.3.6 1.1c.5-.3.8-1.3 1-2.1" class="s46"/><path d="M1418.4 96.6h-.8l-.2 1.4c.2-.3.8-.3 1-.3h.6z" class="s50"/><path d="m1417.6 98 .3-1.4q-.6 0-1.1.6l.6 1.3q-.3-.3.2-.5" class="s45"/><path d="m1413.3 102.8-.5 1q.5.5 1.3.6l-.2-1.4z" class="s46"/><path d="m1412.5 103.8.6-1q-.8-.8-.8-1.6l-1.4.2c.6.8.8 1.9 1.6 2.4" class="s50"/><path d="m1413.9 95 .2-.5-1-.8-.6.8q-1.6 3.3-1.3 6.7l1.3-.3q-.1-3 1.4-5.9" class="s44"/><path d="M1394.1 72.6c-2.4 0-5.3 3.5-7.5 4.3l-4.2.8q-2.6.4-3.8 2.9l1.1.8a4 4 0 0 1 2.9-2.1l4.6-.8c1.6-.8 5-4 6.6-4.3l.6-1.1q0-.9-.3-.5" class="s49"/><path d="m1394.6 72.6-.5 1.1q.8 1.6.8 3.2h1.3c-.5-1.9-.8-3.8-1.6-4.3" class="s44"/><path d="m1395.4 79.8-1-.8q-2.7 1.3-5.4 2.1l.8 1.1q2.8-.8 5.6-2.4" class="s48"/><path d="m1384.2 83.3.8 1a24 24 0 0 1 4.6-2.1l-.8-1.1q-2.5 1-4.6 2.2" class="s46"/><path d="M1380.5 92.1c-.3-.5-.8-2.7-.8-2.7a18 18 0 0 1-1.1-5.6l-1.3-.3q0 3.5 1.3 7 .5 1 .5 2.1.5 1.5 1.4 3l.8-.8q-.6-1.6-.8-2.7" class="s50"/><path d="M1378.6 83.3q.3-1.2 1.1-2.4l-1.1-.8q-.9 1.2-1.3 2.9v.3l1.3.2z" class="s44"/><path d="M1404.5 111.3h.6l.5-1.1h-1.1q-3.2.9-6.1 3l.8 1q2-2 5.3-2.9" class="s49"/><path d="m1406.1 112.4-.2 2.1 1 .5c.3-1 .6-2.1 0-3.2q-.7-.8-1.8-1.3l-.6 1.1q1.5 0 1.6.8" class="s44"/><path d="m1407.2 114.8-1.1-.3a5 5 0 0 1-4 4l.6 1.1c2.1-.6 4-2.4 4.5-4.8" class="s53"/><path d="M1401.9 118.5q-1.9.5-3.8.5-1.2 0-1.3-.2l-.8 1q.8.9 2.1.6 2.4 0 4.3-.8z" class="s46"/><path d="m1396 119.8.8-1q-.3-1.2.2-2.2l-1.3-.2c-.3.5-.5 2.6.3 3.4" class="s50"/><path d="m1398.9 114-.8-1.1q-1.6 1.2-2.7 3.2l1.4.3z" class="s44"/><path d="m1374.9 108.9.8.8a12 12 0 0 1 10.7-2.9l.2-1.4c-4-.5-8.5.6-11.7 3.5" class="s49"/><path d="m1388.5 106.2-1.6-.2-.3 1.3 1.6.3q1 .5 1.4 1.6l1-.3q-.4-2.1-2.1-2.7" class="s44"/><path d="M1389.6 109.2q.3 1 .2 2.1l1.4.3q0-1.5-.3-3z" class="s50"/><path d="m1390.9 111.6-1.3-.3q0 .9-.6 1.3l.6 1.1q1.4-.8 1.3-2.1" class="s53"/><path d="M1389.3 112.4q0 .4 0 0c-1.3 0-5.1-1.6-6.4-1.9v1.3q3.2 1.2 6.4 1.9.5 0 .5-.3z" class="s46"/><path d="m1379.9 111.3.6 1.1q1.2-.8 2.4-.3v-1.3q-1.7-.4-3 .5" class="s53"/><path d="M1379.9 111.3c-1 .5-1.8 1.6-2.6 2.4-1.4 1.3-1.9 1.9-2.4 1.9v1.3c1.3 0 2.6-1.6 3.2-2.1q.8-1.2 2.4-2.4z" class="s50"/><path d="m1374.1 115.3-.8 1.1q.4.4 1.3.5v-1.3q-.1-.4-.5-.3" class="s46"/><path d="m1373.5 116.1.8-1.1q-.4-.3-.5-.8l-1.1.6q-.1.8.8 1.3" class="s47"/><path d="M1372.2 113.7q0 .5.3 1.1l1-.6v-.5q.4-2.4 2.4-4l-.8-.8a8 8 0 0 0-2.9 4.8" class="s44"/><path d="M1363.9 110.2h.5l.6-1-.8-.3q-3.2.5-5.6 2.9l1 .8a5 5 0 0 1 4.3-2.4" class="s49"/><path d="m1364.7 108.9-.5 1.1c.5.2.2 1 .2 1.6l1.4-.3c.5-.8 0-1.9-1.1-2.4" class="s44"/><path d="M1364.7 111.8q-.3 1.2-1.1 2.4l1.1.6q1-1.7 1.1-3.2z" class="s50"/><path d="M1362 116.6q-.4.5-1.3.8l-1.1-.5-.8.8q.9.6 1.6.8c.8 0 1.9-.3 2.4-1.1q1.2-1.2 2.2-2.6l-1.1-.6q-1.1 1.2-1.9 2.4" class="s46"/><path d="m1358.6 115-1.4.3q.5 1.3 1.4 2.1l.8-1q-.6-.1-.8-1.4" class="s50"/><path d="M1358.6 114.8q-.1-1.2 1-2.2l-1-.8q-1 1.3-1.4 3v.5l1.4-.3zm-16.6 5.6-.5 1q1.2.6 1.3 1.4l1.1-.5q-.1-1.5-1.9-1.9" class="s44"/><path d="M1342.8 122.8v1.6l1.3.3q.4-1.2 0-2.4z" class="s50"/><path d="m1342.8 125.5-1.6.5a3 3 0 0 0-2.1 1.1c-.6.5-1.9 1.6-2.4 1l-.8.8q1.6 1.2 3.7-.5c.8-.5 1.1-1.1 2.1-1.3.8 0 2.4-.3 2.7-1.4l.3-1-1.4-.3q-.6.3-.5 1.1" class="s46"/><path d="m1335.6 128.9.8-1q-.5-.9-.5-1.6h-1.4q0 1.3 1.1 2.6" class="s50"/><path d="m1338 122.8-.8-1.1-.8.8a4 4 0 0 0-1.6 3.5h1.3q.1-1.6 1.4-2.7z" class="s44"/><path d="m1340.7 137.2.2-1.3c-2.6-.3-7.2.2-9.3 3.4l1 .6q3.7-3.4 8.1-2.7" class="s49"/><path d="M1343.9 137.5q.3.9 0 1.8l1 .6c.8-1.6.3-3.5-.5-3.8q-1.6-.4-3.2-.5l-.3 1.3z" class="s44"/><path d="M1343.9 139.3c-.3.6-.8 1.1-2.4 1.1q-2.1 0-3.8 1.1l.8.8a5 5 0 0 1 3-.8q2 .2 3.4-1.9z" class="s46"/><path d="m1336.7 143.6-.8 1.1.8 1q1-.7 1.3-1.8.2-1 .8-1.4l-.8-.8a3 3 0 0 0-1.3 1.9" class="s50"/><path d="M1335.9 144.7q-.8.3-1.9.2v1.4q1.3.2 2.7-.6z" class="s45"/><path d="m1333.7 144.9-.5-.5-.8 1.1.5.5q.6.4 1.1.3v-1.4z" class="s46"/><path d="m1332.6 143.9-.2-1.6h-1.4q0 1.3.6 2.1l.8.8.8-1.1q-.5 0-.6-.2" class="s50"/><path d="m1332.9 140.1-1.1-.8a6 6 0 0 0-1 3h1.3q0-1.2.8-2.2" class="s44"/><path d="m1350.8 147.9.3-1.4c-4 0-7.5 2.2-9.4 5.9l1.1.8a9 9 0 0 1 8-5.3" class="s49"/><path d="M1353 147.9q-.3-1-1.9-1.4l-.5 1.4c.2 0 .8 0 1 .2 0 .6.3.8 0 1.4h1.4q.4-.8 0-1.6" class="s44"/><path d="M1351.9 149.5q-.3 1.3-1.1 2.6l1.1.6q.9-1.7 1.3-3.2z" class="s50"/><path d="m1350.8 152.1-1.6 2.2.5 1a9 9 0 0 0 2.2-2.6z" class="s45"/><path d="M1349.2 154c-1.1.5-2.1 0-4 .8-1.1.5-1.9 2.2-2.1 2.4q-.9.5-1.6.6v1.3q1.2 0 2.4-.8c.8-.5 1.3-1.9 2.1-2.4 1.6-.8 2.7-.3 4-1.1z" class="s48"/><path d="m1340.9 158-.8 1.1q.5.4 1.1.3V158z" class="s46"/><path d="m1343.1 152.9-1.1-.8-1.6 2.7 1.1.5c.2-.2 1-1.8 1.6-2.4" class="s44"/><path d="m1339.9 158.8 1-.8q0-1.2.8-2.4l-1.3-.5c-.5.5-1.3 2.9-.5 3.7" class="s50"/><path d="M1332.9 169.5c.8-.3 1.1 0 2.2.8l.8-1.1c-1.4-.8-1.9-1-2.7-1q-2 .3-3.2 1.8l.8 1.1q.8-1.2 2.1-1.6" class="s49"/><path d="m1335.9 169-.8 1c.5.6 1 .8 1.6 1.6v.3l1-.5c-.5-1.1-1-1.6-1.8-2.4" class="s44"/><path d="m1337.7 171.4-1 .5v1.3l1 .8q.5-1.5 0-2.6" class="s50"/><path d="M1336.4 173q-.6.8-1.1.8-1.6.6-3.2 2.1-.9.5-1.9.5v1.4q1.6 0 2.7-.8 1.3-1.2 2.7-1.9 1.1-.3 1.9-1.3z" class="s48"/><path d="m1329.2 175.9-.6 1.1c.6.5 1.1.5 1.6.8v-1.4c-.2 0-.8-.2-1-.5" class="s46"/><path d="m1327.8 176.4.8.6.6-1.1-.6-.3-.5-1.3-1.3.3z" class="s50"/><path d="M1328.4 172.7q.8-1.1 2.1-1.9l-.8-1q-1.2.8-2.4 2.4-.4 1.2-.3 2.4l1.4-.3q-.4-.8 0-1.6" class="s44"/><path d="M1369.8 150.3a4 4 0 0 1 2.9-1.1h1.1l.5.5 1.1-.8-.8-.8q-.7-.4-1.9-.5c-1.3 0-2.9.5-3.7 1.6-.8.8-1.3 1.3-2.4 1.9l.8.8c1.1 0 1.9-.8 2.4-1.6" class="s49"/><path d="M1374.3 150a5 5 0 0 1 1.6 2.7v.5l1.1.5c.8-1.6-.8-3.4-1.9-4.5z" class="s44"/><path d="m1377 153.5-1.1-.6-.2.3-.8.3.5 1q.7 0 1.3-.5z" class="s48"/><path d="m1369.8 155.1.5 1a11 11 0 0 1 5.1-1.3l-.5-1.1q-3 .1-5.1 1.4" class="s45"/><path d="m1370.3 156.1-.5-1c-1.6 1-2.9 2.7-4.3 3.5 0 0-2.9 2.1-3.7 1.8l.2 1.4q2.4-.7 4.3-2.2c1.4-1.3 2.4-2.6 4-3.5" class="s48"/><path d="m1360.7 160.2-.5 1q.7.5 1.8.6l-.2-1.4z" class="s46"/><path d="m1360.2 161.2.5-1c-.8-.6-1.6-2.2 0-5.1l-1.1-.8c-2.1 3.5-.5 6.1.6 6.9" class="s50"/><path d="M1361.8 154.3q3.2-.1 5.6-1.9l-.8-1.1a9 9 0 0 1-5.1 1.6q-1.3.5-1.9 1.4l1.1.8q.3-.8 1.1-.8" class="s44"/><path d="m1347.6 179.6.3-1.3a10 10 0 0 0-6.7 1.6l.8 1.1q2.8-1.5 5.6-1.4" class="s49"/><path d="m1347.9 178.6-.3 1c.8 0 1.3.8 1.3 1.4l1.4-.3a3 3 0 0 0-2.4-2.1" class="s44"/><path d="M1348.9 181.2q0 1-.2 1.4l1 .8q.7-1.2.6-2.4z" class="s50"/><path d="m1341.5 184.2-.8 1c1.3.8 6.6 1.6 8.8-1.8l-1.1-.6c-1.3 2.4-6.1 1.9-6.9 1.4" class="s46"/><path d="M1339.9 182.8c-.3.8.2 1.9 1 2.2l.6-.8-.3-.3q-.4-.4 0-.8z" class="s50"/><path d="M1341.2 182.6c.3-.6.5-1.4 1.1-1.6l-.8-1.1q-1.2.8-1.6 2.1 0 .5-.3.8h1.3z" class="s44"/><path d="M1308.1 181.8q2.8-1.2 6.1-2.2h.8l.5-1q-.7-.4-1.3-.3-3.7.8-6.9 2.4l-.8 1.3 1 .6s.3-.6.6-.8" class="s49"/><path d="m1315.3 178.6-.6 1c.3.3.6.6.8 1.9q0 .9-.5 1.3l1.1.6q.8-1 .8-2.2-.4-2.3-1.6-2.6" class="s44"/><path d="m1316.3 183.6-1-.5q-.8 1.1-1.9 1.9l.5 1c1.1-.5 1.6-1.3 2.4-2.4" class="s46"/><path d="M1309.9 186.8v1.4a19 19 0 0 0 4-2.2l-.8-1q-1.1 1.1-3.2 1.8" class="s45"/><path d="M1309.9 186.8c-.2.3-.8.3-1 .3v1.3q.7 0 1.3-.2z" class="s48"/><path d="m1308.1 186.8-.8 1.1q.7.5 1.6.5v-1.3z" class="s46"/><path d="M1306.5 185q0 1.4.8 2.4l.2.2.8-1q-.4-1-.5-1.9z" class="s50"/><path d="m1307.5 182.8-1-.5q-.4 1.4 0 2.7l1.3-.3q-.4-.9-.3-1.9" class="s44"/><path d="m1335.9 192.7.5-1-2.2-1.7q-.3-.2-.8-.2-2 .1-3.2 1.9l1.1.8q.8-1.3 2.1-1.4z" class="s49"/><path d="M1339.9 193.3c-.3-.3-3.2-1.6-3.2-1.6l-.6 1 3.5 1.9 1.3.3c-.2-.6-.5-1.4-1-1.6" class="s44"/><path d="M1339.6 194.9q.1.7-.5 1.3l1 .8q.8-.9.8-1.9z" class="s50"/><path d="M1339.1 195.9c-.8 1.1-3.8.8-4 .8v1.4c.2 0 4 .5 5-1.4z" class="s45"/><path d="m1332.4 196.2-.6 1.1a8 8 0 0 0 3 .8v-1.4z" class="s48"/><path d="m1331 196.5 1.1.8.5-1.1-.5-.3z" class="s46"/><path d="m1331.3 195.1-1.1.6.8.8.8-.8q-.4 0-.5-.6" class="s48"/><path d="M1331 194.1h-1.3q-.1.9.5 1.8l1.1-.8q-.4-.7-.3-1" class="s50"/><path d="m1331.6 192.5-1.1-.8q-.6 1.2-.5 2.4h1.3q-.3-1.3.3-1.6" class="s44"/><path d="M1360.7 187.6c-.5-.2-1.3-.8-1.9-.8-1 0-2.1.8-2.4 1.9l1.1.5q.3-.8 1.3-1.3l1.4.8a4 4 0 0 0 1.8.5l.3-1.3q-.8.3-1.6-.3" class="s49"/><path d="M1363.6 187.9c-.2 0-1 0-1.3.3l-.3 1.3 1.6-.3c.8 0 1.4.3 1.6 1.9v1.1l1.1.5q.5-.8 0-2.1c0-1.4-.8-2.7-2.7-2.7" class="s44"/><path d="m1366.6 192.7-1.1-.5v.5l.8 1.1z" class="s50"/><path d="m1365.2 192.7-1.8-.2q-2 0-4 .8l.2 1.3q1.9-.8 3.8-.8c.8 0 1.6.5 2.4 0z" class="s48"/><path d="m1358.3 193.3-.8 1q1.2.8 2.4.3l-.3-1.3q-.8.3-1.3 0" class="s46"/><path d="m1357.5 192.5-1.1.5q.4.7 1.1 1.1l.5-1.1z" class="s48"/><path d="m1357.2 191.7-1 .5q0 .6.5 1.3l1.1-.8z" class="s50"/><path d="m1357.5 189.2-1.1-.8q-.8 1.8-.5 3.5l1.1-.5q0-.9.5-2.2" class="s44"/><path d="M1356.7 128.4q2-1.2 4.5-1.6l2.4.3.6-1.1a9 9 0 0 0-3-.5q-2.4.4-4.8 1.6-1.1.4-1.8 1.3l1 .8q.5-.8 1.1-.8" class="s49"/><path d="m1363.9 125.7-.3 1.4q1.2.1 2.4.8l1.1-.8c-.2-.6-2.1-1.1-3.2-1.4" class="s44"/><path d="m1366.9 126.8-.9.8c.3.5 0 .8 0 1.3l1.1.6q.5-1.4-.2-2.7" class="s50"/><path d="M1366 129.2q-.3 1-1 1.1c-.8.2-5.1 3.2-5.9 3.7l.5 1.1c.8-.3 5.4-3.5 5.9-3.8a3 3 0 0 0 1.9-1.8z" class="s48"/><path d="m1358 134.3.3 1.3 1.1-.3-.6-1c-.2-.3-.5 0-.8 0" class="s46"/><path d="m1355.6 134.3-.2 1.3q1.4.5 2.9 0l-.3-1.3q-1.2.4-2.4 0" class="s48"/><path d="m1355.1 134-.8 1.1q.5.4 1.3.5v-1.3z" class="s46"/><path d="m1354.3 132.7-1.3.2q.2 1.3 1.3 2.2l.8-1.1q-.8-.7-.8-1.3" class="s50"/><path d="M1354.3 132.1q.5-1.6 1.3-2.9l-1-.8a9 9 0 0 0-1.6 3.5v1l1.3-.2z" class="s44"/><path d="M1464.4 115.8c-2.4.3-3.8-1.3-5.6-1.3q-1.3.3-2.7 1.1l.8 1 2.1-.8c1.1 0 3.3 1.6 5.7 1.4q1.5 0 2.6.8l.6-1.1a7 7 0 0 0-3.5-1.1" class="s49"/><path d="M1471.1 119.3a6 6 0 0 0-3.5-2.7l-.5 1.1q2.1.9 2.6 1.9.3.7-.2 1.6l1 .5c.8-.5.8-1.6.6-2.4" class="s44"/><path d="M1469.7 121.4q-.3 1-1 1.4-1.2 0-1.9-.3a20 20 0 0 0-7.5-2.4v1.3q3.7.4 6.7 2.5 1.7.7 2.9.2 1.3-.8 1.6-2.1z" class="s46"/><path d="M1459.3 119.8c-1.1 0-2.7 1.1-3.5 1.1v1.4c1.1 0 2.7-1.1 3.5-1.1z" class="s54"/><path d="M1456.1 120.9q-.6-.1-1.1-.5l-.8 1a3 3 0 0 0 1.9.9z" class="s46"/><path d="m1454.2 121.4.8-1c-.5-.3-1.3-.8-1-1.4l-1.4.3c0 1.1 1.1 1.9 1.6 2.1" class="s50"/><path d="M1454.5 117.7q.8-.5 2.4-1.1l-.8-1-2.4 1q-1.2.9-1.3 3l1.3-.3q0-1 .8-1.6" class="s44"/><path d="M1481.2 122.5a11 11 0 0 0-2.9 2.4q-2.5 2.1-3.8 4.8-.7 2-1 4h1.3q.3-2.1 1.1-4.2l3.2-4q.8-1.2 2.4-1.9 1.7.2 2.9.8l.8-1.1c-1-.2-2.4-.8-4-.8" class="s49"/><path d="m1487.4 124.9-2.2-1.3-.8 1.1q1.1.4 2.2 1.3.1 0 0 .8l1 .5q.7-1.3-.2-2.4" class="s44"/><path d="M1486.6 126.8q-.4 1.1-1.6 1.9l.2 1.3a4 4 0 0 0 2.4-2.7z" class="s46"/><path d="m1484.4 130.3 1.1-.3-.3-1.3-1 .2-1.4.3.6 1.1q.3.2 1 0" class="s54"/><path d="M1481 130.8a27 27 0 0 1-3.8 4.5q-.8.4-1.6 0l-.8 1.1q1.3.5 2.9 0a20 20 0 0 0 4.3-4.8q.5-.7 1.4-1.1l-.6-1q-1.1.4-1.8 1.3" class="s46"/><path d="m1475.1 136.7.5-1.1c-.5-.3-1.1-1.1-.8-1.6h-1.3c0 .8.5 2.1 1.6 2.7" class="s50"/><path d="M1498.3 120.6c-.2-1.3.6-2.6 1.9-2.9h.3q2.5 0 4.5.8c1.3.8 2.9 1.9 4 2.9q.8.4 1.6 1.1l.8-1.1q-.9-.3-1.9-1-1.9-1.7-4.2-3-2.5-.8-5.4-.8c-3.4.6-3.7 4.8-2.6 5.7z" class="s49"/><path d="m1513.6 126.8.8 2.9 1.3.3q-.2-2-.8-4a8 8 0 0 0-1.9-4q-.4-.5-1.3-.8l-.8 1.1 1.1.8q1.2 1.6 1.6 3.7" class="s44"/><path d="M1514.1 129.7q0 .9-.3 1.6l.6 1.1q1.1-.9 1-2.7z" class="s52"/><path d="m1512 131.1-.3 1.3c.5.3 2.4.5 2.9 0l-.8-1.1z" class="s45"/><path d="m1509 129.5-.8.8q1.6 1.5 3.5 1.8l.3-1.3q-1.7.3-3-1.3" class="s46"/><path d="M1508.7 129.2q-1.2-2.2-2.9-4.5-.7-1.2-1.9-2.4l-.8 1q1.3 1.1 1.9 2.7l2.4 3.7.5.8.8-.8c.3-.2 0-.2 0-.5" class="s45"/><path d="m1498.3 120.6-.8 1.1.3.3q2.9 0 5.3 1.6l.8-1.1a9 9 0 0 0-5.6-1.9" class="s46"/><path d="M1500.5 135.3v-1.6c0-.8-.8-1.3-1.4-1.3q-3.5.1-6.7 1.1-1.5.4-2.6 1.6l1 .8q1-.8 2.2-1.1 3.2-.7 6.4-1.1s.3.3 0 .8q-.3 2 1.1 3.5l1-.8c-.5-.3-1-.5-1-1.9" class="s49"/><path d="m1501 136.9-1.1.8 2.7 2.2.8-1.1z" class="s44"/><path d="m1503.4 139.1-.8 1 .8.8q0 .5-.3.8l1.1.6q.7-1.2.3-2.2-.4-.7-1.1-1" class="s52"/><path d="m1504.5 142-1.1-.5q-.4 1.2-1.6 1.6l.3 1.3q1.6-.8 2.4-2.4" class="s45"/><path d="M1501.5 143.1q-2.4-.3-4.8-1.4l-.2 1.4q2.4 1.3 5.3 1.3z" class="s46"/><path d="m1497 142-1.1-1.1-1.3-1.3-.6 1.1c.9.5 1.4 1.6 2.5 2.4l.5.2z" class="s45"/><path d="m1492.7 139.1-2.9.2c-.6 0-.8-.2-1.4-.8l-1 .6q.8 1.3 2.1 1.3 1.6 0 3.2-.3.4 0 .8.3l.5-1.1q-.4-.2-1.3-.2" class="s46"/><path d="M1488.4 138.5v-.5q.8-1.2 1.9-2.4l-1.1-.8q-1.1 1.2-1.8 2.4-.9.9 0 1.9z" class="s44"/><path d="M1515.7 146.3c.5-.6 1.1-2.2 1.9-2.2s1.3 1.1 2.4 3.5l1.3-.5c-.5-1.1-1.6-4.3-3.5-4.3-1.3 0-2.1 1.6-2.6 2.7-.3.5-1.9 1.3-2.2 2.6l1.4.3c-.3-.8 1-1.9 1.3-2.1" class="s49"/><path d="m1521 147.1-1 .5c.2.8.8 1.6.8 1.9l1.3-.3q-.3-1.3-1.1-2.1" class="s44"/><path d="m1522.1 148.9-1.1.3v1.1l1.1.5z" class="s50"/><path d="m1521.8 150.8-1-.5-.3.8 1.1.8zm-2.9 1.1q-2.5-.1-4.5-1.4l-.8 1.1q2.4 1.2 5.3 1.6.9 0 1.3-.3l-.5-1z" class="s46"/><path d="m1513.8 150.3-1 .5q.3.6 1 .8l.8-1.1z" class="s50"/><path d="m1513.8 148.4-1-.5q-.5 1.2 0 2.9l1-.5a3 3 0 0 1 0-1.9" class="s44"/><path d="M1531.2 157.5c-1.9 0-4.8.3-5.6 0s-1.9.3-2.4.8l.8.8q.4-.5 1.3-.3h5.9q2.5 0 4.5.8l.3-1a9 9 0 0 0-4.8-1.1" class="s49"/><path d="m1536.5 158.3-.5 1.1q1.2.3 1.3 1v1.9l1.4.3.2-2.4c-.2-.8-1.3-1.6-2.4-1.9" class="s44"/><path d="M1537.3 162.6q0 1.2-.5 2.6l.8 1.1q.8-1.6.8-3.2z" class="s50"/><path d="m1537.6 165.8-.8-.8q-1.2.8-2.4.8v1.3q2 0 3.2-1.3" class="s46"/><path d="M1533.6 165.5q-.8-.7-1.6-1.1l-.5 1.1q.8.3 1.3 1.1.7.6 1.9.5l-.3-1.3q-.4 0-.8-.3" class="s48"/><path d="M1527.7 163.6h-1.6q-.7 0-1.3-.2l-.8 1q.8.5 2.1.6h1.6c1.4 0 2.4 0 3.8.5l.5-1.1q-2-.8-4.3-.8" class="s46"/><path d="m1524 162.6-1.1.5 1.1 1.1.8-1.1q-.5-.1-.8-.5" class="s50"/><path d="m1524.2 159.4-1-.8a3.6 3.6 0 0 0-.3 4.8l1.1-.8q-1.1-1.8.2-3.2" class="s44"/><path d="M1517.8 170a4 4 0 0 0-2.9 2.4v1.9h1.3l-.2-1.6q.4-.9 1.6-1.3.8.4 1.6 1.6l1-.8q-1.3-2.1-2.4-2.2" class="s49"/><path d="m1520.2 171.9-1 .8q.7.8 1 1.6l1.4-.3q-.3-1-1.4-2.1" class="s44"/><path d="m1521.6 174-1.1.3v.8l1.3.3z" class="s50"/><path d="M1520.2 175.9q-1.3.4-2.6.3l-.6 1q2 .3 4-.2c.6-.3.8-1.1.8-1.6l-1.3-.3q-.1.8-.3.8" class="s46"/><path d="m1516.8 176.2-.8 1q.3.4.8.3l.5-1.3z" class="s50"/><path d="m1516.8 176.2-.6-1.9h-1.3c.3 1.3.5 2.7 1.1 2.9z" class="s44"/><path d="m1542.4 187.9.6 1.1c1.3-.6 3.4-.8 4.2-.3l.8-.8c-1.3-1.3-4.2-.5-5.6 0" class="s49"/><path d="m1548 187.9-.8.8c.8.5 1.1 1.6 1.4 2.4l1.3.3a8 8 0 0 0-1.9-3.5" class="s44"/><path d="M1549.6 192.5v-1.1l-1.3-.3v.8l1.1.8q.2.3.2-.2" class="s46"/><path d="M1548.6 192.2q-.7.5-1.4.5l.3 1.4q1.3-.4 2.1-1.1z" class="s48"/><path d="M1543.8 193.3q-.3 0-.6-.3l-.8 1.1q.4.3 1.1.2 2 0 3.7-.5l-.2-1.3q-1.6.8-3.2.8" class="s46"/><path d="M1540.5 190.6q0 .8.3 1.6l1.4-.3c0-.2-.3-.8 0-1.3z" class="s50"/><path d="m1543 189.2-.6-1q-1.8.4-1.9 2.7h1.4c0-.6 0-1.4 1.1-1.7" class="s44"/><path d="M1525 185.8c-1.3 0-2.4 1.3-3.2 2.1a3 3 0 0 1-1.6.5c-1 0-3.7-1.3-4.8-1q-1.3.1-2.1 1l1.1.8q.8-.6 1.3-.5c1.3 0 2.7 1.1 4.5 1.1 2.7.2 4-2.7 5.1-3q.8 0 1.6.6l.6-1.1q-1.2-.5-2.5-.5" class="s49"/><path d="M1529.1 188.7q-.4-1.7-1.6-2.1l-.6 1 .8.6q.3.3.3.5v1.1h1.3q-.3-.6-.2-1.1" class="s44"/><path d="M1528.8 191.1q.4-.7.3-1.3h-1.4v.8h-.2l.8 1.1q.4-.3.5-.6" class="s48"/><path d="M1527.7 190.6c-.8.5-1.6.5-2.1 1.1l-2.2 2.4.8 1 2.2-2.4c.8-.2 1.6-.8 2.4-1z" class="s50"/><path d="m1513.8 193-.8 1.1q4.6 2.3 9.4 1.8l-.3-1.3q-4.5.8-8.3-1.6" class="s46"/><path d="M1523.2 194.1q-.4.4-1.1.5l.3 1.3q.8 0 1.6-.8z" class="s48"/><path d="m1512.8 192.2-1.1.5q.6 1 1.6 1.4l.8-1.1q-1.1 0-1.3-.8" class="s50"/><path d="m1514.4 189.2-1.1-.8c-1.3 1.1-2.4 3.5-1.9 4.6l1.1-.5q.3-2.2 1.9-3.3" class="s44"/><path d="M1496.2 166.6a8 8 0 0 0-6.2 2.6l1.1.6a7 7 0 0 1 5.1-1.9q1.8 0 3.7.8l.6-1.1a8 8 0 0 0-4.3-1" class="s49"/><path d="M1501.8 168.2q-.7-.5-1.3-.6l-.6 1.1 1.1.5q1.5 1 2.1 3l1.4-.3a6 6 0 0 0-2.7-3.7" class="s44"/><path d="M1503.4 172.2c0 .5.3 1 0 1.3l1.3.3v-2.2z" class="s50"/><path d="m1504.7 173.8-1.3-.3v.3l-.5.8h-.3l.5 1q1.5-.4 1.6-1.8" class="s48"/><path d="M1502.9 174.6h-.3q-1.3 0-2.1-.6l-1.9-1-.5 1q.7.6 1.8 1.1 1.3.5 2.7.5.6 0 1.1-.2z" class="s46"/><path d="M1497.3 172.4h-.3l-.5 1.1h.2l1.4.5.5-1z" class="s54"/><path d="M1493.5 171.9q-.9 0-1.9-.3l-.5 1.1c.8.3 1.9.3 2.4.3a9 9 0 0 1 3 .5l.2-1.3q-1.1-.4-3.2-.3" class="s46"/><path d="m1490.6 171.4-1.1.5a5 5 0 0 0 1.9 1.1l.5-1.1q-.9-.5-1.3-.5" class="s50"/><path d="M1490.6 171.1q0-.8.5-1.6l-1.1-.5c-.2.5-1 1.8-.5 2.9zq0 .4 0 0" class="s44"/><path d="M1492.4 186.8c-1.3.6-3.4.8-4.8 1.1q-1.2.3-1.6 1.3l1.1.6q.4-.5.8-.6c1.3-.2 3.5-.5 4.8-1q2-.8 4-1.1 1.2.1 2.4.5l.8-1q-1.6-.8-3.2-.8-2.3.1-4.3 1" class="s49"/><path d="M1501.3 188.7q-.1-1.3-1.4-2.1l-.8 1q1 .8.8 1.1l-.2 1.9h1.3z" class="s44"/><path d="m1499.7 190.6-.8 2.9.8.8q.8-1.6 1.3-3.7z" class="s48"/><path d="m1498.3 194.3.3 1.1q.7-.3 1.1-1.1l-1.1-.8q0 .9-.3.8" class="s50"/><path d="M1498.1 194.3q-.5 0-.8-.2l-.6 1c.6.3.8.3 1.4.3h.8l-.6-1.1z" class="s46"/><path d="M1495.4 192.5a5 5 0 0 0-3.2-1.4v1.4q1.3 0 2.1.8.9 1.4 2.4 1.8l.6-1q-1.2-.4-1.9-1.6" class="s48"/><path d="m1489 191.1-.3 1.4h3.2v-1.4z" class="s46"/><path d="M1488.2 191.4h-.6l-.2 1.3h1l.3-1.3c0-.3-.3 0-.5 0" class="s48"/><path d="m1487.4 190.8-.8 1.1q.4.5 1.3.6v-1.4q-.5 0-.5-.3" class="s50"/><path d="m1486.8 190.3.3-.8-1.1-.5q-.4.7-.5 1.6.3.9 1.1 1.3l.8-1.1q-.5 0-.6-.5" class="s44"/><path d="M1466.3 184.2q-.5.4-.6 1.3l1.4.3q0-.5.2-.6 3.5-1.6 7 .3l.5-1.1c-4.5-2.1-7.7-1-8.5-.2" class="s49"/><path d="m1474.5 184.2-.2 1q.3 0 .8.6.3.7.2 1.6l1.4.2q.5-1.7-.6-2.6z" class="s44"/><path d="M1474.5 188.4q-2.4.8-4.8 0l-.2 1.1c1.8.5 4 .5 5.8-.3q.8-.7 1.1-1.8l-1.3-.3q0 1.1-.6 1.3" class="s46"/><path d="m1467.3 187.1-1 .5q1.4 1.5 3.2 2.2l.2-1.4q-1.3-.2-2.4-1.3" class="s50"/><path d="M1467.1 187.1q-.4-.5-.3-1.3l-1.3-.3q-.3 1.3.2 2.1z" class="s44"/><path d="M1460.6 157.5c-1.3 0-9.6 5.1-14.9 10.1l1.1.8q6.2-6 13.8-9.6 6.1 2 12.1 2.2l.2-1.4q-6.2-.2-12.3-2.1" class="s49"/><path d="m1472.9 159.6-.2 1.4q2-.3 2.9 1.8l1.1-.2a4 4 0 0 0-3.8-3" class="s44"/><path d="M1475.3 162.8a5 5 0 0 1 0 3l1.1.2c.3-1 .3-2.4 0-3.4z" class="s50"/><path d="M1475.3 165.5q0 .7-.5 1.1-1.1 1.1-2.7 1c-2.1 0-5-.8-7.7-.8q-1.4-.1-2.7.6l.6 1q1-.2 2.1-.2c2.4 0 5.3.8 7.7.8 1.4 0 3-.6 3.8-1.6l.8-1.6z" class="s46"/><path d="m1456.4 174.6-.3.2 1.1.8.2-.2c.6-.6 3.8-6.2 5.4-7l-.5-1c-2.5 1-5.1 6.1-5.9 7.2" class="s48"/><path d="M1448.9 140.9h-.5c-1.4 0-4.6.6-7.3.8l-4.2.6 1 1 3.5-.5a51 51 0 0 1 7-.8z" class="s49"/><path d="m1448.9 140.9-.3 1.4q1.7 1.3 3 3.2l1-.8q-1.6-2.3-3.7-3.8" class="s44"/><path d="M1453.4 148.1v.8l1.4.3v-1.3q-.9-2-2.4-3.5l-.8.8z" class="s52"/><path d="m1454.8 149.5-1.4-.3c0 .5 0 .5-.5.8a97 97 0 0 0-12.3 9.6 36 36 0 0 1-4.8 4.3v-.3l-1.1 2.4q3.7-2.3 6.7-5.6 5.7-5 12.3-9.3 1-.7 1.1-1.6" class="s48"/><path d="M1435.5 153.5q-1.1 6.3-.8 12.5l1.1-2.1c0-2.4.5-6.4 1.1-11.2z" class="s55"/><path d="m1437.9 143.6-1-1.1s-.8 5.4-1.4 11l1.4-.8c.2-3 .8-6.2 1-9.1" class="s44"/><path d="M1421.1 137.7q-3-.3-5.6 1.4l1.1.8a11 11 0 0 1 4.5-.8q1.5 0 2.9.2l.6-1q-2-.5-3.5-.6" class="s49"/><path d="m1424.3 138.3-.5 1q1.1.5 1.8 1.4l1.4-.3a4 4 0 0 0-2.7-2.1" class="s44"/><path d="m1425.6 140.7-1.6 12 1.1.5c.8-6.1 1.9-12.8 1.9-12.8z" class="s45"/><path d="M1424 152.4q-.3 4.8-1.6 9.1l1.1.5q1.1-4.5 1.9-9.1z" class="s48"/><path d="M1421.4 162.3v1.3q1.6 0 2.1-1.3l-1.1-.5q-.3.4-1 .5" class="s45"/><path d="m1421.1 162.3-1.6-1.1-.5 1.1 1.6 1.1q.3.2 1 .2v-1.3z" class="s48"/><path d="M1402.9 152.7c-.2 0-.2-.3 0 0l-1 .8q.4.3.5.2 8.4 4 16.6 8.6l.5-1.1q-8.2-4.8-16.6-8.5" class="s45"/><path d="m1401.3 149.5.3-.8-1.1-.8a3.6 3.6 0 0 0 1.1 5.3l.8-1.1q-1.3-.5-1.1-2.6" class="s44"/><path d="M1408.3 147.3c-2.4 0-4.3-.5-5.1-.5q-1.6 0-2.7 1.1l1.1.8q.7-.7 1.6-.6c.8 0 2.4.6 5.1.6a9 9 0 0 0 3.7-.8l-.5-1.1c-.8.5-2.2.8-3.2.5" class="s49"/><path d="m1411.5 146.8.8 1.1q3.1-3.6 4.3-8l-1.1-.8q-1.2 4.4-4 7.7" class="s44"/><path d="M1397.6 161.5q-2.2-1.1-4.3-1.3l-1.1.2.6 1.1.8-.3q2 .2 3.7 1.1c1.4.8 5.9 3.2 9.1 5.3l.8-1z" class="s49"/><path d="m1406.9 167.1-.8 1.1q1.5.8 3 2.1.4 1.2 0 2.4l1 .5q.9-1.6 0-3.7-1.6-1.6-3.2-2.4" class="s44"/><path d="M1409.1 172.4s-.6 1.4-1.4 1.4q-3.1-.5-6.4-1.4-2-.4-4 0v1.4q2.1-.5 3.8 0 3 .8 6.6 1.3c1.1 0 2.2-.8 2.4-1.9z" class="s48"/><path d="m1389.8 175.6.3 1.4q3.2-2 7.2-3.2v-1.4c-2.7.8-5.1 1.6-7.5 3.2" class="s46"/><path d="m1384 177.5.2 1.3q3.2-.6 5.9-2.1l-.3-1.3q-2.7 1.6-5.8 2.1" class="s46"/><path d="M1384 177.5q-.8.4-1.6 0l-.6 1.1q1.2.4 2.4 0z" class="s45"/><path d="m1373.3 172.4-1.1.8a14 14 0 0 0 7.5 4.8l.2-1q-4-1.3-6.6-4.6" class="s46"/><path d="m1373 169.5-1.1-.5q-1 2.1.3 4.2l1.1-.8q-.8-1.2-.3-2.9" class="s45"/><path d="M1385.8 166.8q-3.6-.2-6.4-1.8-.9-.5-1.9-.6c-2.6.3-4.5 2.2-5.6 4.6l1.1.5a5 5 0 0 1 4.5-3.7l1.4.2q3.1 2 7.2 1.9 1.7-.1 2.9-.5l-.5-1.1q-1.6.5-2.7.5" class="s49"/><path d="m1388.2 166.3.6 1.1c1.6-1.1 3.2-5.1 3.7-5.6l-.3-1.4c-1.3.6-2.4 4.6-4 5.9" class="s44"/><path d="m1534.7 131.9-4 2.6.5.8 3.7-2.4q.3-.3-.2-1" class="s50"/><path d="m1535.2 132.9-3.7 2.4.2 1.6 3.8-2.4v-.8q-.4-.3-.3-.8" class="s56"/><path d="m1535.2 134.5-3.7 2.4v3.2l3.7-2.6a5 5 0 0 0 0-3" class="s44"/><path d="m1535.5 137.2-3.8 2.7-.2 8.8h.2l4.3-5.6h-.5c-.3.2 0-1.1 0-5.9" class="s57"/><path d="m1515.7 104.4-3.5 3.2 1.9 2.4 3.7-3.2z" class="s58"/><path d="m1517.8 106.5-3.4 2.9 1.6 1.6 3.4-3.2a4 4 0 0 1-1.6-1.3" class="s59"/><path d="m1535.7 143.3-4.5 5.6 3.2-.8 4.3-5z" class="s50"/><path d="m1534.1 148.1 1.4-.2 4.2-4.6h-1.3zm-22.9-42.1q.4.7 1.3 1.6l3.5-3.2-1.9-2.4a8 8 0 0 0-3.7-2.2l-4.3 4q2.6.3 5.1 2.2" class="s46"/><path d="m1429.9 51.5-.3-4.3q-2 1-3.7 2.2l.3 4.5c1-.8 2.6-1.9 3.7-2.4" class="s60"/><path d="m1539.7 143.3-4.2 4.8h1l4-4.5q-.3-.4-.8-.3" style="fill:#ffcb80"/><path d="m1540.5 143.3-4 4.6q2.8-.3 5.1.5l2.7-3.7q-1.8-1-3.8-1.4" class="s62"/><path d="m1517 111.8 1.1.6 3.7-3.5-1.3-.5-1.1-.6-3.4 3.2q.1.5 1 .8" class="s46"/><path d="M1431.8 50.7h1.9l.2-4h-1.6q-1.6 0-2.9.8l.2 4.3q1.4-1 2.2-1.1" class="s63"/><path d="m1441.9 52 2.7-3.2q-5.3-1.5-10.9-2.4l-.3 4z" class="s64"/><path d="M1443.3 52.6q.6.5 1.3 2.1l3-3.7q-.8-1.3-1.9-1.9l-1.1-.3-2.7 3.2z" class="s47"/><path d="m1445.7 57.7 2.9-4q-.4-1.6-1.3-2.7l-3 3.7c.6.6.8 1.9 1.4 3" class="s50"/><path d="m1448.4 61.7 2.6-3.8c-1-.5-1.6-2.6-2.4-4.5l-2.9 4a8 8 0 0 0 2.7 4.3" class="s58"/><path d="M1449.2 62.2a56 56 0 0 0 10.9 2.7l.5-4.3q-5.3-.2-9.8-2.7l-2.7 3.8z" class="s64"/><path d="m1468.7 61.4.5-5.3q-2.3 1.1-4.3 2.6l-.8 5.6q2.5-1.2 4.6-2.9" class="s59"/><path d="m1464.4 64.1.8-5.6q-2 1.6-4.6 2.1l-.5 4.3q2.1 0 4.3-.8" class="s48"/><path d="m1471.6 60.1.8.2.8-4.2q-1.3-.5-2.1-.6-1.1 0-2.2.6l-.5 5.6c1.3-1.4 2.1-1.9 3.2-1.6" style="fill:#eb962a"/><path d="m1475.3 61.4.8-4.3a11 11 0 0 0-2.9-1.3l-.8 4.3q1.5.4 2.9 1.3" class="s51"/><path d="m1477.7 63.3 1.7-4q-1.6-1.2-3.5-2.2l-.8 4.3q1.5.7 2.6 1.9" class="s66"/><path d="m1481 66.5 3.4-2.7a21 21 0 0 0-5-4.8l-1.7 4z" class="s67"/><path d="m1481.5 67.8 3.5-2.4-.6-.8q-.4-.4-.5-.8l-3.5 2.7.6.5q.4.4.5.8" style="fill:#eeaf67"/><path d="m1481.8 73.9 4.2-2.9q.1-3.1-1-5.9l-3.5 2.4q.7 3.3.3 6.4" class="s50"/><path d="m1482.6 79.8 3.7-2.9q-.4-3-.3-5.9l-4.2 3.2q0 2.6.8 5.6" class="s57"/><path d="m1483.6 80.9 3.8-2.7q-.8-.4-.8-1.6l-3.8 2.9q0 1 .8 1.4" class="s55"/><path d="m1487.1 77.9-3.7 2.7q.4.7 1.3 1.1l.8.2 3.5-2.6q-1-.5-1.9-1.4" class="s69"/><path d="m1488.4 83.8 3.2-2.4q-1.2-1-2.9-2.1l-3.5 2.6q2 .8 3.2 1.9" class="s51"/><path d="m1495.9 90.2 3.2-2.1q-3.3-3.9-7.5-7l-3.2 2.4q4.4 3 7.5 6.7" class="s62"/><path d="m1497 91.8 3.2-2.4-1.1-1.6-3.2 2.2z" class="s48"/><path d="m1497.5 93.7 3.8-2.7-1.1-1.6-3.2 2.4q.5.8.5 1.9" class="s50"/><path d="m1497.5 93.7-1 2.9 5.3-3.4q0-1.2-.8-2.2zq0-.4 0 0" class="s57"/><path d="m1495.1 104.6 5.4-5c-1.1-.3.2-2.7 1-5.6v-1.1l-5.3 3.5c-1.3 4-2.2 6.6-1.1 8.2q0-.4 0 0" style="fill:#994822"/><path d="m1496.7 104.9 6.2-5.6c-.6 0-1.4 0-1.6.3h-.6l-5.3 5z" class="s69"/><path d="M1503.1 103.6q1.7 0 3 .2l4.3-4c-2.7-.8-5.1-.8-7.8-.8l-6.1 5.6a19 19 0 0 0 6.6-1" class="s62"/><path d="m1522.4 114.5 4-2.9q-2.4-1.6-4.8-2.7l-3.8 3.2z" class="s67"/><path d="m1524.8 115.8 4-2.6-2.4-2.2-4 3.2z" class="s46"/><path d="m1525.8 117.4 4.1-2.1q-.5-1.3-1.4-2.1l-4 2.6q.9.4 1.3 1.6 0-.4 0 0" class="s50"/><path d="m1525.8 123.6 4.6-2.7q.3-3-.3-5.9l-4 2.2q.5 3.1-.3 6.4" class="s56"/><path d="m1524.2 131.3 4.9-2.6v-.3l1.3-7.5-4.3 2.7c-1.1 3.2-2.4 6.4-1.9 7.7" class="s57"/><path d="m1526.4 132.1 4.3-2.9q-1.6-.4-1.6-.8l-4.9 2.9s1.1.6 2.2.8" class="s46"/><path d="m1530.9 134.8 4-2.7a8 8 0 0 0-4.5-3.2l-4.3 3c1.6.8 3.5 1.8 4.8 2.9" class="s62"/><path d="m1544 144.7-2.7 4q1.4.4 2.2 1.6l2.7-3.5q-1-1.7-2.2-2.1" class="s46"/><path d="M1548 149.5q-.7-1.7-1.8-3.2l-2.7 3.4q1.2 1.3 1.6 3z" class="s50"/><path d="M1546.2 156.7q0 .6 1.6 1.1l3.2-3.5q-.5 0-.8-.6c-1.1-.8-1.6-2.6-2.4-4.5l-3 3.2q1 2.3 1.4 4.3" class="s71"/><path d="m1550.7 154-3.2 3.5c1.1.5 2.7.8 2.9 1.3v.3l2.7-3.5q-.8-.4-2.4-1.6" class="s46"/><path d="m1553.1 155.6-2.7 3.5q0 .6.6 1.1l3.2-3.5q-.5-.8-1.1-1.1" class="s72"/><path d="m1551.2 167.1 4 1.3q1.6-5.7-.8-11.4l-.2-.6-3.2 3.5q1.7 5.3.2 7.2" class="s57"/><path d="M1550.2 167.9c-1.9.8-5.4 2.1-8 3.5l5 2.1 5.9-2.7q1.5-1 2.1-2.6l-4-1.4q-.3.8-1 1.1" class="s73"/><path d="m1547.5 173.5-5.1-2.1q-1.6.7-2.7 1.6l5.1 1.8z" class="s74"/><path d="M1539.7 172.7q-1.7.9-2.6 2.7l5.3.5 1.1-.8q.4 0 1.6-.8z" class="s75"/><path d="m1542.7 175.6-5.6-.5q-.8 1.1-.3 2.7l5.1-.6q0-.8.8-1.6" class="s74"/><path d="m1541.9 177-5.1.5a7 7 0 0 0 1.1 2.1l5.1-2.1q-1.1-.1-1.1-.5" style="fill:#ba6019"/><path d="m1539.5 181.2 5.3-3.4q-1.3 0-2.1-.3l-4.8 1.9q.3 1.1 1.6 1.8" class="s57"/><path d="M1542.2 181.8h1l5.6-4q-2.4-.4-4-.3l-5.3 3.5q1.1.8 2.7.8" class="s71"/><path d="m1549.9 182.6 5.1-3.5q-3.3-.9-6.4-1.3l-5.6 4c2.1.5 4.5.5 6.9.8" class="s72"/><path d="M1555 184.2q.7.3 1.6 1l3.7-2.6a10 10 0 0 0-4-3l-1.6-.5-5.1 3.5q3 .3 5.4 1.6" class="s66"/><path d="m1558.5 187.4 3.4-2.4-1.8-2.7-3.8 2.7q1.3.8 2.2 2.4" style="fill:#d89050"/><path d="M1560.9 194.9q0 .8-.8 1.3l4 2.4q.8-1.4.8-2.7c0-4-1.1-8-3.2-11.2l-3.5 2.4c1.9 2.1 2.9 5.1 2.7 7.8" class="s60"/><path d="m1564.3 198.6-4-2.4c-1.8 2.4-7.2 2.9-12 2.9l1.6 4.6c5.6-.3 12.3-1.4 14.4-5.1" class="s56"/><path d="M1542.2 199.1q-1 0-1.9.3l1.3 4.3h.3c.5 0 4.3.2 8.5 0l-1.6-4.6z" class="s75"/><path d="m1536.3 202.6 1.8 5.3c1.6-1.3 1.6-4.2 3.2-4.5l-1.3-4.3a10 10 0 0 0-3.7 3.5" class="s56"/><path d="m1538.4 207.9-2.1-5.3-.8 1.9 1.6 4.2q.3 0 .8-.5.6 0 .5-.3" class="s49"/><path d="M1523.7 205.3c-12.3-.3-15.5-4.8-15.5-4.8h-.3l-1.3 5.3q.6.1 1.1.5c4.8 2.7 10.4 4 16 3.8a47 47 0 0 0 13.6-1.4l-1.6-4.5q-6 .7-12 1.1" class="s75"/><path d="m1501.8 203.7-1.6 6.9q2.4-1.7 4.8-3.7c1.1-1.1 1.3-1.4 1.9-1.1l1.3-5.3q-3.8 0-6.4 3.2" class="s73"/><path d="m1496.7 207.1-1 4.8q2.5 0 4.8-1.3l1.6-6.9a16 16 0 0 1-5.4 3.4" class="s49"/><path d="m1490 201.8-2.6 4.5h.2c1.6 3 4.6 5.1 8.1 5.4l1-4.8c-2.9 1-6.7-5.1-6.7-5.1" class="s75"/><path d="m1464.7 199.9-2.7 3.8c3.2 1.8 9.3 2.4 14.9 2.6l1.9-4.5c-6.1 0-12.5-.5-14.1-1.9" class="s49"/><path d="M1451.6 185h-3l.8 4.5q.9.1 1.6.5c2.7 2.2 9.4 12.9 11.5 13.9l2.7-3.7c-3.8-2.7-11-15.2-13.6-15.2" class="s75"/><path d="M1448.6 185c-1 0-2.4.2-3.2.8l2.4 4.2q1-.4 1.9-.5z" class="s49"/><path d="m1443.3 188.2 3.7 4c0-.8.3-1.9 1.1-2.4l-2.4-4.3c-1.1.5-2.2 1.6-2.4 2.7" class="s75"/><path d="m1478.8 202.1-1.9 4.5c4.3.3 8.6 0 11 0l2.4-4.5z" class="s73"/><path d="m1442.2 194.3 4.8 3.2q-.3-2.7-.2-5.6l-3.5-4q-1.6 2.8-1.1 6.4" class="s78"/><path d="m1445.1 217.3 4.3-1.4c-.2-1.6-1.8-12.8-2.4-18.6l-4.8-3.2q.8 11.5 2.9 23.2" class="s57"/><path d="m1449.4 215.7-4.3 1.3q.6 1.7 1.7 2.9l4-2.4q-1-.7-1.4-1.8" class="s79"/><path d="m1450.5 217.3-3.7 2.4a18 18 0 0 0 5.3 4l2.9-3.8q-2.5-1.2-4.5-2.6" class="s46"/><path d="m1459 226.9 2.4-4q-3.3-1.3-6.4-3l-2.9 3.8z" style="fill:#ffc278"/><path d="m1464.7 229 2.1-3.7-5.9-2.4-2.4 4a41 41 0 0 1 6.2 2.1" style="fill:#ea913e"/><path d="m1467.1 230.1 2.6-3.2a15 15 0 0 0-3.2-1.9l-2.1 3.8q1.4.8 2.7 1.3" style="fill:#c57231"/><path d="m1467.6 233.3 4.3 4c.8-.5 0-5.1-.8-7.7q-.4-1.4-1.1-2.7l-2.9 3.2z" class="s78"/><path d="m1461.2 232.2 4 4.3 5.1.8q1.3.3 1.6-.3l-4.3-4zm-8.8 10.4 3.4 4.6c1.1-.6.8-3.5.8-5.6l-4.2-1.4z" class="s49"/><path d="M1454.8 236q5.3-.1 10.7.5l-4.1-4.3c-6.4-.5-14.6-1-14.9.8l8 3.5q-.3-.6.3-.5" style="fill:#642813"/><path d="m1454.5 236.2-7.7-3.2q-.3.5.2 1.4c1.4 1.3 3.8 4 5.6 6.4l4 1.3q0-1.2-.5-2.4c-.5-1.9-1.9-3.2-1.6-3.5" class="s73"/><path d="m1450.5 241.6.3 4.8q4.2 1.4 5.3.5l-3.7-4.5z" class="s75"/><path d="m1427.8 235.4-1.1 4.6a63 63 0 0 1 24.3 6.4l-.2-4.8a80 80 0 0 0-23-6.2" class="s49"/><path d="m1398.1 241.6-2.1 5.6q14.4-7.7 31-7.2l1-4.6a58 58 0 0 0-29.9 6.2" class="s75"/><path d="m1396.2 242.4-3.2 5.3q.9.6 3-.5l2.1-5.6z" class="s84"/><path d="M1392.8 247.2q0 .4.5.5l3.2-5.3-.3-3h-4.2q-.4 4.1.8 7.8" class="s75"/><path d="M1394.9 235.7c1.1.3-2.7 2.1-2.9 4h4.2c2.7-2.4 4.3-4 5.9-5.6q.6-.6.3-1.1z" class="s78"/><path d="m1397.8 231.7-4.8 3.7q2.3 0 2.2.3l7.5-2.7q0-1-4.9-1.3" class="s84"/><path d="m1385.3 232-4.3 3.2c.8 1.6 7.2.2 12.6.5l4.8-3.7q-6.8-.5-13.1 0" class="s75"/><path d="m1386.4 228.8-2.4-3.3q-2.9 4.1-3.3 8.9 0 .3.3.8l4.6-3.2z" class="s78"/><path d="m1394.4 226.9-3.2-3.8c-2.2.8-5.4 1.6-6.7 1.9q-.4.1-.8.5l2.4 3.5a84 84 0 0 0 8.3-2.1" class="s60"/><path d="m1399.2 225-3.5-3.5q-2.4 1.2-4.8 1.9l3.2 3.8a34 34 0 0 0 5.1-2.2" class="s85"/><path d="m1403.5 222.1-3.5-3.5a10 10 0 0 1-4.3 2.9l3.5 3.5q2.3-.8 4.3-2.9" class="s79"/><path d="M1404.8 218.9c1.1-6.2 2.7-23 2.7-24l-4.8 1.3c-.6 5.9-1.4 17.1-2.4 21.1-.3.5-.3 1-.8 1.3l3.4 3.5a5 5 0 0 0 1.9-3.2" style="fill:#76310a"/><path d="m1404.8 186.6-3.5 2.6c1.4 2.2 1.9 4.9 1.4 7.3l4.8-1.4c0-2.9-.8-6.1-2.7-8.5" class="s73"/><path d="M1397.3 182.8c-3.7 1.1-9.6 4.3-10.1 5.6l4.8 3.3c-.6-2.2 5.6-4.6 6.7-4.6q1.9.5 2.6 2.1l3.5-2.6a8 8 0 0 0-7.5-3.8" class="s75"/><path d="M1387.2 188.4c-.8 1.6 0 3.5.5 5.9l5.1 3.8q0-3.2-.8-6.4z" class="s73"/><path d="M1388.2 198.3q0 .5-.2.8l2.9 3.2a5 5 0 0 0 1.9-4.5l-5.1-4q.5 2.3.5 4.5" class="s49"/><path d="m1384.8 200.2 1.8 3.7a8 8 0 0 0 4.3-1.8l-2.9-3.2a5 5 0 0 1-3.2 1.3" class="s78"/><path d="m1370.1 200.2 1 4.3c3.5 0 11.8 0 15.8-.6l-1.9-3.7q-7.7.7-14.9 0" class="s75"/><path d="m1362.6 204.2 1.3 4.8q2.6-2.5 5.9-4.3h1.3l-1-4.2c-1.9-.3-4.9 1.6-7.5 3.7" style="fill:#994b17"/><path d="M1362.8 203.9c-2.6 2.2-4.5 4-5.6 4l1.1 4.3q3.2-1.1 5.6-3.7z" class="s49"/><path d="M1349.7 208.5c-1.8 0-4.2-3.5-7.2-4.3l-.2 4.5q.6 0 1.3.8a9 9 0 0 0 5.9 3.5q4.8.1 9.6-.5l-1.6-4.3q-4 .4-7.8.3" class="s75"/><path d="M1341.5 203.9c-1.4 0-3.5 1.9-4.8 3.2l.8 4.8q2-1.2 3.4-2.9.5-.5 1.4-.3l.2-4.2c-.2-.3-.8-.3-1-.6" style="fill:#a35622"/><path d="M1336.7 207.1q-1.3 1-1.9 1.1l.3 4.5a4 4 0 0 0 2.6-.8z" class="s49"/><path d="m1321.4 204.2-.2-.3-3.8 2.4q1.1 1.3 2.7 2.2 7.3 3.3 15 4.2l-.3-4.5q-7-.8-13.4-4" class="s75"/><path d="m1322 197.8-4.9 3.7-.2 2.2q0 1.4.8 2.6l3.7-2.4q-.3-2.8.6-6.1" style="fill:#af6638"/><path d="m1322.5 194.9-5.9 4.5h.3c.2 0 .2.5 0 2.4l4.8-3.7q.8-1.6.8-3.2" class="s49"/><path d="m1315 194.9.3 5.3.8-.5q.2-.4.5-.3l5.6-4.5c-2.1-.6-4.8-.6-7.2 0" class="s75"/><path d="M1313.9 195.4c-.8.5-2.9 2.4-4.2 3.5l2.1 4.2q2-1.2 4-2.9l-.3-5.3c-.8.2-1 .2-1.6.5" class="s90"/><path d="M1308.6 199.4c-13.9 2.7-18.4.5-18.4.5l-4.1 2.2v.2c1.9 2.4 9.7 3.8 23 1.6q1.6-.3 2.7-1l-2.1-4.3q-.4.6-1.1.8" class="s75"/><path d="m1291.5 190.6-4-1.6c-1.4 4.5-1.9 12.8-1.1 13.6l4-2.4q0-5.2 1.1-9.6" class="s90"/><path d="m1292 189 1.6-1.6-4-2.7-1.3 1.6q-.7 1.2-1.1 2.4l4 1.6z" class="s91"/><path d="m1301.1 178-6.4.8.3.3c.5.8-3.2 3.5-5.6 5.9l4 2.6c3.4-3.2 8.2-7.7 7.7-9.6" style="fill:#d27c3c"/><path d="M1301.1 177.8q-1.7-2-3.5-3.5l-5.3.3q1.3 2 2.9 4l6.2-.8q-.2.3-.3 0" class="s93"/><path d="m1295.2 170.8-4.8-.2q.3 2.3 1.9 4.2l5.6-.5c-1.3-.8-2.7-2.4-2.7-3.5" class="s44"/><path d="m1296.3 169.2-4.5-1.3-1.1 2.1q-.4.6-.3 1.1l4.8.3c0-.6 0-.8 1.1-2.2" class="s50"/><path d="M1298.2 166.6q.3-.5.8-.6l-1.6-4.2a17 17 0 0 0-5.6 6.1l4.5 1.3q.9-1.7 1.9-2.6" class="s55"/><path d="m1301.9 166.3-.8-4.8q-2-.4-4.3.5l1.6 4.3q2-.7 3.5 0" class="s57"/><path d="m1301.1 161.2.8 4.8q1.3.4 3 .3l-.8-5.3q-2 .3-3 .2" class="s50"/><path d="m1304.1 161-.6.2.8 5.4 1.1-.3z" class="s55"/><path d="m1307.8 163.4-1.6-5.1c-1.1 1.1-1.9 2.4-2.1 2.7l1.3 5q1.2-.7 2.4-2.6" class="s91"/><path d="m1305.9 158.6 1.6 5q.5-1.1 1.4-1.8l-1.4-4.6z" class="s50"/><path d="M1309.1 161.5q.3 0 .6-.3l-.6-4.5-1 .3q-.5 0-.8.5l1.3 4.5z" class="s55"/><path d="m1314.2 161 .3-4.6q-2.7 0-5.4.3l.6 4.5q2-.2 4.5-.2" class="s57"/><path d="m1314.2 156.4-.3 4.6h1.4l1-4.6z" class="s55"/><path d="m1316.6 156.4-1.3 4.6h.2l.6.2 2.1-4.5z" class="s48"/><path d="m1317.4 163.4 2.2-5.1q-.8-.9-1.9-1.3l-1.9 4.5q.8.6 1.6 1.9" class="s91"/><path d="m1318.8 165.8 2.1-5.4-1.6-2.4-2.2 5.1c.6.8 1.1 2.1 1.7 2.7" class="s55"/><path d="M1319.6 166.6h1l1.4-4.8c-.6-.6-.8-1.1-1.4-1.6l-2.1 5.3q.7 1 1.1 1.1" class="s91"/><path d="m1324.9 166-2.1-4.2h-.3q-.5.2-.8-.3l-1.6 4.8c1.9.3 3.2.3 4.8-.3" class="s90"/><path d="M1325.7 165.2c.3-.2.3-.8.5-1l-2.9-3.5q-.1.7-.5 1.1l2.1 4.2z" class="s91"/><path d="m1326.8 161.8-3.5-3q0 1-.3 1.9l3 3.5q.8-1.2.8-2.4" class="s50"/><path d="M1327.8 155.9v-.6l-4.5 1.4q.4 1.2.3 2.4l3.4 2.9q.6-3 .8-6.1" class="s94"/><path d="m1324.9 152.4-4.8 1.9q2 .8 3.2 2.4l4.5-1.4q-1-1.6-2.9-2.9" class="s93"/><path d="m1321.4 150.5-4.5 1.6 3.2 2.4 4.8-1.8c-.8-.8-2.4-1.6-3.5-2.2" style="fill:#9a4921"/><path d="m1318.8 148.1-4.1 1.1q.8 2 2.4 3.2l4.6-1.6c-2.1-1.3-2.9-1.9-2.9-2.7" class="s57"/><path d="m1314.7 147.3-.2 1.1v1.1l4-1.1q0-.9.3-1.3z" style="fill:#96441e"/><path d="m1319 146-4-.3q-.4 1-.3 1.9l4.1-.5q.3-.6.2-1.1" class="s57"/><path d="m1322.2 138-3.4-2.1a40 40 0 0 0-3.5 9.8l4 .3q.8-4 2.9-8" class="s91"/><path d="m1318.5 136.1 3.5 2.2q.3-.8.8-1.1l-3.8-2.1c0 .2-.2.8-.5 1" class="s85"/><path d="m1324.1 136.7-4-2.7-1.1 1.1 3.8 2.1.2-.3z" class="s50"/><path d="m1327.8 134.8-4-2.7c-1 .6-2.1.8-3.2 1.6l-.5.3 4 2.7q1.7-.6 3.7-1.9" style="fill:#a04e14"/><path d="M1324.9 131.1q0 .4 0 0-.7 1-1.3 1.3l4 2.7q1.6-1 1.8-2.2z" class="s85"/><path d="M1329.4 132.9c-.2-1.6-.8-3.7-1-5.8l-4.3-1.1.8 5.3z" class="s91"/><path d="m1327.3 120.1-3.7-1.1q0 3.7.8 7l4.2 1.1q-1-3.3-1.3-7" class="s50"/><path d="M1327.6 118.2c.2-.2.8-.5 1-.8l-3.7-2.6a6 6 0 0 0-1.3 4.8l3.7 1q0-2 .3-2.4" style="fill:#aa5a28"/><path d="m1334.2 113.2-1.3-4.8q-4.3 2.8-8.3 6.1l3.8 2.7z" class="s99"/><path d="M1335.3 112.4c.6-.3.8-.6 1.4-.3l-.3-4.8c-.8 0-1.9 0-2.4.5q-.5.5-1.4.8l1.4 4.8z" class="s90"/><path d="M1339.6 112.9v-5.1c-1.1-.5-2.1-.5-3.2-.8l.3 4.8q1.6.4 2.9 1.1" class="s100"/><path d="M1339.6 107.8v5.1a9 9 0 0 0 8 1.1l-1.6-4.3c-1.1.5-3.7-1.1-6.4-1.9" class="s46"/><path d="m1349.7 112.1-3.4-3.2c0 .5 0 .5-.3.8l1.6 4.3q1.3-.3 2.1-1.9" class="s94"/><path d="m1346.3 104.1-.3 5.1 3.5 2.9q.8-2 .8-4.5z" class="s99"/><path d="m1350.6 105.7-3.8-3.7-.3 2.4 4.1 3.7q-.5-1.2 0-2.4" class="s57"/><path d="m1351.1 101.2-3.2-3.2a8 8 0 0 0-1.4 4.2l3.8 3.8z" class="s50"/><path d="M1351.6 100.4q.5-.5 1.4-.8l-3-3.2c-.5.2-1.1.8-1.3 1q-.5.3-.6.6l3.3 3.4c-.3-.2 0-.8.2-1" style="fill:#aa5e33"/><path d="m1356.7 97.4-1.3-4.5q-3 1.5-5.7 3.5l3 3.2c1.3-.6 2.9-1.6 4-2.2" class="s99"/><path d="M1357.8 96.9c.2-.3.8-.3 1 0l-1.3-4.5-2.1.8 1.3 4.5q.3-.8 1.1-.8" class="s57"/><path d="m1359.6 96.9-1.3-4.8h-1.3l1.3 4.5q.9.4 1.3.3" class="s100"/><path d="m1362.6 98-1.4-5.1q-1.5-.6-3.2-.8l1.4 4.8z" class="s46"/><path d="m1365 98.2-1.6-4.5h-.3l-2.1-.8 1.3 5.1q2.1.7 2.7.2" style="fill:#e5872b"/><path d="m1366.6 96.6-2.2-3.7c-.2.5-.8 1.1-1 1.1l1.6 4.5q.7-1.3 1.6-1.9" class="s57"/><path d="m1369.3 91.8-4.3-.8v.3l-.8 1.9 2.1 3.7a14 14 0 0 0 3-5.1" class="s99"/><path d="m1369.3 90.8-.3-1.4-4.6-.8.6 2.7 4.3.8q.3-.9 0-1.3" style="fill:#b96534"/><path d="m1367.7 84.3-4.3-.8c.2 1.6.8 3.8 1 5.1l4.6.8z" class="s57"/><path d="m1366.9 78.5-4.1-1.1-.2 1.1q0 2.4.5 4.8l4.3.8q-.8-4.5-.5-5.6" class="s45"/><path d="m1369.5 73.1-2.6-3.4a28 28 0 0 0-4.3 8.2l4 1.1c1.3-2.1 1.9-4 2.9-5.9" class="s50"/><path d="M1370.6 71.8q.3-.4 1.1-.8l-1.9-4-1.6 1.3-1.1 1.6 2.7 3.5q.2-.8.8-1.6" class="s60"/><path d="m1374.3 70.2-1.8-4.5q-1.7.3-3 1l1.9 4q1.3-.4 2.9-.5" class="s99"/><path d="m1372.2 65.7 1.9 4.5c2.6-.5 6.1-.5 7.7-2.1l-1.9-5.1c-1 2.4-4.8 2.1-7.7 2.7" class="s52"/><path d="m1384.2 64.9-1.8-5.4q-1.4 1.2-2.2 3.2l-.3.6 1.9 5q1.7-1.5 2.4-3.4" class="s57"/><path d="m1388.8 61.7-.8-4.3q-3.2.4-5.6 2.4l1.8 5.3c.8-1.8 1.1-3.2 4.6-3.4" class="s50"/><path d="m1394.1 60.1-1.1-4.3q-2.3 1.1-5 1.3h-.6l.8 4.3q3.2 0 5.9-1.3" class="s48"/><path d="m1400 57.1-1.1-4.2q-2.7 1.8-5.9 3.2l1.1 4.2z" class="s60"/><path d="m1405.1 53.9-.8-4.5a5 5 0 0 0-1.9 1l-3.5 2.5 1.1 4.2z" class="s55"/><path d="M1405.3 53.7q3.7-1.3 7.8-.6l-.3-4q-4.4-.8-8.8.3l.8 4.5q.5 0 .5-.2" class="s48"/><path d="m1420 54.2-.2-3.8c-1.9-.2-4.6-.8-7-1l.3 4c2.4 0 5.1.3 6.9.8" class="s51"/><path d="M1423.5 54.7v-4.3l-4-.2.3 3.7c2.1.6 3.7.8 3.7.8" class="s48"/><path d="m1426.2 53.7-.3-4.6q-1.1.9-2.7 1.3v4.3a6 6 0 0 0 3-1" class="s63"/><path d="M0 2.7V0h2.7zm1595.3 341.6h2.7v2.7h-2.7z" style="fill:none"/><path d="M9.1 132.1C9.1 165 31 177 63.9 185.2c31.2 7.5 37.6 17.1 37.6 29.4 0 13.6-12.2 23.2-29.6 23.2-19 0-35-6.9-52.1-22.1L2.9 236.5c18.5 17.3 43.1 27 68.4 27 35.1 0 58.6-20.9 58.6-51.8 0-27.3-16.3-43.3-52.7-52.6-33.1-8.3-39.5-17.1-39.5-29.9 0-11 9.3-22.2 27.2-22.2q21.9-.2 44.7 17.4c.5-.8 14.7-21.4 14.9-21.9a89 89 0 0 0-59.3-21.1c-32.6.3-56.1 21.6-56.1 50.7m213.8.6c0 .5-27.8 89.9-27.8 89.9l-25.4-89.7h-28.3c.2 1.1 39.8 128.4 40 129.2h24.9c.3-.5 28.3-89.4 28.3-89.4l28.3 89.4h24.9c.3-.5 40.1-127.8 40.6-129.2h-27.5c-.3.6-25.9 89.7-25.9 89.7l-28.4-89.9z" class="s105"/><path fill-rule="evenodd" d="M402.7 130.3c40.9 0 59.3 34.4 59.3 68.8l-.5 7.8v.2h-91.7v.6c3 20 16.6 32 36.4 32 13.6.5 27.2-3.5 38.5-11.5l7.4 22.4a81 81 0 0 1-46.7 13.4c-36.9 0-63.6-28-63.6-66.5v-.2c0-38.2 25.9-67 60.9-67M369 188.4h65v-.5c-2.2-21.3-14.5-34.4-32.1-34.4-17.4 0-30.2 13.6-32.9 34.4zM610.9 81.7v176.4a449 449 0 0 1-63.4 5.9c-29.9 0-60.4-22.7-60.4-66.5v-.5c0-43.5 28.9-66.5 57.5-66.5a57 57 0 0 1 38.2 13.1l.8.5V81.7zm-59.3 157.2q16 .4 32.1-2.1h.2v-63.6c0-5.3-12.8-18.4-32.3-18.4-21.1 0-36.3 17.6-36.3 41.9v.6c0 24 15.7 41.9 36.3 41.6M675.3 81.7v62.4l.8-.5a57 57 0 0 1 38.2-13.1c28.6 0 57.4 22.7 57.4 66.5v.5c0 43.5-30.4 66.5-60.3 66.5q-32-.7-63.4-5.9V81.7zm32.4 157.7c20.8 0 36.3-18.1 36.3-41.9v-.5c0-24.3-15.2-41.9-36.3-41.9-19.6 0-32.4 13.1-32.4 18.4V237h.3q16 2.4 32.1 2.4M853 131.3c35.5 0 54.2 18.7 54.2 53.9v73.2a481 481 0 0 1-68.1 5.9c-21.1 0-43.8-12.6-43.8-39.6v-.5c0-26.1 18.7-41.9 49.9-41.9a100 100 0 0 1 34.2 5.3l.6.3v-3.2c0-18.1-11.3-28-31.3-28a90 90 0 0 0-35.3 8c-.2-1.1-7.2-22.2-7.5-23a100 100 0 0 1 47.1-10.4m-5.6 111.3q16.7 0 33.1-2.4h.3v-33.1h-.3q-14-5-28.9-5c-18.1 0-29.1 7.7-29.1 20.5v.5c0 11.5 9.6 19.5 24.9 19.5" class="s105"/><path d="M942 136.1v125h27.5V157h.3q14-2.2 28-2.2c17.1 0 27.3 12.6 27.3 33.1v72.9h27.5v-81.2c0-30.4-16.8-49.1-43.8-49.1q-33.5.5-66.8 5.6m146.4-54.4v179.6h27.5v-36.8l17.9-19.5 37.7 56.1h32.1c-1.1-1.4-51.1-76.1-51.1-76.1l49.2-52.1h-33.4l-52.4 57.9V81.4h-27.5z" class="s105"/></g></g></g></svg>