<svg xmlns="http://www.w3.org/2000/svg" xmlns:xlink="http://www.w3.org/1999/xlink" viewBox="0 0 216 48"><defs><radialGradient id="Ny_övertoningsruta_3" cx="198.5" cy="10.2" r="32.9" data-name="Ny övertoningsruta 3" gradientTransform="translate(-1.4 2.9)" gradientUnits="userSpaceOnUse"><stop offset="0" stop-color="#ffe178"/><stop offset=".2" stop-color="#ffd05f"/><stop offset=".4" stop-color="#ffbe46"/><stop offset=".6" stop-color="#ff9b0f"/><stop offset=".8" stop-color="#f7780f"/><stop offset=".9" stop-color="#f3640f"/><stop offset="1" stop-color="#e65f19"/></radialGradient><radialGradient id="Namnlös_övertoning_9" cx="196.8" cy="8.8" r="37" data-name="Namnlös övertoning 9" gradientUnits="userSpaceOnUse"><stop offset="0" stop-color="#ffc85a"/><stop offset=".3" stop-color="#f59619"/><stop offset=".4" stop-color="#e56b16"/><stop offset=".6" stop-color="#dc5014"/><stop offset=".8" stop-color="#ba3f18"/><stop offset=".8" stop-color="#b43c19"/></radialGradient><radialGradient xlink:href="#Ny_övertoningsruta_3" id="Ny_övertoningsruta_3-2" cx="194.5" cy="9.3" r="35.7"/><radialGradient xlink:href="#Ny_övertoningsruta_3" id="Ny_övertoningsruta_3-3" cx="194.5" cy="9.3" r="35.8"/><radialGradient xlink:href="#Ny_övertoningsruta_3" id="Ny_övertoningsruta_3-4" cx="194.4" cy="9.2" r="35.8"/><radialGradient xlink:href="#Ny_övertoningsruta_3" id="Ny_övertoningsruta_3-5" cx="194.6" cy="9.3" r="35.7"/><radialGradient xlink:href="#Ny_övertoningsruta_3" id="Ny_övertoningsruta_3-6" cx="193.2" cy="7.6" r="39.6"/><radialGradient xlink:href="#Ny_övertoningsruta_3" id="Ny_övertoningsruta_3-7" cx="195.2" cy="8.9" r="36.5"/><radialGradient xlink:href="#Ny_övertoningsruta_3" id="Ny_övertoningsruta_3-8" cx="193.9" cy="8.1" r="38"/><radialGradient xlink:href="#Ny_övertoningsruta_3" id="Ny_övertoningsruta_3-9" cx="194.2" cy="9.4" r="35.9"/><radialGradient xlink:href="#Ny_övertoningsruta_3" id="Ny_övertoningsruta_3-10" cx="193.8" cy="8.8" r="37.4"/><radialGradient xlink:href="#Ny_övertoningsruta_3" id="Ny_övertoningsruta_3-11" cx="195" cy="9.1" r="36.5"/><radialGradient xlink:href="#Ny_övertoningsruta_3" id="Ny_övertoningsruta_3-12" cx="193.9" cy="9.3" r="37.5"/><radialGradient xlink:href="#Ny_övertoningsruta_3" id="Ny_övertoningsruta_3-13" cx="194.3" cy="9.1" r="36.3"/><radialGradient xlink:href="#Ny_övertoningsruta_3" id="Ny_övertoningsruta_3-14" cx="194.4" cy="9.2" r="36.8"/><radialGradient xlink:href="#Ny_övertoningsruta_3" id="Ny_övertoningsruta_3-15" cx="194.3" cy="9.4" r="36.4"/><radialGradient xlink:href="#Ny_övertoningsruta_3" id="Ny_övertoningsruta_3-16" cx="194.5" cy="9.4" r="37.2"/><radialGradient xlink:href="#Ny_övertoningsruta_3" id="Ny_övertoningsruta_3-17" cx="194.3" cy="9.5" r="36.3"/><radialGradient xlink:href="#Ny_övertoningsruta_3" id="Ny_övertoningsruta_3-18" cx="194.5" cy="9.4" r="36.4"/><radialGradient xlink:href="#Ny_övertoningsruta_3" id="Ny_övertoningsruta_3-19" cx="194.5" cy="9.6" r="37.1"/><radialGradient xlink:href="#Ny_övertoningsruta_3" id="Ny_övertoningsruta_3-20" cx="194.6" cy="9.6" r="36.2"/><radialGradient xlink:href="#Ny_övertoningsruta_3" id="Ny_övertoningsruta_3-21" cx="194.7" cy="9.2" r="36.8"/><radialGradient xlink:href="#Ny_övertoningsruta_3" id="Ny_övertoningsruta_3-22" cx="194.3" cy="9.3" r="36.1"/><radialGradient xlink:href="#Ny_övertoningsruta_3" id="Ny_övertoningsruta_3-23" cx="194.7" cy="9.4" r="36.6"/><radialGradient xlink:href="#Ny_övertoningsruta_3" id="Ny_övertoningsruta_3-24" cx="194.9" cy="8.9" r="36.9"/><radialGradient xlink:href="#Ny_övertoningsruta_3" id="Ny_övertoningsruta_3-25" cx="194.7" cy="9.5" r="36"/><radialGradient xlink:href="#Ny_övertoningsruta_3" id="Ny_övertoningsruta_3-26" cx="195.2" cy="9" r="36.9"/><radialGradient xlink:href="#Ny_övertoningsruta_3" id="Ny_övertoningsruta_3-27" cx="194.8" cy="9.1" r="36.2"/><radialGradient xlink:href="#Ny_övertoningsruta_3" id="Ny_övertoningsruta_3-28" cx="195.3" cy="9.2" r="37.5"/><radialGradient xlink:href="#Ny_övertoningsruta_3" id="Ny_övertoningsruta_3-29" cx="194.7" cy="9.2" r="36.6"/><radialGradient xlink:href="#Ny_övertoningsruta_3" id="Ny_övertoningsruta_3-30" cx="195.1" cy="8.4" r="37"/><radialGradient xlink:href="#Ny_övertoningsruta_3" id="Ny_övertoningsruta_3-31" cx="195" cy="8.9" r="36.5"/><radialGradient xlink:href="#Ny_övertoningsruta_3" id="Ny_övertoningsruta_3-32" cx="195" cy="8.9" r="36.7"/><radialGradient xlink:href="#Ny_övertoningsruta_3" id="Ny_övertoningsruta_3-33" cx="195" cy="8.6" r="36.9"/><radialGradient xlink:href="#Ny_övertoningsruta_3" id="Ny_övertoningsruta_3-34" cx="194.3" cy="8.2" r="37.8"/><radialGradient xlink:href="#Ny_övertoningsruta_3" id="Ny_övertoningsruta_3-35" cx="195" cy="8.3" r="37.2"/><radialGradient xlink:href="#Ny_övertoningsruta_3" id="Ny_övertoningsruta_3-36" cx="194.2" cy="8.2" r="37.6"/><radialGradient xlink:href="#Ny_övertoningsruta_3" id="Ny_övertoningsruta_3-37" cx="194.2" cy="8.7" r="36.9"/><radialGradient xlink:href="#Ny_övertoningsruta_3" id="Ny_övertoningsruta_3-38" cx="194.1" cy="8.6" r="36.7"/><radialGradient xlink:href="#Ny_övertoningsruta_3" id="Ny_övertoningsruta_3-39" cx="193.2" cy="7.3" r="39"/><linearGradient id="Namnlös_övertoning_4" x1="205" x2="179.1" y1="4.8" y2="43.1" data-name="Namnlös övertoning 4" gradientUnits="userSpaceOnUse"><stop offset="0" stop-color="#ffe6a5"/><stop offset=".1" stop-color="#fcc677"/><stop offset=".3" stop-color="#f5871e"/><stop offset=".3" stop-color="#f5871e"/><stop offset=".6" stop-color="#e1690f"/><stop offset=".6" stop-color="#cc5c0e"/><stop offset=".8" stop-color="#9c3d0c"/><stop offset=".9" stop-color="#7e2a0b"/><stop offset="1" stop-color="#73230a"/></linearGradient><linearGradient id="Namnlös_övertoning_3" x1="180" x2="203.9" y1="41.8" y2="6.4" data-name="Namnlös övertoning 3" gradientUnits="userSpaceOnUse"><stop offset="0" stop-color="#ffe6a0"/><stop offset=".1" stop-color="#fcc877"/><stop offset=".3" stop-color="#f5871e"/><stop offset=".3" stop-color="#f5871e"/><stop offset=".6" stop-color="#e1690f"/><stop offset=".7" stop-color="#db650f"/><stop offset=".8" stop-color="#ae490d"/><stop offset=".9" stop-color="#8e340b"/><stop offset=".9" stop-color="#7a280a"/><stop offset="1" stop-color="#73230a"/></linearGradient><style>.cls-6{fill:#dc8730}.cls-7{fill:#8d4428}.cls-8{fill:#9f5024}.cls-9{fill:#ad5725}.cls-10{fill:#e48e33}.cls-11{fill:#db7b29}.cls-12{fill:#ffb560}.cls-13{fill:#bc6327}.cls-15{fill:#ffd68e}.cls-16{fill:#d57c3f}.cls-17{fill:#ffcd85}.cls-18{fill:#efa952}.cls-19{fill:#fdac4a}.cls-21{fill:#ffc378}.cls-22{fill:#ffce89}.cls-23{fill:#ffd79d}.cls-25{fill:#bf6b29}.cls-26{fill:#fcb664}.cls-28{fill:#d47429}.cls-29{fill:#e7944b}.cls-30{fill:#964c25}.cls-31{fill:#823d1e}.cls-32{fill:#6c2b13}.cls-35{fill:#7e3717}.cls-36{fill:#94441e}.cls-37{fill:#dd8732}.cls-42{fill:#56220c}.cls-43{fill:#f49e4d}.cls-48{fill:#a5572a}.cls-49{fill:#e69646}.cls-51{fill:#7a2c13}.cls-52{fill:#c27138}.cls-57{fill:#944428}.cls-58{fill:#ffc283}.cls-62{fill:#f29b40}.cls-63{fill:#b46027}.cls-102{fill:#f8a943}.cls-103{fill:#ec9c4b}</style></defs><g id="Lager_2" data-name="Lager 2"><g id="Lager_1-2" data-name="Lager 1"><path d="M213.2 24A21.2 21.2 0 1 1 192 2.8 21 21 0 0 1 213.2 24" style="fill-rule:evenodd;fill:url(#Ny_övertoningsruta_3)"/><path d="M192 1a23 23 0 1 0 23 23 23 23 0 0 0-23-23m0 45a22 22 0 1 1 22-22 22 22 0 0 1-22 22" style="fill:url(#Namnlös_övertoning_4)"/><path d="M192 2a22 22 0 1 0 22 22 22 22 0 0 0-22-22m0 43a21 21 0 1 1 21-21 21 21 0 0 1-21 21" style="fill:url(#Namnlös_övertoning_3)"/><path d="M192 46.1A22.1 22.1 0 1 1 214.1 24 22 22 0 0 1 192 46.1m0-44A21.9 21.9 0 1 0 213.9 24 22 22 0 0 0 192 2.1" style="fill:#faaf5a"/><path d="M210.4 26.9c-.2.7-2 .6-2.5.6a1 1 0 0 0-.9.6l-1.6.2c-1.7 0-2.1-.7-2.1-.7-.8 0-.8.7-1.5 1-.4 0-1-.8-1-.8a10 10 0 0 1-3.4-.2c-.4-.3-1.4-2-1.7-2h-.6q-.7 0-.7 1.3.1 2 .4 2.9c.2 1 2.1 1.4 3 1.8v.4c-1-.1-3.2-.4-2.7.2l.7.8v.3a10 10 0 0 0-3.8-1 8 8 0 0 0-3.8 1v-.4l.8-.8c.3-.3-.7-.3-2.2-.2v-.4c1-.3 2.4-.5 2.6-1.4l.3-3c.1-1.2-.8-2-1.3-1.8l-1.4.7.1 1.3q-.2.5-2.4.3c-.5 0-1.5 1-1.7 1l-1 .1c-.3 0-.7-.5-1.2-.6-.2 0-.7.6-.9.6l-1.7-.5c-.2-.1.1-1.2 0-1.3h-1l-.8.6a5 5 0 0 1-2.4 0l.2-1.4c.4-.5 1.4-1.3 1.2-1.5 0-.2-1-.7-.8-1l.4-.5c.2-.3.7 0 1-.1s.4-.6.5-.6l.8-.1c.2 0 .5.7.6.7l.8-.1.3-1.3c0-.4-1.2-.7-1.2-1s.4-1.5.6-1.5c.3-.1.9-.4.8-.6 0-.6-.4-1.8-.2-2l1-.7q.3-.2.8.1a1 1 0 0 0 1.1-.2c.2-.2.1-1.4.3-1.6l.8-.4c.2-.1.9.3 1 .1q.6-.6.6-1l-.3-1.6.5-1c.2-.3 1.1 0 1.5-.4.5-.4.2-.8.9-.9a7 7 0 0 0 2.2-1 6 6 0 0 1 2.5 0l1.1-.5 1.6.3c.2.1.2 1.1.8 1.3l1.2.3c1 .2 1.4-.7 1.8-.6a3 3 0 0 1 1.3 1c.2.3-.3 1.6.4 2 1 .3 1.8 1.3 1.8 1.5-.1.4-.6 1.2-.4 1.5.1.1.8 0 1.1-.1l1 .3.8.8q1 .3 1.3.7c.2.7-.3 1.6-.3 1.9 0 0 1 .3 1 .6v1.7h1.3q.6.3.7 1.1c0 .2.5.2.6.4q.3 1 0 1.1c-.7.3-2 .8-1.9 1.3a1 1 0 0 0 .7.6l1.8.3a2 2 0 0 1 .8 1.5" style="fill-rule:evenodd;fill:url(#Namnlös_övertoning_9)"/><path d="m206.8 18.4-.5.4h.1l.5-.2z" class="cls-6"/><path d="m207 18.5-.6.4v.2l.5-.3z" class="cls-7"/><path d="m207 18.7-.6.4v.4l.5-.4z" class="cls-8"/><path d="m207 19.1-.6.4v1.2l.6-.8z" class="cls-9"/><path d="m204.3 14.7-.5.4.3.3.5-.4z" class="cls-10"/><path d="m204.6 15-.5.4.2.2.5-.5z" class="cls-11"/><path d="m207 20-.6.7.4-.1.6-.7z" class="cls-6"/><path d="M206.8 20.6h.2l.5-.7h-.1Zm-3.1-5.7.2.2.4-.4-.2-.3-.6-.3-.5.5z" class="cls-12"/><path d="M192.7 7.6V7l-.5.3v.6z" class="cls-13"/><path d="m207.5 20-.5.6h.1l.6-.7z" style="fill:#ffcb80"/><path d="m207.6 20-.5.5.7.1.3-.5z" class="cls-15"/><path d="m204.5 15.7.5-.4h-.2l-.1-.2-.5.5z" class="cls-12"/><path d="M193 7.5h.3v-.6h-.2l-.4.1v.6z" class="cls-16"/><path d="m194.4 7.7.3-.5-1.4-.3v.6z" class="cls-17"/><path d="m194.6 7.7.1.3.4-.5-.2-.2h-.2l-.3.4z" class="cls-18"/><path d="m194.9 8.4.4-.5-.2-.4-.4.5z" class="cls-6"/><path d="m195.2 9 .4-.5-.3-.7-.4.6z" class="cls-10"/><path d="m195.4 9 1.4.4.1-.6-1.3-.4-.4.5z" class="cls-17"/><path d="M198 8.9v-.7l-.5.3-.1.8z" class="cls-11"/><path d="m197.4 9.3.1-.8-.6.3v.6z" class="cls-19"/><path d="m198.4 8.7.2-.5h-.6v.7z" style="fill:#eb962a"/><path d="M198.9 9v-.6l-.3-.2-.1.5z" class="cls-21"/><path d="m199.2 9.2.2-.6-.5-.3V9z" class="cls-22"/><path d="m199.6 9.6.5-.3-.7-.7-.2.5z" class="cls-23"/><path d="m199.7 9.8.5-.4-.2-.2-.4.4z" style="fill:#eeaf67"/><path d="m199.7 10.6.6-.4-.1-.8-.5.3z" class="cls-6"/><path d="m199.8 11.4.6-.4v-.8l-.7.4z" class="cls-9"/><path d="m200 11.5.5-.3-.2-.2-.5.3z" class="cls-25"/><path d="m200.4 11.1-.5.4.2.1h.1l.5-.3z" class="cls-26"/><path d="m200.6 12 .5-.4-.4-.3-.5.4z" class="cls-21"/><path d="m201.6 12.8.5-.3-1-1-.5.4z" class="cls-15"/><path d="m201.8 13 .4-.3-.1-.2-.5.3z" class="cls-19"/><path d="m201.8 13.2.5-.3-.1-.2-.4.3z" class="cls-6"/><path d="m201.8 13.2-.1.4.7-.4v-.3z" class="cls-9"/><path d="m201.5 14.7.8-.7q-.2-.1.1-.7V13l-.7.5q-.3.8-.2 1z" style="fill:#994822"/><path d="m201.7 14.7.8-.7h-.2l-.8.7z" class="cls-26"/><path d="M202.6 14.6h.4l.6-.5-1-.1-1 .7z" class="cls-15"/><path d="m205.2 16 .5-.4-.6-.3-.5.4z" class="cls-23"/><path d="m205.5 16.2.6-.3-.4-.3-.5.4z" class="cls-12"/><path d="m205.7 16.4.5-.2-.2-.3-.5.3z" class="cls-6"/><path d="m205.7 17.3.5-.4v-.8l-.5.3z" class="cls-7"/><path d="m205.4 18.3.7-.4.2-1-.6.4z" class="cls-9"/><path d="m205.7 18.4.6-.4h-.2l-.7.3z" class="cls-12"/><path d="m206.3 18.8.6-.4-.6-.4-.6.4z" class="cls-15"/><path d="m208.1 20.1-.4.5.3.2.4-.4z" class="cls-12"/><path d="m208.6 20.8-.2-.5-.4.5.2.4Z" class="cls-6"/><path d="m208.4 21.7.2.2.4-.5-.4-.7-.4.5z" class="cls-28"/><path d="m209 21.4-.4.5.4.2.4-.5z" class="cls-12"/><path d="m209.3 21.6-.3.5v.1l.5-.5z" class="cls-29"/><path d="m209 23.1.6.2a2 2 0 0 0-.1-1.5l-.5.4q.3.6 0 1" class="cls-9"/><path d="m209 23.2-1.1.5.6.3.8-.4.3-.3z" class="cls-30"/><path d="m208.6 24-.7-.3-.4.2.7.2Z" class="cls-31"/><path d="m207.5 23.9-.3.4h.8l.2-.2Z" class="cls-32"/><path d="M208 24.3h-.8v.3l.6-.1z" class="cls-31"/><path d="M207.8 24.5h-.7l.2.3.7-.3z" style="fill:#ba6019"/><path d="m207.5 25 .7-.4h-.3l-.6.2z" class="cls-9"/><path d="M207.8 25.1h.2l.7-.5h-.5l-.7.4z" class="cls-28"/><path d="m208.9 25.2.7-.4-.9-.2-.8.5z" class="cls-29"/><path d="m209.6 25.4.2.2.5-.4-.5-.4h-.3l-.7.4z" class="cls-22"/><path d="m210 25.9.5-.4-.2-.3-.5.3z" style="fill:#d89050"/><path d="m210.4 26.9-.1.2.5.3.1-.4a3 3 0 0 0-.4-1.5l-.5.3z" class="cls-13"/><path d="m210.8 27.4-.5-.3c-.2.3-1 .4-1.6.4l.2.6q1.3 0 2-.7" class="cls-7"/><path d="M207.8 27.4h-.2l.2.7h1.1l-.2-.6z" class="cls-32"/><path d="m207 28 .3.7.5-.6-.2-.6z" class="cls-7"/><path d="m207.4 28.6-.3-.7-.1.3.2.5z" class="cls-35"/><path d="M205.4 28.3c-1.7 0-2.1-.7-2.1-.7l-.2.7h.1a4 4 0 0 0 2.2.6l1.8-.2-.2-.6z" class="cls-32"/><path d="m202.4 28-.2 1 .7-.5q0-.3.2-.2l.2-.7a1 1 0 0 0-.9.4" class="cls-30"/><path d="m201.7 28.5-.1.7.6-.2.3-1z" class="cls-35"/><path d="m200.9 27.8-.4.6a1 1 0 0 0 1.1.8l.2-.7c-.4.1-1-.7-1-.7" class="cls-32"/><path d="m197.4 27.6-.3.5a5 5 0 0 0 2 .3l.2-.6z" class="cls-35"/><path d="M195.7 25.5h-.4v.6l.3.1c.3.3 1.2 1.8 1.5 1.9l.4-.5c-.5-.3-1.5-2-1.8-2" class="cls-32"/><path d="m195.3 25.5-.5.1.3.6h.3Z" class="cls-35"/><path d="m194.5 26 .5.5.2-.3-.3-.6z" class="cls-32"/><path d="m199.3 27.8-.2.6h1.4l.4-.6z" class="cls-30"/><path d="m194.4 26.8.7.4v-.7l-.5-.6z" class="cls-36"/><path d="m194.8 29.9.6-.2-.3-2.5-.7-.4z" class="cls-9"/><path d="m195.4 29.7-.6.2.2.3.6-.3z" class="cls-37"/><path d="m195.5 29.9-.5.3.7.6.4-.5z" class="cls-12"/><path d="m196.7 31.2.3-.6q-.5 0-.9-.4l-.4.5z" style="fill:#ffc278"/><path d="m197.4 31.5.3-.5-.8-.4-.3.6q.5 0 .8.3" style="fill:#ea913e"/><path d="m197.8 31.6.3-.4-.4-.3-.3.6z" style="fill:#c57231"/><path d="m197.8 32 .6.6-.1-1-.2-.4-.4.4Z" class="cls-36"/><path d="m197 31.9.5.6h.9l-.6-.5zm-1.2 1.4.4.6q.2-.2.1-.7l-.5-.2Z" class="cls-35"/><path d="m196 32.4 1.5.1-.5-.6c-.9 0-2-.1-2 .1z" style="fill:#642813"/><path d="m196 32.4-1-.4v.2l.8.8.5.2v-.3z" class="cls-30"/><path d="M195.5 33.2v.6q.7.3.8.1l-.5-.6Z" class="cls-32"/><path d="m192.5 32.3-.2.7a9 9 0 0 1 3 .7l.3.1v-.6a10 10 0 0 0-3.2-.9" class="cls-35"/><path d="m188.5 33.2-.3.7a8 8 0 0 1 4.1-1l.2-.5a8 8 0 0 0-4 .8" class="cls-32"/><path d="m188.2 33.3-.4.7h.4l.3-.9Z" class="cls-42"/><path d="m187.8 34 .5-.7v-.4h-.6z" class="cls-32"/><path d="M188 32.4c.2 0-.3.3-.3.5h.5l.9-.9Z" class="cls-36"/><path d="m188.5 31.8-.7.6h.3l1-.4z" class="cls-42"/><path d="m186.7 31.9-.5.4c0 .2 1 0 1.6 0l.7-.5z" class="cls-32"/><path d="m186.9 31.4-.3-.4-.5 1.2v.1l.7-.4Z" class="cls-36"/><path d="m188 31.2-.5-.5-.9.3.3.5z" class="cls-13"/><path d="m188.6 31-.4-.5-.7.2.4.5z" class="cls-43"/><path d="m189.2 30.5-.5-.4-.6.4.5.5z" class="cls-37"/><path d="m189.4 30.1.3-3.2-.6.2-.3 2.8-.1.2.5.5z" style="fill:#76310a"/><path d="m189.4 25.8-.5.3.2 1 .6-.2z" class="cls-30"/><path d="m188.4 25.3-1.4.7.7.5c-.1-.3.7-.7.9-.7l.3.3.5-.3a1 1 0 0 0-1-.5" class="cls-32"/><path d="M187 26v.8l.8.5-.2-.9z" class="cls-30"/><path d="M187.1 27.3v.1l.4.5.3-.6-.7-.5z" class="cls-35"/><path d="m186.7 27.6.2.5.6-.2-.4-.5z" class="cls-36"/><path d="m184.7 27.6.1.6h2.1l-.2-.6z" class="cls-32"/><path d="m183.7 28.1.2.7.8-.6h.2l-.2-.6z" style="fill:#994b17"/><path d="m183.7 28.1-.7.6.2.5.7-.4Z" class="cls-35"/><path d="M182 28.7c-.3 0-.6-.5-1-.6v.6l.1.1.8.5h1.3l-.2-.6z" class="cls-32"/><path d="m180.8 28.1-.6.4.1.7.5-.4h.2V28z" style="fill:#a35622"/><path d="m180.2 28.5-.3.2v.6l.4-.1Z" class="cls-35"/><path d="m178.2 28.1-.6.3.4.3 2 .6v-.6z" class="cls-32"/><path d="m178.2 27.3-.6.5v.6l.5-.3z" style="fill:#af6638"/><path d="m178.3 26.9-.8.6v.3l.7-.5z" class="cls-35"/><path d="M177.3 26.9v.7h.2v-.1l.8-.6z" class="cls-32"/><path d="m177.2 27-.6.4.3.6.5-.4v-.7z" class="cls-48"/><path d="M176.4 27.5a5 5 0 0 1-2.4 0l-.6.4q.5.6 3.1.2l.4-.1-.3-.6z" class="cls-32"/><path d="m174.1 26.3-.5-.2-.2 1.8.6-.3z" class="cls-48"/><path d="m174.2 26 .2-.1-.5-.4-.2.3-.1.3.5.2z" class="cls-49"/><path d="m175.4 24.6-.8.1q-.1.3-.7.8l.5.4q1-.7 1-1.3" style="fill:#d27c3c"/><path d="m175.4 24.6-.4-.5h-.8l.4.6z" class="cls-51"/><path d="M174.6 23.7h-.6l.2.5h.8q-.4-.3-.4-.6" class="cls-8"/><path d="m174.8 23.4-.6-.2-.2.3v.2h.6z" class="cls-6"/><path d="m175 23-.2-.6-.7.9.6.1z" class="cls-25"/><path d="M175.5 23v-.6h-.6l.2.6z" class="cls-9"/><path d="m175.4 22.4.1.6h.4l-.1-.7z" class="cls-6"/><path d="M175.8 22.3v.8l.2-.1Z" class="cls-25"/><path d="m176.3 22.7-.2-.7-.3.3.2.7z" class="cls-49"/><path d="m176.1 22 .2.7.2-.3-.2-.6z" class="cls-6"/><path d="M176.5 22.4v-.7h-.2l-.1.1z" class="cls-25"/><path d="M177.2 22.3v-.6h-.7v.7z" class="cls-9"/><path d="M177.2 21.7v.6h.1l.2-.6Z" class="cls-25"/><path d="m177.5 21.7-.2.6h.1l.3-.5z" class="cls-19"/><path d="m177.6 22.6.3-.7-.2-.2-.3.6z" class="cls-49"/><path d="m177.8 23 .3-.8-.2-.3-.3.7z" class="cls-25"/><path d="m178 23 .2-.6-.1-.2-.3.7z" class="cls-49"/><path d="m178.6 23-.2-.6h-.2l-.2.7z" class="cls-48"/><path d="m178.7 22.9.1-.2-.4-.4v.1l.2.6z" class="cls-49"/><path d="m178.9 22.4-.5-.4v.3l.4.5z" class="cls-6"/><path d="m179 21.6-.6.1v.4l.5.3z" class="cls-52"/><path d="m178.6 21.2-.6.2.4.4.6-.2z" class="cls-51"/><path d="m178.2 21-.6.1.4.3.7-.2z" style="fill:#9a4921"/><path d="m177.8 20.6-.5.1.3.5.6-.3z" class="cls-9"/><path d="M177.3 20.5v.3l.5-.2v-.2Z" style="fill:#96441e"/><path d="M177.9 20.3h-.6v.2h.5z" class="cls-9"/><path d="m178.3 19.2-.5-.3-.5 1.4h.6z" class="cls-49"/><path d="m177.8 19 .4.2.2-.1-.5-.3z" class="cls-43"/><path d="m178.5 19-.5-.3-.1.1.4.3Z" class="cls-6"/><path d="m179 18.8-.5-.3-.5.2.5.4z" style="fill:#a04e14"/><path d="m178.6 18.3-.1.2.5.3.3-.3Z" class="cls-43"/><path d="m179.2 18.5-.1-.8-.6-.1.1.7z" class="cls-49"/><path d="m179 16.8-.6-.1.1 1h.6z" class="cls-6"/><path d="m179 16.5-.5-.4-.2.6.6.1z" style="fill:#aa5a28"/><path d="m180 15.9-.3-.7-1 .9.4.3z" class="cls-57"/><path d="M180 15.8h.2V15h-.3l-.2.2.2.6Z" class="cls-48"/><path d="M180.6 15.8v-.6l-.4-.1v.6z" class="cls-58"/><path d="M180.6 15.2v.6a1 1 0 0 0 1 .2l-.2-.6z" class="cls-12"/><path d="m182 15.8-.5-.5v.1l.1.6z" class="cls-52"/><path d="M181.5 14.7v.7l.5.4v-.6Z" class="cls-57"/><path d="m182 14.9-.4-.5v.3l.4.5z" class="cls-9"/><path d="m182.1 14.3-.4-.5-.1.6.5.5z" class="cls-6"/><path d="m182.2 14.2.2-.2-.4-.4-.2.2z" style="fill:#aa5e33"/><path d="m182.9 13.8-.2-.6-.7.4.4.5z" class="cls-57"/><path d="M183 13.7h.2l-.2-.7-.3.2.2.6Z" class="cls-9"/><path d="m183.3 13.7-.2-.7h-.1z" class="cls-58"/><path d="m183.7 13.8-.2-.6-.4-.2.2.7z" class="cls-12"/><path d="m184 13.9-.2-.7h-.3l.2.6z" style="fill:#e5872b"/><path d="m184.2 13.6-.3-.5-.1.1.2.7z" class="cls-9"/><path d="m184.6 13-.6-.1v.2l.2.6z" class="cls-57"/><path d="M184.6 12.9v-.2l-.6-.2v.4l.6.1z" style="fill:#b96534"/><path d="m184.4 12-.6-.1.2.7h.6z" class="cls-9"/><path d="m184.3 11.2-.6-.1v.1l.1.7.6.1q-.2-.6-.1-.8" class="cls-62"/><path d="m184.6 10.5-.3-.5-.6 1.1.6.1z" class="cls-6"/><path d="m184.8 10.3-.3-.6-.2.2-.1.2.3.5z" class="cls-13"/><path d="m185.3 10-.3-.5-.4.1.3.6z" class="cls-57"/><path d="m185 9.5.2.6q.7 0 1.1-.3l-.2-.7q-.4.4-1.1.4" class="cls-63"/><path d="m186.6 9.4-.2-.7-.3.4.2.7z" class="cls-9"/><path d="m187.2 9-.1-.7-.8.4.3.7q0-.3.6-.5" class="cls-6"/><path d="m188 8.7-.2-.5-.7.1V9z" class="cls-19"/><path d="m188.7 8.3-.1-.6-.8.5.1.5z" class="cls-13"/><path d="m189.4 7.9-.1-.6-.3.1-.4.4.1.5z" class="cls-25"/><path d="m189.5 7.9 1-.1v-.5h-1.2v.6z" class="cls-19"/><path d="M191.4 8v-.6l-1-.1v.5z" class="cls-21"/><path d="M191.9 8v-.5h-.5v.4z" class="cls-19"/><path d="M192.3 7.9v-.6l-.4.2V8z" class="cls-16"/><path d="M191 19.5c-.2.1-.3.8-.7 1-.4.3-1 0-1.3.1a.3.3 0 0 0 0 .6l2.6 1.3.2-.2.4-2.7c-.1-.4-1.2-.3-1.3-.1" style="fill:url(#Ny_övertoningsruta_3-2)"/><path d="m193.8 20-.3 2.7 2.4-1.9v-.2l-.6-.8z" style="fill:url(#Ny_övertoningsruta_3-3)"/><path d="M194.4 24.1c0 .2 1 .4 1.8 0 .2 0 .5-.8 1-1s1.3.3 1.6 0c.2-.2.2-.8-.2-.8L197 22c-.1 0-2.4 1.2-2.5 2.1" style="fill:url(#Ny_övertoningsruta_3-4)"/><path d="M187.7 22.4s-.3.6-.5.7l-.4.1-.7-.1-.4-.2q-.5 0-.6.6c-.3.7 1 1 1.2 1a2 2 0 0 0 1.4-.3l1-.3 1 .2.3-.2v-.4l-1.7-1z" style="fill:url(#Ny_övertoningsruta_3-5)"/><path d="m204.3 23.9.1.5h.6q.1-.4-.4-.7z" style="fill:url(#Ny_övertoningsruta_3-6)"/><path d="M176.3 25.1v.7c.3.2.9-.3 1-.4l.1-.3q0-.4-.2-.3z" style="fill:url(#Ny_övertoningsruta_3-7)"/><path d="M205.6 22a.3.3 0 0 0-.3.4q0 .4.6.3c.6 0 .6.3.9.3.6 0 .4-.5.5-.8 0-.2-1-.3-1.7-.2" style="fill:url(#Ny_övertoningsruta_3-8)"/><path d="M202.2 16.4a.4.4 0 0 0-.3.5l.8.2.7 1 .7.2-.3-1.2-1-.6z" style="fill:url(#Ny_övertoningsruta_3-9)"/><path d="M204.2 20.4a.4.4 0 0 0-.2.5l.9.2.1-.3c0-.2-.3-.8-.5-.8z" style="fill:url(#Ny_övertoningsruta_3-10)"/><path d="m181.6 20.7-.7.8-.1.4.3-.1c.3-.5.7-.3.8-.4q.5-.7.4-.9z" style="fill:url(#Ny_övertoningsruta_3-11)"/><path d="M199.9 14.2a1 1 0 0 0 0 1.2l.5-.1a1 1 0 0 0-.2-1q-.1-.2-.3-.1" style="fill:url(#Ny_övertoningsruta_3-12)"/><path d="M201.1 18.8q-.5.2-.5.5 0 .4.7.1l.5.4.6.1.3-.3-.5-.4-.1-.6c0-.2-.8.1-1 .2" style="fill:url(#Ny_övertoningsruta_3-13)"/><path d="m196 16.7.3.3.4-.2c.4 0 1 .5 1.3.4l.2-.5-.8-.3-.8-.2q-.6.3-.7.5" style="fill:url(#Ny_övertoningsruta_3-14)"/><path d="m197 13.7.5.6.4.6s.4.2.4 0l-.2-.6v-.8l-.7-.1q-.3 0-.4.3" style="fill:url(#Ny_övertoningsruta_3-15)"/><path d="M192.5 11.5q.1.4.4.5.3-.2.8-.2a.5.5 0 0 0 .5-.6l-.4-.1h-.6q-.4-.4-.7.4" style="fill:url(#Ny_övertoningsruta_3-16)"/><path d="M197.2 11.4q0 .3.2.1l.5-.2c.3 0 .7 1 .8 1q.2-.2.1-.6l-.4-.7-.8-.5c-.2 0-.5.7-.4 1" style="fill:url(#Ny_övertoningsruta_3-17)"/><path d="m193.9 13.3-.8.6q-.3.5 0 .7c.3.2.3-.3 1-.6l1.2-.1.3-.3-.8-.5a1 1 0 0 0-1 .2" style="fill:url(#Ny_övertoningsruta_3-18)"/><path d="M193.1 9.1a.6.6 0 0 0 .6.7.4.4 0 0 0 .4-.6c0-.2-.9-.4-1 0" style="fill:url(#Ny_övertoningsruta_3-19)"/><path d="M189.9 9.4v.5l.7-.1.6.3q.4 0 .3-.7l-.3-.1-.2-.3q-.8-.1-1.1.4" style="fill:url(#Ny_övertoningsruta_3-20)"/><path d="M188.8 15.8q-.5.3-.5.8h.7a1 1 0 0 0 .6-.8q-.2-.3-.8 0" style="fill:url(#Ny_övertoningsruta_3-21)"/><path d="M199 18.1q-.4.8-.1.8c.3 0 .3 0 .9-.7l.4-.2.2-.4-.7-.3c-.2 0-.8.7-.8.8" style="fill:url(#Ny_övertoningsruta_3-22)"/><path d="M190.7 13.2c-.4.6-.4 1.3-.1 1.3l.2-.3.1-.4.3-.1s.2-.5 0-.6-.3 0-.5.1" style="fill:url(#Ny_övertoningsruta_3-23)"/><path d="m182.8 18-.2.5q0 .3.5.3l1-.6q.2-.3 0-.4l-.5-.1z" style="fill:url(#Ny_övertoningsruta_3-24)"/><path d="m187 11-.6.2a1 1 0 0 0-.6.7l.4 1.5h.3c.1-.1-.1-1.2.1-1.5.2-.2 1.3-.5 1.4-.7v-.7c-.3 0-.8.5-1 .6" style="fill:url(#Ny_övertoningsruta_3-25)"/><path d="m180.7 17-.5.3-.1.5q0 .2.3 0l.6-.2V17z" style="fill:url(#Ny_övertoningsruta_3-26)"/><path d="M185.2 20.7s.5.4.3.6l-.5.1-.7.4-.7.5-.2-.1v-.4q0-.3.2-.4l.7-.3c.4-.1.4-.4.9-.4" style="fill:url(#Ny_övertoningsruta_3-27)"/><path d="m183.3 15.7-.2.4q.1.5.5.3.5-.7.4-1c-.1-.3-.6.2-.7.3" style="fill:url(#Ny_övertoningsruta_3-28)"/><path d="M186.3 15a2 2 0 0 0-1.2.9l.2.3c.2 0 .6-.5.8-.6l.8.1q.4.2.5 0 0-.4-.2-.6z" style="fill:url(#Ny_övertoningsruta_3-29)"/><path d="M179.4 26.7q0 .4.7.5.7-.2.5-.4l-.8-.5q-.1-.1-.4.4" style="fill:url(#Ny_övertoningsruta_3-30)"/><path d="m179 24 .1.3.2.1.5-.2.4-.2v-.2l-.4-.4z" style="fill:url(#Ny_övertoningsruta_3-31)"/><path d="m180.6 19-.7.2-.3.7.2.3.4-.2.5-.4.5-.1V19z" style="fill:url(#Ny_övertoningsruta_3-32)"/><path d="M183 26.3q0 .4.2.4l.5-.1h.4v-.4h-.5l-.4-.3q-.2.1-.3.4" style="fill:url(#Ny_övertoningsruta_3-33)"/><path d="M197.7 25.8a1 1 0 0 0 1 .3q.2-.2.1-.5a1 1 0 0 0-1-.1z" style="fill:url(#Ny_övertoningsruta_3-34)"/><path d="M181.3 24.9q-.5 0-.5.4 0 .3.4.2.7 0 .7-.4-.2-.5-.6-.2" style="fill:url(#Ny_övertoningsruta_3-35)"/><path d="M200.4 26.3c.1.3.5 0 1 .2.1 0 .3.4.6.3l.2-.7q-.2-.4-.6-.3l-1 .3z" style="fill:url(#Ny_övertoningsruta_3-36)"/><path d="M200.9 23.7c0 .1.7 0 1 .2q.6.4.7.2l-.2-.7-.7-.2c-.8 0-.8.4-.8.5" style="fill:url(#Ny_övertoningsruta_3-37)"/><path d="m205.6 25.8-.7.4-.6-.2q-.5.2-.5.5a2 2 0 0 0 1.2.4l.4-.2.5-.4V26z" style="fill:url(#Ny_övertoningsruta_3-38)"/><path d="M207.8 26.2a.4.4 0 0 0 .2.5c.1 0 .7 0 .7-.2q0-.3-.2-.5-.4-.2-.7.2" style="fill:url(#Ny_övertoningsruta_3-39)"/><path d="m195 23.3-.1-.1-.6.8h.2z" class="cls-8"/><path d="M194.3 24v.2l.2.2.1-.2h-.1V24Z" class="cls-62"/><path d="M195.3 24.3h-.7l.7.2 1-.2v-.1zm-9.1-11-.1.2h.5l-.1-.1z" class="cls-12"/><path d="M186.5 12.6v.8h.1v-.7l.1-.7v-.1q-.3.2-.2.7" class="cls-18"/><path d="m207.8 26.5.2.3z" class="cls-19"/><path d="m197.7 10.6.6.3v-.2l-.6-.3-.5.4h.2zM180.6 17h.3v-.2zl-.2.2z" class="cls-35"/><path d="M195.5 13.7v.2l.2-.1Z" class="cls-62"/><path d="M186 24.4v.2l.3.1v-.1z" class="cls-19"/><path d="M188.2 11.3V11h-.2v.2z" class="cls-12"/><path d="M191.3 13.3v.2h.1v-.3Z" class="cls-6"/><path d="m190.8 14.1-.2.4v.2q.3-.1.4-.5v-.5zm14.2 7V21h-.1z" class="cls-19"/><path d="M193.8 9q-.3-.2-.8.1l.1.1q.3-.2.7 0" class="cls-35"/><path d="m194 9.2.1.2h.2v-.2l-.4-.3V9z" class="cls-8"/><path d="M193.4 9.7v.2q.8.3.9-.5h-.2q0 .5-.7.3" class="cls-12"/><path d="M193.1 9.4h-.2l.4.5.1-.2z" class="cls-6"/><path d="M193.1 9.1v.3h.1zm-2.1 0 .4.3v.3h.2l-.1-.5-.3-.2z" class="cls-8"/><path d="M191 9h-1l.1.1z" class="cls-35"/><path d="M191.5 9.7v.3l-.3.1-.3-.2-.4-.2v.2l.3.1.3.3.4-.2.2-.4Z" class="cls-12"/><path d="M190.2 9.8v.2l.3-.1v-.2z" class="cls-19"/><path d="M190 10h.3l-.1-.2z" class="cls-12"/><path d="M189.7 9.5q0 .4.2.6v-.5Z" class="cls-6"/><path d="m190 9.2-.3.4h.2z" class="cls-8"/><path d="M193.2 11h.7l.1.1.1-.1zl-.8.1h.1a.4.4 0 0 1 .6 0" class="cls-35"/><path d="M194.2 11.2v.2h.2v-.1q0-.2-.3-.3v.1z" class="cls-8"/><path d="m193.5 12 .4-.1.5-.5h-.2q0 .4-.3.3h-.4l-.6.3h-.3l.3.2z" class="cls-12"/><path d="M192.5 11.5h-.2l.3.5h.2z" class="cls-6"/><path d="m192.6 11.2-.2.4h.2zm5.8-.2.4.7v.1h.2v-.1l-.5-.9h-.2z" class="cls-8"/><path d="M198.8 11.8v.7l.2-.6Z" class="cls-6"/><path d="m198.7 12.3-.3-.4q-.2-.5-.5-.6v.2q.3 0 .5.6t.4.4Z" class="cls-21"/><path d="m197.8 11.3-.5.2v.2l.5-.2h.1z" class="cls-18"/><path d="M197.3 11.7v-.9l-.2.7z" class="cls-8"/><path d="m197.3 13.2-.2.2h.8z" class="cls-35"/><path d="m198.3 14.3-.1-.8-.3-.2v.2h.1q.1.4 0 .8l.2.4v.2h.2v-.3z" class="cls-8"/><path d="M198 15h-.2l.5.2.1-.3h-.5" class="cls-12"/><path d="m197.7 14.5-.4-.5v.2zl.2.5.1-.2z" class="cls-18"/><path d="m197.1 13.8.2.3.1-.2z" class="cls-6"/><path d="m197 13.7.2-.2-.1-.1zv.2l.2-.1z" class="cls-63"/><path d="m200 14.2.2-.1a.4.4 0 0 0-.5-.2l-.1.3.1.1z" class="cls-35"/><path d="M200.4 15h.2l-.4-.8v.1z" class="cls-8"/><path d="M200.3 15.3h-.4v.2h.5l.2-.5h-.2z" class="cls-12"/><path d="m199.9 15.5-.1-.8v-.2h-.1v.2q0 .6.2.9" class="cls-63"/><path d="m194.5 13-.7.1-.3.4h-.2l.1.2h.2l.3-.4zl.7.2v-.1z" class="cls-35"/><path d="M195.8 13.6q-.1-.3-.5-.4l-.1.1.4.3z" class="cls-8"/><path d="M195.7 13.7v.2zm-.4.1-1.1.1h-.1v.2h.1l1-.1h.2z" class="cls-12"/><path d="m193.4 14.4-.3.1-.1.2h.1zl.6-.4z" class="cls-19"/><path d="m192.8 14.2.2.5v-.5Z" class="cls-6"/><path d="M193.4 13.7q-.5.3-.5.6h.2q-.1-.1.4-.5" class="cls-8"/><path d="M190.8 13.1h.3v-.2zl-.2.3h.1z" class="cls-35"/><path d="m191.2 12.9-.1.2.2.2.1-.1z" class="cls-8"/><path d="M191.4 13.5h-.2v.3z" class="cls-12"/><path d="m191.2 13.6-.1.2h.1Z" class="cls-6"/><path d="m191 13.8.1-.2z" class="cls-62"/><path d="M190.4 14.6v-.3h-.3z" class="cls-6"/><path d="m190.6 13.4-.3 1h.2z" class="cls-8"/><path d="M188 10.4c-.4 0-.8.5-1 .6h-.6l-.5.5h.1l.4-.3h.6q.4-.4 1-.6z" class="cls-35"/><path d="M188 10.4v.6h.2q0-.4-.2-.6" class="cls-8"/><path d="m188.1 11.4-.8.3.1.1z" class="cls-19"/><path d="m186.6 11.9.6-.3v-.1z" class="cls-12"/><path d="m186.1 13-.1-.3-.2-.8h-.1l.2.9v.3l.2.4.1-.2z" class="cls-6"/><path d="m185.9 11.9.1-.4h-.1l-.2.3z" class="cls-8"/><path d="m189.3 15.6-.9.4.1.1z" class="cls-35"/><path d="M189.6 15.8v.2l.1.1zl-.2-.2-.1.1z" class="cls-8"/><path d="m189.7 16.1-.6.5v.2a1 1 0 0 0 .7-.7" class="cls-102"/><path d="M189 16.6h-.7l-.1.2h.9z" class="cls-12"/><path d="M188.2 16.8v-.2l.1-.3h-.1z" class="cls-6"/><path d="m188.6 16-.3.4h.1z" class="cls-8"/><path d="M185.4 15.3a2 2 0 0 1 1.5-.4 2 2 0 0 0-1.5.4" class="cls-35"/><path d="m187.2 15-.2-.1v.1zl.2.2h.2z" class="cls-8"/><path d="M187.3 15.3v.3h.2v-.3Z" class="cls-6"/><path d="M187.5 15.6h-.2v.3z" class="cls-102"/><path d="m187.3 15.8-.9-.3v.2l.9.3Z" class="cls-12"/><path d="M186 15.6v.2h.4v-.3z" class="cls-102"/><path d="m186 15.6-.3.3-.4.3v.2q.3 0 .5-.3l.3-.3Z" class="cls-6"/><path d="m185.3 16.1-.1.2h.1z" class="cls-12"/><path d="M185.2 16.3V16h-.2z" class="cls-18"/><path d="M185 16v.1h.2V16l.3-.6h-.1z" class="cls-8"/><path d="m183.9 15.5.1-.2h-.1l-.8.4.2.1z" class="cls-35"/><path d="M184 15.3v.4h.2a.3.3 0 0 0-.2-.4" class="cls-8"/><path d="m184 15.7-.2.3.2.1z" class="cls-6"/><path d="m183.6 16.3-.2.1h-.2l.2.2.3-.1.3-.4h-.2z" class="cls-12"/><path d="M183.2 16.1h-.2l.2.4V16" class="cls-6"/><path d="m183.1 16.1.2-.3-.2-.1zm-2.1.7-.1.2.2.2h.1z" class="cls-8"/><path d="M181 17.2v.2h.2v-.3Z" class="cls-6"/><path d="M181 17.5h-.2l-.3.2-.3.2h-.1q.1.3.5 0l.2-.2.4-.1v-.2h-.2z" class="cls-12"/><path d="m180 18 .2-.1-.1-.3h-.2z" class="cls-6"/><path d="m180.4 17.2-.1-.1h-.1l-.3.5h.2l.2-.3z" class="cls-8"/><path d="M180.8 19.1v-.2a1 1 0 0 0-1.2.5h.1a1 1 0 0 1 1-.3" class="cls-35"/><path d="M181.2 19.2v.2l.1.1V19h-.5v.1z" class="cls-8"/><path d="m181.2 19.4-.3.2-.5.1v.1h.5l.4-.3Z" class="cls-12"/><path d="m180.2 20-.1.1v.2l.3-.3v-.2z" class="cls-6"/><path d="M180 20.1v.2h.3Z" class="cls-62"/><path d="m179.8 20.1-.2.1h.1l.2.1z" class="cls-12"/><path d="M179.7 20v-.2h-.3l.1.3.1.1z" class="cls-6"/><path d="m179.7 19.5-.1-.1-.2.4h.2z" class="cls-8"/><path d="M182.1 20.5v-.1a1 1 0 0 0-1.2.7l.2.1a1 1 0 0 1 1-.7" class="cls-35"/><path d="m182.4 20.5-.2-.1v.4h.2z" class="cls-8"/><path d="m182.3 20.8-.2.3h.2z" class="cls-6"/><path d="m182.1 21.1-.2.3v.1l.4-.3Z" class="cls-62"/><path d="m181.9 21.4-.6.1-.3.3-.2.1v.2l.3-.1.3-.3.6-.2Z" class="cls-19"/><path d="m180.8 21.9-.1.1h.1z" class="cls-12"/><path d="M181 21.2q-.2 0-.3.3h.2z" class="cls-8"/><path d="m180.6 22 .2-.1v-.3q-.2.1-.2.4" class="cls-6"/><path d="m179.7 23.4.3.1q0-.2-.3-.2l-.4.2v.1z" class="cls-35"/><path d="M180 23.4v.1l.2.2h.2z" class="cls-8"/><path d="M180.4 23.7h-.2v.2l.1.2z" class="cls-6"/><path d="M180.2 24h-.2l-.4.3-.2.1v.2l.3-.1.4-.3.2-.2Z" class="cls-19"/><path d="M179.2 24.3v.2h.2v-.1z" class="cls-12"/><path d="M179 24.4h.2v-.1l-.1-.2h-.2z" class="cls-6"/><path d="m179.1 24 .3-.4h-.1l-.3.2v.3h.1z" class="cls-8"/><path d="m184.7 20.9.4-.2.2.1h.1l-.1-.2h-.2l-.6.2-.3.2.2.1z" class="cls-35"/><path d="m185.3 20.8.2.4.1.1q.1-.3-.2-.6Z" class="cls-8"/><path d="M185.6 21.3h-.3l.1.2h.2z" class="cls-19"/><path d="M184.7 21.5v.2l.7-.2v-.2z" class="cls-62"/><path d="M184.7 21.7v-.2l-.6.5-.5.2v.2l.6-.3z" class="cls-19"/><path d="m183.5 22.2-.1.1h.2z" class="cls-12"/><path d="M183.4 22.3v-.1q-.2 0 0-.7-.4.6 0 .8" class="cls-6"/><path d="m183.6 21.4.8-.2-.2-.2-.6.2-.3.2.1.1z" class="cls-8"/><path d="M181.7 24.8v-.1l-.9.2.2.1z" class="cls-35"/><path d="M181.7 24.7v.1l.2.2h.1z" class="cls-8"/><path d="M181.9 25v.3z" class="cls-6"/><path d="M180.8 25.4v.2a1 1 0 0 0 1.2-.3h-.2c-.2.3-.8.2-1 .1" class="cls-12"/><path d="m180.6 25.3.2.3v-.3Z" class="cls-6"/><path d="m180.8 25.2.2-.2-.1-.1z" class="cls-8"/><path d="m176.4 25.1.8-.3.2-.1h-.2l-1 .3v.2z" class="cls-35"/><path d="m177.4 24.7-.1.1v.5h.2v-.2z" class="cls-8"/><path d="m177.5 25.4-.2-.1-.2.2v.2z" class="cls-12"/><path d="M176.6 25.8v.2l.6-.3-.1-.2z" class="cls-62"/><path d="M176.6 25.8v.2h.1Z" class="cls-19"/><path d="m176.4 25.8-.1.1h.2z" class="cls-12"/><path d="m176.1 25.6.1.3.2-.1v-.3Z" class="cls-6"/><path d="m176.3 25.3-.1-.1v.4h.1z" class="cls-8"/><path d="M180.1 26.6v-.2l-.2-.2-.5.2.1.1.3-.2z" class="cls-35"/><path d="m180.6 26.7-.4-.3v.2zh.2z" class="cls-8"/><path d="M180.6 26.9v.2l.2-.2Z" class="cls-6"/><path d="M180.5 27c0 .2-.5.1-.5.1v.2l.7-.2Z" class="cls-62"/><path d="m179.7 27-.1.2h.4z" class="cls-19"/><path d="M179.4 27.1h.2V27Z" class="cls-12"/><path d="M179.5 26.9v.2z" class="cls-19"/><path d="M179.5 26.8h-.2v.2z" class="cls-6"/><path d="m179.5 26.5-.1.3h.2z" class="cls-8"/><path d="m183.4 26-.2-.2-.3.2.1.1.2-.1zl.2.1V26z" class="cls-35"/><path d="M183.8 26v.1h.1l.3.3v.1h.1v-.2q0-.3-.4-.4" class="cls-8"/><path d="M184.2 26.6v.1z" class="cls-6"/><path d="M184 26.6h-.7v.2h.9Z" class="cls-19"/><path d="M183.1 26.6v.2h.2v-.1z" class="cls-12"/><path d="m183 26.6.1.2z" class="cls-19"/><path d="M183 26.4h-.2v.3l.2-.1z" class="cls-6"/><path d="M183 26.1v.4z" class="cls-8"/><path d="m183 18 .5-.3h.3v-.1h-.3l-.6.1-.3.2.2.1z" class="cls-35"/><path d="M183.9 17.6v.1l.3.1z" class="cls-8"/><path d="m184.3 17.7-.1.1v.2h.1z" class="cls-6"/><path d="m184.2 18-.2.2-.8.5v.1l.9-.5.2-.2Z" class="cls-19"/><path d="M183.1 18.7v.2h.2z" class="cls-12"/><path d="M182.8 18.7v.2h.3v-.2z" class="cls-19"/><path d="m182.7 18.7-.1.1h.2z" class="cls-12"/><path d="M182.6 18.5h-.2l.2.3z" class="cls-6"/><path d="m182.6 18.4.2-.4h-.2l-.2.4v.1z" class="cls-8"/><path d="m197.4 16.2-.8-.1-.3.1v.1h1.1l.4.2v-.2z" class="cls-35"/><path d="m198.3 16.7-.5-.4v.2l.3.3v.2h.2z" class="cls-8"/><path d="m198.1 17-.1.2h-.3l-1-.4v.2l1 .3h.3l.3-.2Z" class="cls-12"/><path d="m196.7 16.8-.4.1v.2l.4-.1z" class="cls-103"/><path d="m196.3 17-.2-.1z" class="cls-12"/><path d="m196 17 .1-.1-.1-.2h-.2q0 .2.2.3" class="cls-6"/><path d="m196 16.5.4-.2-.1-.1-.3.1-.2.4h.2z" class="cls-8"/><path d="m199.7 17.1-.4.4-.5.6-.2.5h.2l.1-.5.5-.5.3-.3.4.1.1-.1z" class="cls-35"/><path d="m200.5 17.5-.3-.2-.1.1.3.2v.1h.1z" class="cls-8"/><path d="m200.4 17.7-.2.3v.1l.3-.3Z" class="cls-12"/><path d="M200 18.2h.2V18h-.4z" class="cls-103"/><path d="m199.6 18.3-.5.6h-.2v.1h.3l.6-.6.1-.2v-.1z" class="cls-12"/><path d="m198.8 19 .1-.1-.1-.2h-.2z" class="cls-6"/><path d="M202 16.9a.3.3 0 0 1 .2-.4h.7l.5.4.2.2.1-.2h-.2l-.6-.5-.7-.1c-.5 0-.5.6-.3.7z" class="cls-35"/><path d="M204 17.7v.4h.3l-.2-.5-.2-.5-.2-.2v.2z" class="cls-8"/><path d="M204 18.1v.2l.1.2.2-.4Z" class="cls-63"/><path d="M203.8 18.3v.2h.3v-.2z" class="cls-62"/><path d="m203.4 18-.1.2.5.3v-.2z" class="cls-12"/><path d="m203.4 18-.4-.6-.3-.3v.1l.2.4.3.5v.1z" class="cls-62"/><path d="m202 16.9-.2.1.8.2h.1z" class="cls-12"/><path d="M202.2 18.9v-.3l-.2-.1-.9.1-.3.2.1.1.3-.1.8-.2v.1l.2.5.1-.1z" class="cls-35"/><path d="m202.3 19-.1.2.3.3.1-.1z" class="cls-8"/><path d="M202.6 19.3v.3l.2.2v-.3z" class="cls-63"/><path d="m202.8 19.8-.2-.1-.2.2v.2z" class="cls-62"/><path d="m202.4 20-.6-.3v.2z" class="cls-12"/><path d="m201.8 19.7-.2-.1-.2-.2v.2l.3.3z" class="cls-62"/><path d="M201.2 19.4h-.4l-.2-.1h-.1l.3.3h.5l.1-.2z" class="cls-12"/><path d="m200.6 19.3.3-.4h-.1l-.3.2v.3z" class="cls-8"/><path d="m204.3 20.3.2-.3.4.5h.1q0-.5-.5-.6-.2 0-.3.3l-.3.4h.1z" class="cls-35"/><path d="M205 20.4v.4h.2z" class="cls-8"/><path d="M205.1 20.7v.2h.1z" class="cls-6"/><path d="m205.1 21-.1-.1zm-.4 0h-.7l.7.3h.2V21z" class="cls-12"/><path d="m204 20.9.1.2z" class="cls-6"/><path d="M204 20.6v.3h.1z" class="cls-8"/><path d="M206.4 21.8h-.8l-.3.2h1.1l.6.1V22z" class="cls-35"/><path d="M207 22v.1l.2.1v.3h.2v-.3z" class="cls-8"/><path d="M207.2 22.5v.4l.2-.3Z" class="cls-6"/><path d="M207.2 23v-.1h-.4v.2z" class="cls-12"/><path d="m206.7 23-.2-.2-.1.1zl.2.1z" class="cls-19"/><path d="M206 22.7h-.6l.3.1h.2l.5.1v-.1z" class="cls-12"/><path d="m205.4 22.5-.1.1.1.2.1-.2z" class="cls-6"/><path d="m205.4 22-.1.6h.1z" class="cls-8"/><path d="m204.6 23.5-.4.3v.3h.2v-.2l.2-.2.2.2.1-.1z" class="cls-35"/><path d="m205 23.8-.2.1.1.2h.2z" class="cls-8"/><path d="M205 24v.2z" class="cls-6"/><path d="M204.9 24.3h-.4v.2h.5z" class="cls-12"/><path d="M204.4 24.4v.1z" class="cls-6"/><path d="M204.4 24.4V24h-.2z" class="cls-8"/><path d="M207.9 26v.1h.6l.2-.1q-.5-.2-.8 0" class="cls-35"/><path d="M208.7 26h-.2l.2.4h.2z" class="cls-8"/><path d="M208.9 26.6v-.2h-.2v.1z" class="cls-12"/><path d="M208.7 26.5h-.2v.3l.3-.2Z" class="cls-19"/><path d="m208 26.7.1.1h.5v-.2z" class="cls-12"/><path d="M207.6 26.3v.2h.2v-.2Z" class="cls-6"/><path d="m208 26.1-.1-.1-.3.3h.2z" class="cls-8"/><path d="M205.6 25.6q-.2 0-.5.3l-.2.1-.6-.1-.3.1v.1h.9c.3.1.5-.3.7-.3h.2z" class="cls-35"/><path d="m206 26-.1-.3-.1.2zv.2h.2z" class="cls-8"/><path d="M206 26.4v-.2z" class="cls-19"/><path d="m205.9 26.3-.3.2-.3.3.1.1.3-.3.3-.2Z" class="cls-6"/><path d="M204 26.6v.2l1.2.2z" class="cls-12"/><path d="M205.3 26.8v.2h.2Z" class="cls-19"/><path d="M203.9 26.5h-.2l.2.3.1-.2z" class="cls-6"/><path d="m204.1 26.1-.1-.1-.3.6h.2z" class="cls-8"/><path d="M201.7 23a1 1 0 0 0-.9.4h.2l.7-.2.5.1v-.1z" class="cls-35"/><path d="m202.4 23.3-.2-.1v.1l.1.1.3.4h.2z" class="cls-8"/><path d="M202.6 23.8v.2h.2v-.2Z" class="cls-6"/><path d="M202.8 24h-.2v.3z" class="cls-19"/><path d="M202.6 24.1h-.4l-.2-.2v.2l.1.1.4.1h.2Z" class="cls-12"/><path d="m201.8 23.9.1.1z" class="cls-103"/><path d="M201.3 23.8h-.2v.1h.2l.4.1v-.2z" class="cls-12"/><path d="M201 23.7h-.2l.2.2z" class="cls-6"/><path d="M201 23.7v-.2l-.2-.1v.4z" class="cls-8"/><path d="m201.2 25.8-.7.1-.2.2h.2l.7-.1.5-.2.4.1v-.1l-.4-.2z" class="cls-35"/><path d="m202.3 26-.1-.2h-.1v.5h.2z" class="cls-8"/><path d="M202.1 26.3v.5l.2-.5Z" class="cls-19"/><path d="M202 26.8v.2l.2-.2z" class="cls-6"/><path d="M202 26.8h-.2v.1h.2z" class="cls-12"/><path d="m201.6 26.6-.5-.2v.2h.3l.3.3.1-.1z" class="cls-19"/><path d="M200.7 26.4v.2h.4v-.2z" class="cls-12"/><path d="M200.6 26.4v.2z" class="cls-19"/><path d="m200.5 26.3-.1.2h.1z" class="cls-6"/><path d="M200.4 26.3v-.1l-.1-.1v.4z" class="cls-8"/><path d="m197.7 25.4-.1.2h.1a1 1 0 0 1 1 0v-.2a1 1 0 0 0-1 0" class="cls-35"/><path d="m198.8 25.4-.1.2h.1v.3h.2v-.3z" class="cls-8"/><path d="M198.8 26h-.7v.2h.8v-.3z" class="cls-12"/><path d="m197.8 25.8-.2.1.5.3V26z" class="cls-6"/><path d="M197.8 25.8v-.1h-.2v.2z" class="cls-8"/><path d="M196.9 21.8a7 7 0 0 0-2 1.4v.1l2-1.3 1.6.3v-.2z" class="cls-35"/><path d="M198.5 22.1v.2l.4.2h.1z" class="cls-8"/><path d="M198.9 22.5v.4h.1z" class="cls-6"/><path d="M198.9 23a.4.4 0 0 1-.5.2l-1-.1h-.4l.1.2h1.3l.5-.1z" class="cls-12"/><path d="M196.3 24.1v.2h.1c0-.1.5-.9.7-1v-.1c-.3.1-.7.8-.8 1" class="cls-19"/><path d="m195.3 19.6-1 .1-.6.1.1.2.5-.1 1-.1Z" class="cls-35"/><path d="M195.3 19.6v.2l.3.4.2-.1z" class="cls-8"/><path d="M196 20.6v.1h.1zl-.3-.5-.2.1z" class="cls-63"/><path d="M196.1 20.8h-.2l-1.7 1.3-.7.6-.1.3.9-.8 1.6-1.2z" class="cls-19"/><path d="m193.5 21.3-.1 1.7.1-.3.2-1.5Z" class="cls-25"/><path d="m193.8 20-.1-.2-.2 1.5.2-.1z" class="cls-8"/><path d="m191.6 19.2-.8.2h1.1l.1-.1z" class="cls-35"/><path d="M192 19.2v.2l.2.2h.2z" class="cls-8"/><path d="m192.2 19.6-.2 1.6h.1l.3-1.7Z" class="cls-62"/><path d="m192 21.2-.3 1.2h.2z" class="cls-19"/><path d="M191.6 22.5v.2l.3-.2-.1-.1z" class="cls-62"/><path d="m191.6 22.5-.3-.2v.2l.2.1h.1z" class="cls-19"/><path d="M189.1 21.2v.1l2.3 1.2v-.2z" class="cls-62"/><path d="M189 20.8v-.1l-.2-.1.2.7z" class="cls-8"/><path d="M189.9 20.5h-1.1l.2.2.2-.1h1.2l-.1-.2z" class="cls-35"/><path d="M190.3 20.4v.2l.6-1.1-.1-.1z" class="cls-8"/><path d="m188.4 22.4-.6-.2h-.1v.2h.1l.5.2 1.3.7V23q-.7-.6-1.2-.7" class="cls-35"/><path d="M189.6 23.1v.2l.3.3v.3h.2v-.4z" class="cls-8"/><path d="m190 23.9-.2.2-.9-.2h-.5v.1h.5l.9.2z" class="cls-19"/><path d="M187.4 24.3v.1l1-.4zm-.8.3v.1l.8-.3v-.1z" class="cls-12"/><path d="M186.6 24.6h-.2v.1h.2Z" class="cls-62"/><path d="m185.1 23.9 1 .7v-.2z" class="cls-12"/><path d="m185.1 23.5-.1-.1v.6l.1-.1z" class="cls-62"/><path d="m186.8 23-.8-.2h-.3a1 1 0 0 0-.7.6h.1l.6-.5.2.1 1 .3.3-.1V23z" class="cls-35"/><path d="m187.1 23 .1.2.5-.8v-.1c-.2 0-.3.6-.6.7" class="cls-8"/><path d="m180 33.7-.5.2a1 1 0 0 0-.2 1l.1.6-.1.6h-.3l-.4-.1a1 1 0 0 1 0-1l-.6-.1a1 1 0 0 0 .2 1.4 1 1 0 0 0 1 .5l.5-.3a1 1 0 0 0 .3-1l-.2-.7.1-.5h.5v.6l.6.2a1 1 0 0 0-1-1.4m2.3 1.9-2 2.6.4.4 2.1-2.6-.3-.3zm1.5 1.1-1.6 3 .5.2 1-2 .2 2.7.5.3 1.6-3-.5-.3-1 2.1-.2-2.7zm4.2 1.8a2 2 0 0 0-1.5 1.4 1.5 1.5 0 0 0 1 2h.5a1 1 0 0 0 1-.4l-.5-.4-.6.3h-.2q-.8-.2-.6-1.4.3-.9 1-.9h.2l.5.6.6-.2a1 1 0 0 0-1-.9zm2.5.5v3.4h2.1V42h-1.5v-1h1.1v-.5h-1v-.8h1.4v-.5zm6-.6h-.3l-.9.9.3.4.5-.3.7 2.4.6-.2zm2.3-.9-.5.2a1 1 0 0 0-.6 1.2 1 1 0 0 0 .8.5 1 1 0 0 0-.2 1 1 1 0 0 0 .8.5l.6-.1a1 1 0 0 0 .7-1.4 1 1 0 0 0-.8-.5h-.1a1 1 0 0 0 .1-.9 1 1 0 0 0-.8-.5m-.2 1.5-.3-.3a.4.4 0 0 1 .2-.6h.2l.4.2a.4.4 0 0 1-.2.6zm.6 1.4-.4-.3a.5.5 0 0 1 .3-.8h.2l.5.3a.5.5 0 0 1-.3.7zm2.3-4.4-.8.2a1 1 0 0 0-.2 1.6l.4-.4a.5.5 0 1 1 .8-.6l.1.8-.2 1.8.2.2 1.8-1.3-.3-.4-1 .7.1-1.2-.2-1zm2.5-2.2a1 1 0 0 0-1 .4q-.8.9.4 2.2a2 2 0 0 0 1.2.5 1 1 0 0 0 1-.4q.9-.9-.4-2.2a2 2 0 0 0-1.2-.5m.7 2.5-.9-.4q-.8-.9-.4-1.3l.5-.2.9.4q.8.9.4 1.4z" style="fill:#b43c19"/><path d="M1.9 18.4c0 4.4 2.9 6 7.3 7.2 4.2 1 5 2.3 5 4q-.2 2.8-4 3a10 10 0 0 1-7-2.9L1 32.5a13 13 0 0 0 9.2 3.6c4.7 0 7.9-2.8 7.9-7q.1-5.3-7.1-7c-4.5-1.1-5.4-2.3-5.4-4 0-1.5 1.3-3 3.7-3a10 10 0 0 1 6 2.3l2-3a12 12 0 0 0-8-2.8C5 11.6 2 14.5 2 18.4m28.6.1L27 30.6l-3.4-12h-3.9L25 35.9h3.4l3.8-12L36 36h3.3l5.5-17.3H41l-3.5 12-3.8-12.1Zm16 8.7c0 5.2 3.6 9 8.5 9a11 11 0 0 0 6.3-1.8l-1-3a9 9 0 0 1-5.2 1.5 4.7 4.7 0 0 1-4.9-4.3h12.3v-1.1c0-4.6-2.4-9.3-7.9-9.3-4.6 0-8.1 3.9-8.1 9m3.7-1.2q.6-4.5 4.4-4.7 3.7.2 4.3 4.7zm28.8-14.4V20a8 8 0 0 0-5.2-1.8c-3.8 0-7.7 3-7.7 9s4 9 8.1 9a62 62 0 0 0 8.6-.8V11.6ZM70 27.2c0-3.3 2.1-5.7 5-5.7 2.6 0 4.3 1.8 4.3 2.5v8.5l-4.4.3c-2.8 0-4.9-2.4-4.9-5.6m17.8-15.6v23.8a62 62 0 0 0 8.5.8c4 0 8.2-3.1 8.2-9s-4-9-7.8-9a8 8 0 0 0-5 1.7l-.2.1v-8.4Zm3.7 21V24c0-.7 1.7-2.5 4.3-2.5 2.8 0 4.9 2.4 4.9 5.6v.1c0 3.2-2.1 5.6-4.9 5.6zM109 19.7l1 3a11 11 0 0 1 4.8-1q4.1.1 4.2 3.8v.4h-.1a14 14 0 0 0-4.6-.7q-6.5.1-6.7 5.6c0 3.7 3 5.4 5.9 5.4a67 67 0 0 0 9.1-.8v-9.8q0-7.3-7.3-7.3a14 14 0 0 0-6.3 1.4m2.2 11q.1-2.8 4-2.9a11 11 0 0 1 3.8.7V33l-4.5.3q-3.1-.1-3.3-2.6M127.3 19v16.8h3.7v-14h.1l3.8-.3q3.5.1 3.6 4.5v9.8h3.8v-11c0-4-2.3-6.6-6-6.6a63 63 0 0 0-9 .8m19.7-7.4v24.2h3.7v-5l2.5-2.5 5 7.5h4.3l-6.8-10.2 6.6-7h-4.5l-7 7.8V11.6Z" style="fill:#ff5f00"/><path d="M215 47h1v1h-1zM0 0h1v1H0z" style="fill:none"/></g></g></svg>