<svg xmlns="http://www.w3.org/2000/svg" viewBox="0 0 178 35" fill="currentColor">
  <path d="M19 21.3c0 2.4-.7 4.3-2 5.8-1.4 1.5-3 2.2-5.1 2.2-1.8 0-3.3-.6-4.6-1.8-1.2-1.2-1.9-2.9-1.9-5.1V8.2H.3v15.4c0 3.2 1.1 5.9 3.2 7.8 2.1 1.9 4.7 2.9 7.7 2.9 2 0 3.8-.5 5.3-1.4.9-.6 1.7-1.2 2.4-2v3h5.2V8.2H19v13.1zM42.3 7.8c-2 0-3.8.4-5.3 1.4-.9.6-1.7 1.2-2.4 2v-3h-5.2v25.7h5.2V20.8c0-2.4.7-4.3 2-5.8 1.4-1.5 3-2.2 5.1-2.3 1.9 0 3.3.6 4.6 1.8 1.2 1.2 1.8 2.9 1.9 5.2V34h5.2V18.5c0-3.2-1.1-5.8-3.2-7.8-2.3-2-4.9-2.9-7.9-2.9zM87.7 21.6c-1.5-1.3-3.8-2.2-6.9-2.9-2.8-.6-4.8-1.1-5.8-1.5-.5-.2-.8-.4-.9-.7-.2-.3-.3-.6-.3-.9 0-.4.1-.8.3-1.1.2-.3.6-.7 1.1-1 1.1-.6 2.3-.9 3.7-.9 2.8 0 5.8 1 9.1 3.1l1 .6v-5.4l-.3-.2c-3.2-1.9-6.5-2.9-9.7-2.9-2.7 0-5 .7-7.1 2-1 .7-1.8 1.5-2.4 2.5-.5 1-.8 2.1-.8 3.2 0 2 .9 3.7 2.5 4.9 1.6 1.1 4 2 7.2 2.7 2.5.5 4.3 1.1 5.2 1.7.5.3.8.6 1 .9.2.3.3.6.3.9v.1c0 .4-.1.7-.3 1.1s-.5.6-.9.9c-.9.6-2.1 1-3.8 1-2 0-3.8-.4-5.6-1.2-1.8-.8-3.2-1.8-4.3-3l-1.1-1.1v6.3l.3.2c3.5 2.4 7.1 3.6 10.8 3.6 2.8 0 5.2-.6 7.1-2 1.9-1.3 3-3.4 2.9-5.8-.1-2.1-.9-3.8-2.3-5.1zM119.1 19.2c0-.1 0-.1 0 0-.4-3.2-1.9-6-4.3-8.1-2.4-2.2-5.3-3.3-8.5-3.3-3.6 0-6.8 1.3-9.3 3.9-2.5 2.5-3.8 5.7-3.8 9.4 0 3.6 1.3 6.8 3.8 9.4 2.5 2.6 5.7 3.9 9.3 3.9 2.5 0 4.8-.6 7-1.9 2.2-1.3 3.8-3 4.9-5.1l.4-.7-4.7-1.1-.2.3c-.8 1.1-1.8 2-3.1 2.7-1.3.7-2.7 1-4.1 1-2.1 0-3.9-.7-5.4-2-1.3-1.2-2.1-2.6-2.4-4.4h20.6l.1-.5c.1-.5.1-1 .1-1.5-.2-.7-.3-1.4-.4-2zm-20.7-.5c.3-1.6 1.1-3 2.4-4.2 1.5-1.3 3.2-2 5.3-2 2.1 0 3.8.7 5.3 2 1.3 1.2 2.1 2.5 2.4 4.2H98.4zM136 7.8c-2 0-3.8.4-5.3 1.4-.9.6-1.7 1.2-2.4 2v-3h-5.2v25.7h5.2V20.8c0-2.4.7-4.3 2-5.8 1.4-1.5 3-2.2 5.1-2.3 1.9 0 3.3.6 4.6 1.8 1.2 1.2 1.8 2.9 1.9 5.2V34h5.2V18.5c0-3.2-1.1-5.8-3.2-7.8-2.3-2-4.9-2.9-7.9-2.9zM172.1.3v11.1c-.8-.9-1.8-1.7-2.8-2.3-1.7-.9-3.5-1.4-5.5-1.4-3.6 0-6.7 1.3-9.1 3.9-2.5 2.6-3.8 5.7-3.7 9.4 0 3.6 1.3 6.8 3.8 9.4 2.5 2.6 5.6 3.9 9.1 3.9 2 0 3.9-.5 5.5-1.4 1.1-.6 2-1.4 2.8-2.3v3.3h5.2V.3h-5.3zM169.9 27c-1.7 1.7-3.6 2.5-5.8 2.5-2.3 0-4.2-.8-5.8-2.5-1.6-1.7-2.4-3.6-2.4-5.9 0-2.4.8-4.3 2.4-6 1.6-1.6 3.5-2.4 5.8-2.4s4.2.8 5.9 2.5c1.6 1.7 2.4 3.6 2.4 5.9 0 2.3-.8 4.2-2.5 5.9zM63.5 7.3c0 .5-.4.9-.9.9h-2.4c-1 0-1.8.8-1.8 1.8v23.9h5.2V9.2c0-.5.4-.9.9-.9h2.4c1 0 1.8-.8 1.8-1.8V3.1h-5.2v4.2z"/>
</svg>
